{
.formatVersion = 3;
axes = (
{
name = Weight;
tag = wght;
}
);
classes = (
{
code = "space parenleft parenright hyphen slash at A J O bracketleft bracketright a f i j o braceleft braceright guillemetleft guillemetright germandbls Scedilla scedilla Tcedilla tcedilla gravecomb acutecomb circumflexcomb tildecomb macroncomb brevecomb dotaccentcomb dieresiscomb hookabovecomb hungarumlautcomb caroncomb dblgravecomb breveinvertedcomb Alphatonos Epsilontonos Etatonos Iotatonos Omicrontonos Upsilontonos Omegatonos Iota Upsilon De-cy El-cy Ef-cy be-cy ve-cy ge-cy de-cy zhe-cy ze-cy ii-cy iishort-cy ka-cy el-cy pe-cy te-cy ef-cy tse-cy sha-cy shcha-cy hardsign-cy softsign-cy iu-cy gje-cy iigrave-cy Ghestroke-cy ghestroke-cy Zedescender-cy zedescender-cy endash emdash bullet guilsinglleft guilsinglright circumflexcomb_acutecomb circumflexcomb_gravecomb circumflexcomb_hookabovecomb circumflexcomb_tildecomb brevecomb_acutecomb brevecomb_gravecomb brevecomb_hookabovecomb brevecomb_tildecomb";
name = aalt;
},
{

glyphs = (
{
glyphname = .notdef;
layers = (
{
layerId = "6958D9FC-3AA0-42A5-A7C5-41542F6C8ADC";
shapes = (
{
closed = 1;
nodes = (
(1170,-384,l),
(1170,1636,l),
(40,1636,l),
(40,-384,l)
);
},
{
closed = 1;
nodes = (
(200,1476,l),
(1010,1476,l),
(1010,-224,l),
(200,-224,l)
);
}
);
width = 1210;
},
{
layerId = "05F448A1-237D-4A5F-844D-77861616AAFF";
shapes = (
{
closed = 1;
nodes = (
(1170,-384,l),
(1170,1636,l),
(73,1636,l),
(73,-384,l)
);
},
{
closed = 1;
nodes = (
(178,1530,l),
(1064,1530,l),
(1064,-278,l),
(178,-278,l)
);
}
);
width = 1243;
},
{
layerId = "7735F29D-4F76-449E-8F41-87F6EE236855";
shapes = (
{
closed = 1;
nodes = (
(1170,-384,l),
(1170,1636,l),
(85,1636,l),
(85,-384,l)
);
},
{
closed = 1;
nodes = (
(170,1551,l),
(1085,1551,l),
(1085,-299,l),
(170,-299,l)
);
}
);
width = 1255;
},
{
layerId = "5BCA41AC-1A8A-4D79-8779-5300D22224AB";
shapes = (
{
closed = 1;
nodes = (
(1170,-384,l),
(1170,1636,l),
(100,1636,l),
(100,-384,l)
);
},
{
closed = 1;
nodes = (
(160,1576,l),
(1110,1576,l),
(1110,-324,l),
(160,-324,l)
);
}
);
width = 1270;
}
);
},
{
glyphname = A;
layers = (
{
anchors = (
{
name = bottom;
position = "{750, 0}";
},
{
name = ogonek;
position = "{1478, 0}";
},
{
name = top;
position = "{750, 1426}";
},
{
name = topleft;
position = "{340, 1426}";
}
);
layerId = "6958D9FC-3AA0-42A5-A7C5-41542F6C8ADC";
shapes = (
{
closed = 1;
nodes = (
(514,0,l),
(542,133,o),
(574,283,o),
(602,416,cs),
(730,1020,l),
(762,1020,l),
(888,408,ls),
(901,344,o),
(915,280,o),
(930,208,cs),
(945,136,o),
(957,68,o),
(972,0,c),
(1478,0,l),
(1434,153,o),
(1385,321,o),
(1338,482,cs),
(1196,972,ls),
(1171,1057,o),
(1149,1133,o),
(1128,1206,cs),
(1107,1279,o),
(1087,1350,o),
(1064,1426,c),
(438,1426,l),
(417,1354,o),
(397,1285,o),
(376,1212,cs),
(355,1139,o),
(333,1061,o),
(306,972,cs),
(164,482,ls),
(143,406,o),
(118,325,o),
(94,241,cs),
(70,157,o),
(47,76,o),
(24,0,c)
);
},
{
closed = 1;
nodes = (
(1100,232,l),
(1054,592,l),
(510,592,l),
(454,232,l)
);
}
);
width = 1498;
},
{
anchors = (
{
name = bottom;
position = "{714, 0}";
},
{
name = ogonek;
position = "{1384, 0}";
},
{
name = top;
position = "{714, 1426}";
},
{
name = topleft;
position = "{297, 1426}";
}
);
layerId = "05F448A1-237D-4A5F-844D-77861616AAFF";
shapes = (
{
closed = 1;
nodes = (
(311,0,l),
(362,161,o),
(417,332,o),
(468,489,cs),
(695,1201,l),
(716,1201,l),
(942,481,ls),
(965,405,o),
(990,328,o),
(1017,244,cs),
(1044,160,o),
(1068,80,o),
(1093,0,c),
(1362,0,l),
(1310,153,o),
(1254,324,o),
(1198,481,cs),
(1031,972,ls),
(1002,1060,o),
(975,1136,o),
(950,1209,cs),
(925,1281,o),
(901,1350,o),
(876,1426,c),
(540,1426,l),
(515,1354,o),
(491,1284,o),
(466,1211,cs),
(441,1138,o),
(415,1060,o),
(384,972,cs),
(216,482,ls),
(189,406,o),
(161,326,o),
(133,242,cs),
(105,158,o),
(77,76,o),
(50,0,c)
);
},
{
closed = 1;
nodes = (
(1080,326,l),
(1059,523,l),
(382,523,l),
(356,326,l)
);
}
);
width = 1410;
},
{
anchors = (
{
name = bottom;
position = "{689, 0}";
},
{
name = ogonek;
position = "{1318, 0}";
},
{
name = top;
position = "{689, 1426}";
},
{
name = topleft;
position = "{266, 1426}";
}
);
layerId = "7735F29D-4F76-449E-8F41-87F6EE236855";
shapes = (
{
closed = 1;
nodes = (
(234,0,l),
(295,171,o),
(358,350,o),
(417,517,cs),
(682,1270,l),
(699,1270,l),
(963,509,ls),
(990,429,o),
(1019,348,o),
(1050,258,cs),
(1081,169,o),
(1110,84,o),
(1139,0,c),
(1318,0,l),
(1262,153,o),
(1203,324,o),
(1145,481,c),
(968,972,l),
(938,1060,o),
(909,1137,o),
(883,1210,cs),
(857,1282,o),
(831,1351,o),
(805,1426,c),
(579,1426,l),
(552,1354,o),
(527,1284,o),
(501,1211,cs),
(474,1138,o),
(447,1060,o),
(414,972,c),
(236,483,ls),
(208,406,o),
(178,326,o),
(148,242,cs),
(118,158,o),
(89,76,o),
(60,0,c)
);
},
{
closed = 1;
nodes = (
(1073,362,l),
(1061,497,l),
(333,497,l),
(319,362,l)
);
}
);
width = 1377;
},
{
anchors = (
{
name = bottom;
position = "{668, 0}";
},
{
name = ogonek;
position = "{1264, 0}";
},
{
name = top;
position = "{668, 1426}";
},
{
name = topleft;
position = "{241, 1426}";
}
);
layerId = "5BCA41AC-1A8A-4D79-8779-5300D22224AB";
shapes = (
{
closed = 1;
nodes = (
(140,0,l),
(212,184,o),
(286,372,o),
(354,551,cs),
(666,1354,l),
(678,1354,l),
(988,544,ls),
(1020,459,o),
(1054,372,o),
(1091,276,cs),
(1127,180,o),
(1161,89,o),
(1196,0,c),
(1264,0,l),
(1204,153,o),
(1140,324,o),
(1080,481,cs),
(892,972,ls),
(859,1060,o),
(829,1138,o),
(801,1211,cs),
(773,1283,o),
(746,1353,o),
(718,1426,c),
(626,1426,l),
(598,1354,o),
(571,1284,o),
(543,1211,cs),
(514,1138,o),
(485,1061,o),
(450,973,cs),
(260,484,ls),
(231,407,o),
(198,326,o),
(166,242,cs),
(134,158,o),
(103,77,o),
(72,0,c)
);
},
{
closed = 1;
nodes = (
(1064,406,l),
(1064,466,l),
(274,466,l),
(274,406,l)
);
}
);
width = 1336;
}
);
leftKerningGroup = A2;
rightKerningGroup = A;
unicode = 65;
},
{
glyphname = AE;
layers = (
{
anchors = (
{
name = bottom;
position = "{1176, 0}";
},
{
name = top;
position = "{1176, 1426}";
}
);
layerId = "6958D9FC-3AA0-42A5-A7C5-41542F6C8ADC";
shapes = (
{
closed = 1;
nodes = (
(514,0,l),
(562,141,o),
(614,287,o),
(662,428,cs),
(874,1040,l),
(1176,1040,l),
(936,1392,l),
(936,948,l),
(936,458,l),
(936,0,l),
(1964,0,l),
(1964,386,l),
(1578,386,l),
(1264,386,l),
(1416,80,l),
(1416,538,l),
(1416,868,l),
(1416,1346,l),
(1232,1040,l),
(1546,1040,l),
(1950,1040,l),
(1950,1426,l),
(604,1426,l),
(575,1354,o),
(546,1284,o),
(515,1208,cs),
(483,1132,o),
(452,1055,o),
(419,974,cs),
(218,483,ls),
(187,407,o),
(155,328,o),
(120,244,cs),
(85,160,o),
(52,80,o),
(20,0,c)
);
},
{
closed = 1;
nodes = (
(1138,232,l),
(1092,592,l),
(548,592,l),
(492,232,l)
);
},
{
closed = 1;
nodes = (
(1546,542,l),
(1928,542,l),
(1928,886,l),
(1546,886,l),
(1302,886,l),
(1302,542,l)
);
}
);
width = 2044;
},
{
anchors = (
{
name = bottom;
position = "{1067, 0}";
},
{
name = top;
position = "{1067, 1426}";
}
);
layerId = "05F448A1-237D-4A5F-844D-77861616AAFF";
shapes = (
{
closed = 1;
nodes = (
(293,0,l),
(373,161,o),
(455,332,o),
(535,489,cs),
(895,1216,l),
(1066,1216,l),
(939,1406,l),
(939,950,l),
(939,468,l),
(939,0,l),
(1863,0,l),
(1863,218,l),
(1413,218,l),
(1113,218,l),
(1193,40,l),
(1193,508,l),
(1193,910,l),
(1193,1386,l),
(1107,1208,l),
(1393,1208,l),
(1857,1208,l),
(1857,1426,l),
(753,1426,l),
(716,1353,o),
(680,1283,o),
(643,1210,cs),
(606,1137,o),
(567,1062,o),
(523,974,cs),
(273,483,ls),
(234,407,o),
(194,326,o),
(151,242,cs),
(108,158,o),
(66,76,o),
(27,0,c)
);
},
{
closed = 1;
nodes = (
(1051,326,l),
(1029,524,l),
(423,524,l),
(397,326,l)
);
},
{
closed = 1;
nodes = (
(1403,616,l),
(1821,616,l),
(1821,826,l),
(1403,826,l),
(1135,826,l),
(1135,616,l)
);
}
);
width = 1968;
},
{
anchors = (
{
name = bottom;
position = "{1014, 0}";
},
{
name = top;
position = "{1014, 1426}";
}
);
layerId = "7735F29D-4F76-449E-8F41-87F6EE236855";
shapes = (
{
closed = 1;
nodes = (
(209,0,l),
(301,171,o),
(398,351,o),
(489,517,c),
(903,1283,l),
(1024,1283,l),
(939,1411,l),
(939,950,l),
(939,472,l),
(939,0,l),
(1824,0,l),
(1824,148,l),
(1350,148,l),
(1059,148,l),
(1108,26,l),
(1108,497,l),
(1108,925,l),
(1108,1401,l),
(1055,1278,l),
(1335,1278,l),
(1821,1278,l),
(1821,1426,l),
(808,1426,l),
(770,1353,o),
(730,1285,o),
(691,1210,cs),
(651,1136,o),
(609,1062,o),
(563,977,cs),
(293,483,ls),
(252,407,o),
(208,326,o),
(162,242,cs),
(116,158,o),
(71,76,o),
(29,0,c)
);
},
{
closed = 1;
nodes = (
(1016,362,l),
(1004,498,l),
(375,498,l),
(361,362,l)
);
},
{
closed = 1;
nodes = (
(1348,651,l),
(1781,651,l),
(1781,795,l),
(1349,795,l),
(1071,795,l),
(1071,651,l)
);
}
);
width = 1938;
},
{
anchors = (
{
name = bottom;
position = "{972, 0}";
},
{
name = top;
position = "{972, 1426}";
}
);
layerId = "5BCA41AC-1A8A-4D79-8779-5300D22224AB";
shapes = (
{
closed = 1;
nodes = (
(106,0,l),
(214,184,o),
(328,375,o),
(432,552,cs),
(912,1364,l),
(972,1364,l),
(940,1416,l),
(940,950,l),
(940,476,l),
(940,0,l),
(1776,0,l),
(1776,62,l),
(1272,62,l),
(992,62,l),
(1004,8,l),
(1004,484,l),
(1004,944,l),
(1004,1420,l),
(992,1364,l),
(1264,1364,l),
(1778,1364,l),
(1778,1426,l),
(876,1426,l),
(835,1354,o),
(792,1287,o),
(749,1211,cs),
(705,1135,o),
(660,1061,o),
(612,980,cs),
(318,483,ls),
(273,407,o),
(224,326,o),
(175,242,cs),
(126,158,o),
(77,76,o),
(32,0,c)
);
},
{
closed = 1;
nodes = (
(974,406,l),
(974,466,l),
(316,466,l),
(316,406,l)
);
},
{
closed = 1;
nodes = (
(1280,694,l),
(1732,694,l),
(1732,756,l),
(1282,756,l),
(992,756,l),
(992,694,l)
);
}
);
width = 1902;
}
);
leftKerningGroup = AE;
rightKerningGroup = E;
unicode = 198;
},
{
glyphname = B;
layers = (
{
layerId = "6958D9FC-3AA0-42A5-A7C5-41542F6C8ADC";
shapes = (
{
closed = 1;
nodes = (
(654,0,ls),
(922,0,o),
(1088,40,o),
(1187,109,cs),
(1286,180,o),
(1318,281,o),
(1318,408,cs),
(1318,508,o),
(1295,582,o),
(1244,638,cs),
(1193,694,o),
(1120,729,o),
(1020,752,c),
(1020,784,l),
(1097,800,o),
(1165,834,o),
(1213,890,cs),
(1261,946,o),
(1290,1016,o),
(1290,1108,cs),
(1290,1200,o),
(1263,1280,o),
(1179,1336,cs),
(1095,1392,o),
(954,1426,o),
(726,1426,cs),
(92,1426,l),
(92,948,l),
(92,458,l),
(92,0,l)
);
},
{
closed = 1;
nodes = (
(574,334,l),
(574,564,l),
(574,844,l),
(574,1100,l),
(688,1100,ls),
(759,1100,o),
(786,1050,o),
(786,978,cs),
(786,938,o),
(775,910,o),
(756,891,cs),
(736,872,o),
(709,864,o),
(676,864,cs),
(456,864,l),
(456,566,l),
(704,566,ls),
(741,566,o),
(768,554,o),
(785,534,cs),
(802,514,o),
(810,485,o),
(810,450,cs),
(810,409,o),
(799,380,o),
(780,361,cs),
(761,342,o),
(734,334,o),
(702,334,cs)
);
}
);
width = 1362;
},
{
layerId = "05F448A1-237D-4A5F-844D-77861616AAFF";
shapes = (
{
closed = 1;
nodes = (
(635,0,ls),
(870,0,o),
(1019,43,o),
(1111,112,c),
(1202,183,o),
(1235,280,o),
(1235,396,cs),
(1235,504,o),
(1202,580,o),
(1150,636,cs),
(1098,692,o),
(1025,721,o),
(945,738,c),
(945,760,l),
(1018,780,o),
(1081,818,o),
(1128,874,cs),
(1175,930,o),
(1201,1002,o),
(1201,1094,cs),
(1201,1195,o),
(1169,1276,o),
(1093,1336,cs),
(1016,1395,o),
(894,1426,o),
(713,1426,cs),
(161,1426,l),
(161,950,l),
(161,468,l),
(161,0,l)
);
},
{
closed = 1;
nodes = (
(415,210,l),
(415,524,l),
(415,890,l),
(415,1216,l),
(693,1216,ls),
(853,1216,o),
(933,1155,o),
(933,1028,cs),
(933,971,o),
(913,920,o),
(870,881,cs),
(827,842,o),
(763,820,o),
(671,820,cs),
(355,820,l),
(355,618,l),
(679,618,ls),
(771,618,o),
(843,603,o),
(892,571,cs),
(941,538,o),
(967,490,o),
(967,418,cs),
(967,353,o),
(946,300,o),
(895,265,cs),
(844,229,o),
(770,210,o),
(657,210,cs)
);
}
);
width = 1308;
},
{
layerId = "7735F29D-4F76-449E-8F41-87F6EE236855";
shapes = (
{
closed = 1;
nodes = (
(628,0,ls),
(851,0,o),
(994,44,o),
(1083,113,cs),
(1172,184,o),
(1205,280,o),
(1205,392,cs),
(1205,504,o),
(1170,579,o),
(1116,635,cs),
(1062,691,o),
(990,718,o),
(918,733,c),
(918,750,l),
(989,772,o),
(1050,811,o),
(1096,869,cs),
(1141,926,o),
(1167,998,o),
(1167,1090,cs),
(1167,1194,o),
(1135,1276,o),
(1061,1336,cs),
(988,1395,o),
(873,1426,o),
(709,1426,cs),
(188,1426,l),
(188,950,l),
(188,472,l),
(188,0,l)
);
},
{
closed = 1;
nodes = (
(356,143,l),
(356,502,l),
(356,917,l),
(356,1283,l),
(696,1283,ls),
(890,1283,o),
(990,1213,o),
(990,1053,cs),
(990,984,o),
(967,919,o),
(915,870,cs),
(863,821,o),
(785,791,o),
(671,791,cs),
(318,791,l),
(318,653,l),
(670,653,ls),
(785,653,o),
(873,635,o),
(934,596,cs),
(995,556,o),
(1028,494,o),
(1028,404,cs),
(1028,323,o),
(1002,258,o),
(940,213,cs),
(877,168,o),
(784,143,o),
(641,143,cs)
);
}
);
width = 1289;
},
{
layerId = "5BCA41AC-1A8A-4D79-8779-5300D22224AB";
shapes = (
{
closed = 1;
nodes = (
(620,0,ls),
(827,0,o),
(964,45,o),
(1049,114,cs),
(1136,185,o),
(1168,281,o),
(1168,386,cs),
(1168,503,o),
(1130,578,o),
(1074,634,cs),
(1018,690,o),
(948,715,o),
(884,726,c),
(884,738,l),
(953,763,o),
(1013,802,o),
(1057,862,cs),
(1100,922,o),
(1126,992,o),
(1126,1084,cs),
(1126,1192,o),
(1094,1276,o),
(1022,1336,cs),
(953,1395,o),
(847,1426,o),
(704,1426,cs),
(220,1426,l),
(220,950,l),
(220,476,l),
(220,0,l)
);
},
{
closed = 1;
nodes = (
(284,62,l),
(284,476,l),
(284,950,l),
(284,1364,l),
(700,1364,ls),
(936,1364,o),
(1060,1284,o),
(1060,1084,cs),
(1060,1000,o),
(1034,918,o),
(970,857,cs),
(906,796,o),
(811,756,o),
(670,756,cs),
(272,756,l),
(272,696,l),
(660,696,ls),
(801,696,o),
(909,675,o),
(985,626,cs),
(1061,577,o),
(1102,499,o),
(1102,386,cs),
(1102,286,o),
(1070,206,o),
(994,150,cs),
(918,94,o),
(801,62,o),
(622,62,cs)
);
}
);
width = 1266;
}
);
leftKerningGroup = B;
unicode = 66;
},
{
glyphname = "Be-cy";
layers = (
{
layerId = "6958D9FC-3AA0-42A5-A7C5-41542F6C8ADC";
shapes = (
{
closed = 1;
nodes = (
(790,0,ls),
(974,0,o),
(1101,43,o),
(1185,122,cs),
(1269,202,o),
(1306,309,o),
(1306,446,cs),
(1306,621,o),
(1256,727,o),
(1160,792,cs),
(1064,856,o),
(924,878,o),
(736,878,cs),
(516,878,l),
(516,575,l),
(702,575,ls),
(713,575,o),
(724,575,o),
(733,572,cs),
(752,567,o),
(768,557,o),
(780,544,cs),
(787,537,o),
(791,530,o),
(795,522,cs),
(803,505,o),
(808,486,o),
(808,463,cs),
(808,419,o),
(797,390,o),
(777,371,cs),
(757,352,o),
(727,344,o),
(690,344,cs),
(574,344,l),
(574,538,l),
(574,868,l),
(574,1346,l),
(372,1032,l),
(705,1032,l),
(1209,1032,l),
(1209,1426,l),
(92,1426,l),
(92,948,l),
(92,458,l),
(92,0,l)
);
}
);
width = 1350;
},
{
layerId = "05F448A1-237D-4A5F-844D-77861616AAFF";
shapes = (
{
closed = 1;
nodes = (
(683,0,ls),
(879,0,o),
(1007,45,o),
(1090,121,cs),
(1174,197,o),
(1205,303,o),
(1205,432,cs),
(1205,592,o),
(1163,699,o),
(1079,768,cs),
(995,837,o),
(872,867,o),
(701,867,cs),
(385,867,l),
(385,661,l),
(684,661,ls),
(701,661,o),
(719,660,o),
(738,659,c),
(777,655,o),
(814,646,o),
(850,627,c),
(867,616,o),
(882,604,o),
(897,589,c),
(924,557,o),
(941,513,o),
(941,449,cs),
(941,357,o),
(912,297,o),
(860,261,cs),
(808,224,o),
(732,210,o),
(636,210,cs),
(417,210,l),
(417,509,l),
(417,909,l),
(417,1386,l),
(264,1198,l),
(609,1198,l),
(1118,1198,l),
(1118,1426,l),
(161,1426,l),
(161,949,l),
(161,468,l),
(161,0,l)
);
}
);
width = 1278;
},
{
layerId = "7735F29D-4F76-449E-8F41-87F6EE236855";
shapes = (
{
closed = 1;
nodes = (
(642,0,ls),
(843,0,o),
(972,45,o),
(1054,121,cs),
(1136,197,o),
(1167,303,o),
(1167,428,cs),
(1167,572,o),
(1129,672,o),
(1049,739,cs),
(968,806,o),
(853,836,o),
(688,836,cs),
(335,836,l),
(335,695,l),
(677,695,ls),
(696,695,o),
(717,694,o),
(739,693,cs),
(786,690,o),
(832,680,o),
(877,659,c),
(898,647,o),
(918,632,o),
(935,614,cs),
(969,575,o),
(992,520,o),
(992,438,cs),
(992,322,o),
(957,250,o),
(892,205,cs),
(827,159,o),
(733,143,o),
(615,143,cs),
(357,143,l),
(357,498,l),
(357,925,l),
(357,1401,l),
(259,1273,l),
(573,1273,l),
(1084,1273,l),
(1084,1426,l),
(188,1426,l),
(188,949,l),
(188,472,l),
(188,0,l)
);
}
);
width = 1251;
},
{
layerId = "5BCA41AC-1A8A-4D79-8779-5300D22224AB";
shapes = (
{
closed = 1;
nodes = (
(592,0,ls),
(799,0,o),
(929,45,o),
(1010,121,cs),
(1090,197,o),
(1120,303,o),
(1120,424,cs),
(1120,548,o),
(1087,639,o),
(1012,703,cs),
(936,767,o),
(829,798,o),
(672,798,cs),
(274,798,l),
(274,736,l),
(668,736,ls),
(689,736,o),
(714,736,o),
(741,735,cs),
(797,732,o),
(853,722,o),
(909,697,c),
(936,684,o),
(961,667,o),
(982,644,cs),
(1025,597,o),
(1054,528,o),
(1054,424,cs),
(1054,279,o),
(1011,192,o),
(931,136,cs),
(851,80,o),
(735,62,o),
(590,62,cs),
(284,62,l),
(284,484,l),
(284,944,l),
(284,1420,l),
(252,1364,l),
(528,1364,l),
(1042,1364,l),
(1042,1426,l),
(220,1426,l),
(220,950,l),
(220,476,l),
(220,0,l)
);
}
);
width = 1218;
}
);
rightKerningGroup = uni0405;
unicode = 1041;
},
{
glyphname = C;
layers = (
{
anchors = (
{
name = bottom;
position = "{786, 0}";
},
{
name = top;
position = "{786, 1426}";
}
);
layerId = "6958D9FC-3AA0-42A5-A7C5-41542F6C8ADC";
shapes = (
{
closed = 1;
nodes = (
(908,-32,o),
(994,-25,o),
(1074,-12,cs),
(1154,1,o),
(1227,22,o),
(1284,50,c),
(1262,494,l),
(1133,394,o),
(1008,364,o),
(896,364,cs),
(779,364,o),
(697,405,o),
(641,469,cs),
(585,533,o),
(560,618,o),
(560,710,cs),
(560,827,o),
(591,910,o),
(647,966,cs),
(703,1022,o),
(775,1048,o),
(860,1048,cs),
(968,1048,o),
(1099,1010,o),
(1256,906,c),
(1290,1356,l),
(1229,1387,o),
(1151,1411,o),
(1066,1430,cs),
(981,1449,o),
(889,1458,o),
(800,1458,cs),
(551,1458,o),
(367,1379,o),
(239,1243,cs),
(111,1107,o),
(48,924,o),
(48,708,cs),
(48,476,o),
(122,295,o),
(258,166,cs),
(394,37,o),
(584,-32,o),
(824,-32,cs)
);
}
);
width = 1364;
},
{
anchors = (
{
name = bottom;
position = "{793, 0}";
},
{
name = top;
position = "{784, 1426}";
}
);
layerId = "05F448A1-237D-4A5F-844D-77861616AAFF";
shapes = (
{
closed = 1;
nodes = (
(909,-24,o),
(987,-17,o),
(1063,-1,cs),
(1139,16,o),
(1208,41,o),
(1265,74,c),
(1249,315,l),
(1124,224,o),
(989,193,o),
(860,193,cs),
(689,193,o),
(567,251,o),
(483,347,cs),
(399,443,o),
(357,572,o),
(357,713,cs),
(357,878,o),
(406,1005,o),
(490,1094,cs),
(574,1182,o),
(692,1230,o),
(829,1230,cs),
(958,1230,o),
(1095,1194,o),
(1252,1098,c),
(1273,1342,l),
(1221,1370,o),
(1149,1398,o),
(1069,1419,cs),
(988,1440,o),
(896,1454,o),
(803,1454,cs),
(580,1454,o),
(405,1379,o),
(280,1246,cs),
(155,1113,o),
(87,932,o),
(87,713,cs),
(87,494,o),
(157,315,o),
(286,183,cs),
(415,51,o),
(597,-24,o),
(829,-24,cs)
);
}
);
width = 1368;
},
{
anchors = (
{
name = bottom;
position = "{798, 0}";
},
{
name = top;
position = "{783, 1426}";
}
);
layerId = "7735F29D-4F76-449E-8F41-87F6EE236855";
shapes = (
{
closed = 1;
nodes = (
(909,-21,o),
(986,-14,o),
(1060,4,cs),
(1134,21,o),
(1202,47,o),
(1258,83,c),
(1244,247,l),
(1121,159,o),
(982,128,o),
(847,128,cs),
(657,128,o),
(518,193,o),
(423,301,cs),
(328,408,o),
(280,552,o),
(280,714,cs),
(280,897,o),
(336,1041,o),
(431,1143,cs),
(526,1244,o),
(660,1299,o),
(818,1299,cs),
(954,1299,o),
(1094,1263,o),
(1251,1171,c),
(1267,1337,l),
(1218,1364,o),
(1150,1393,o),
(1070,1415,cs),
(989,1437,o),
(899,1452,o),
(804,1452,cs),
(592,1452,o),
(421,1378,o),
(296,1246,cs),
(171,1115,o),
(102,935,o),
(102,715,cs),
(102,501,o),
(170,321,o),
(297,189,cs),
(424,56,o),
(603,-21,o),
(831,-21,cs)
);
}
);
width = 1370;
},
{
anchors = (
{
name = bottom;
position = "{802, 0}";
},
{
name = top;
position = "{782, 1426}";
}
);
layerId = "5BCA41AC-1A8A-4D79-8779-5300D22224AB";
shapes = (
{
closed = 1;
nodes = (
(910,-18,o),
(984,-10,o),
(1056,9,cs),
(1128,28,o),
(1194,55,o),
(1250,94,c),
(1238,164,l),
(1118,80,o),
(974,48,o),
(830,48,cs),
(617,48,o),
(458,123,o),
(350,244,cs),
(242,365,o),
(186,528,o),
(186,716,cs),
(186,921,o),
(250,1085,o),
(359,1202,cs),
(468,1319,o),
(620,1384,o),
(804,1384,cs),
(949,1384,o),
(1093,1348,o),
(1250,1260,c),
(1260,1330,l),
(1215,1357,o),
(1151,1386,o),
(1071,1410,cs),
(991,1433,o),
(902,1450,o),
(806,1450,cs),
(607,1450,o),
(441,1376,o),
(316,1247,cs),
(191,1118,o),
(120,938,o),
(120,718,cs),
(120,510,o),
(186,329,o),
(311,196,cs),
(436,63,o),
(610,-18,o),
(834,-18,cs)
);
}
);
width = 1372;
}
);
leftKerningGroup = C2;
rightKerningGroup = C;
unicode = 67;
},
{
glyphname = "Che-cy";
layers = (
{
anchors = (
{
name = "#exit";
position = "{1342, 0}";
},
{
name = top;
position = "{703, 1426}";
}
);
layerId = "6958D9FC-3AA0-42A5-A7C5-41542F6C8ADC";
shapes = (
{
closed = 1;
nodes = (
(1342,0,l),
(1342,458,l),
(1342,948,l),
(1342,1426,l),
(850,1426,l),
(850,948,l),
(850,838,l),
(806,818,o),
(759,806,o),
(699,806,cs),
(643,806,o),
(606,823,o),
(585,848,cs),
(564,872,o),
(556,905,o),
(556,938,cs),
(556,984,l),
(556,1426,l),
(64,1426,l),
(64,976,l),
(64,872,ls),
(64,727,o),
(111,617,o),
(192,541,cs),
(273,465,o),
(390,427,o),
(527,427,cs),
(591,427,o),
(646,430,o),
(698,438,cs),
(749,446,o),
(798,459,o),
(850,478,c),
(850,425,l),
(850,0,l)
);
}
);
width = 1434;
},
{
anchors = (
{
name = "#exit";
position = "{1236, 0}";
},
{
name = top;
position = "{664, 1426}";
}
);
layerId = "05F448A1-237D-4A5F-844D-77861616AAFF";
shapes = (
{
closed = 1;
nodes = (
(1211,0,l),
(1211,468,l),
(1211,949,l),
(1211,1426,l),
(951,1426,l),
(951,949,l),
(951,765,l),
(874,724,o),
(780,695,o),
(656,695,cs),
(548,695,o),
(475,718,o),
(427,761,cs),
(379,804,o),
(358,868,o),
(358,948,cs),
(358,1006,l),
(358,1426,l),
(98,1426,l),
(98,1013,l),
(98,918,ls),
(98,773,o),
(141,667,o),
(225,595,cs),
(309,523,o),
(428,487,o),
(577,487,cs),
(661,487,o),
(730,496,o),
(791,511,cs),
(852,526,o),
(906,543,o),
(951,563,c),
(951,452,l),
(951,0,l)
);
}
);
width = 1372;
},
{
anchors = (
{
name = "#exit";
position = "{1161, 0}";
},
{
name = top;
position = "{636, 1426}";
}
);
layerId = "7735F29D-4F76-449E-8F41-87F6EE236855";
shapes = (
{
closed = 1;
nodes = (
(1161,0,l),
(1161,472,l),
(1161,949,l),
(1161,1426,l),
(989,1426,l),
(989,949,l),
(989,738,l),
(900,688,o),
(789,653,o),
(639,653,cs),
(513,653,o),
(426,678,o),
(367,729,cs),
(308,779,o),
(282,854,o),
(282,952,cs),
(282,1015,l),
(282,1426,l),
(111,1426,l),
(111,1027,l),
(111,936,ls),
(111,792,o),
(153,686,o),
(237,616,cs),
(321,545,o),
(442,510,o),
(596,510,cs),
(686,510,o),
(762,521,o),
(827,538,cs),
(891,555,o),
(946,575,o),
(989,595,c),
(989,463,l),
(989,0,l)
);
}
);
width = 1349;
},
{
anchors = (
{
name = "#exit";
position = "{1100, 0}";
},
{
name = top;
position = "{613, 1426}";
}
);
layerId = "5BCA41AC-1A8A-4D79-8779-5300D22224AB";
shapes = (
{
closed = 1;
nodes = (
(1100,0,l),
(1100,476,l),
(1100,950,l),
(1100,1426,l),
(1036,1426,l),
(1036,950,l),
(1036,705,l),
(931,645,o),
(799,602,o),
(619,602,cs),
(470,602,o),
(365,629,o),
(293,689,cs),
(221,749,o),
(190,836,o),
(190,957,cs),
(190,1025,l),
(190,1426,l),
(126,1426,l),
(126,1045,l),
(126,957,ls),
(126,816,o),
(168,710,o),
(252,641,cs),
(336,572,o),
(458,538,o),
(619,538,cs),
(716,538,o),
(801,552,o),
(870,571,cs),
(939,590,o),
(995,615,o),
(1036,635,c),
(1036,476,l),
(1036,0,l)
);
}
);
width = 1320;
}
);
leftKerningGroup = uni0427;
rightKerningGroup = uni0406;
unicode = 1063;
},
{
glyphname = "Cheabkhasian-cy";
layers = (
{
anchors = (
{
name = bottom;
position = "{1140, 0}";
},
{
name = top;
position = "{1140, 1426}";
}
);
layerId = "6958D9FC-3AA0-42A5-A7C5-41542F6C8ADC";
shapes = (
{
closed = 1;
nodes = (
(1308,-32,o),
(1414,-19,o),
(1506,1,cs),
(1598,21,o),
(1669,47,o),
(1726,72,c),
(1694,490,l),
(1557,414,o),
(1417,364,o),
(1248,364,cs),
(1155,364,o),
(1071,384,o),
(1011,421,c),
(950,457,o),
(911,513,o),
(907,582,c),
(907,754,l),
(910,850,o),
(931,927,o),
(972,980,cs),
(1012,1033,o),
(1072,1062,o),
(1151,1062,cs),
(1239,1062,o),
(1300,1028,o),
(1337,980,cs),
(1376,932,o),
(1390,869,o),
(1389,812,c),
(1451,878,l),
(825,878,l),
(825,558,l),
(1851,558,l),
(1865,734,l),
(1865,926,o),
(1816,1102,o),
(1703,1238,cs),
(1590,1373,o),
(1411,1458,o),
(1151,1458,cs),
(903,1458,o),
(724,1387,o),
(599,1255,cs),
(474,1123,o),
(415,941,o),
(415,714,cs),
(415,478,o),
(483,295,o),
(612,166,cs),
(741,37,o),
(930,-32,o),
(1179,-32,cs)
);
},
{
closed = 1;
nodes = (
(620,558,l),
(620,875,l),
(504,875,ls),
(456,875,o),
(424,882,o),
(404,903,cs),
(384,924,o),
(376,961,o),
(376,1021,cs),
(376,1054,o),
(385,1104,o),
(398,1155,cs),
(410,1206,o),
(427,1257,o),
(444,1292,c),
(103,1309,l),
(75,1258,o),
(54,1194,o),
(39,1126,cs),
(23,1058,o),
(15,992,o),
(15,940,cs),
(15,672,o),
(151,558,o),
(440,558,cs)
);
}
);
width = 1913;
},
{
anchors = (
{
name = bottom;
position = "{1081, 0}";
},
{
name = top;
position = "{1081, 1426}";
}
);
layerId = "05F448A1-237D-4A5F-844D-77861616AAFF";
shapes = (
{
closed = 1;
nodes = (
(1242,-24,o),
(1340,-12,o),
(1429,8,cs),
(1518,28,o),
(1599,56,o),
(1664,88,c),
(1642,317,l),
(1497,237,o),
(1337,193,o),
(1169,193,cs),
(1004,193,o),
(879,234,o),
(787,314,cs),
(695,394,o),
(648,506,o),
(645,651,c),
(645,733,l),
(646,870,o),
(676,996,o),
(748,1088,cs),
(819,1180,o),
(927,1237,o),
(1082,1237,cs),
(1241,1237,o),
(1351,1178,o),
(1423,1090,cs),
(1495,1001,o),
(1524,881,o),
(1524,760,c),
(1561,812,l),
(591,812,l),
(591,610,l),
(1771,610,l),
(1778,724,l),
(1778,921,o),
(1727,1100,o),
(1611,1236,cs),
(1498,1371,o),
(1323,1454,o),
(1080,1454,cs),
(852,1454,o),
(683,1380,o),
(563,1247,cs),
(443,1114,o),
(384,934,o),
(384,715,cs),
(384,480,o),
(453,300,o),
(582,171,cs),
(711,42,o),
(897,-24,o),
(1138,-24,cs)
);
},
{
closed = 1;
nodes = (
(525,622,l),
(525,801,l),
(432,801,ls),
(352,801,o),
(304,817,o),
(276,849,c),
(247,880,o),
(239,927,o),
(239,987,cs),
(239,1023,o),
(246,1070,o),
(258,1118,cs),
(270,1165,o),
(286,1213,o),
(305,1250,c),
(114,1260,l),
(90,1216,o),
(71,1164,o),
(59,1108,cs),
(46,1052,o),
(39,998,o),
(39,950,cs),
(39,729,o),
(153,622,o),
(392,622,cs)
);
}
);
width = 1865;
},
{
anchors = (
{
name = bottom;
position = "{1053, 0}";
},
{
name = top;
position = "{1053, 1426}";
}
);
layerId = "7735F29D-4F76-449E-8F41-87F6EE236855";
shapes = (
{
closed = 1;
nodes = (
(1216,-21,o),
(1311,-10,o),
(1400,10,cs),
(1488,30,o),
(1572,59,o),
(1641,94,c),
(1622,251,l),
(1474,168,o),
(1306,128,o),
(1139,128,cs),
(947,128,o),
(804,178,o),
(702,273,cs),
(599,367,o),
(547,502,o),
(546,678,c),
(546,725,l),
(546,879,o),
(581,1022,o),
(663,1129,cs),
(745,1235,o),
(872,1303,o),
(1056,1303,cs),
(1242,1303,o),
(1371,1235,o),
(1455,1131,cs),
(1540,1026,o),
(1575,887,o),
(1575,740,c),
(1603,779,l),
(502,779,l),
(502,640,l),
(1741,640,l),
(1745,720,l),
(1745,920,o),
(1692,1100,o),
(1576,1235,c),
(1463,1369,o),
(1289,1452,o),
(1053,1452,cs),
(832,1452,o),
(666,1377,o),
(549,1244,cs),
(432,1111,o),
(372,932,o),
(372,715,cs),
(372,480,o),
(441,302,o),
(570,173,cs),
(699,45,o),
(884,-21,o),
(1122,-21,cs)
);
},
{
closed = 1;
nodes = (
(462,646,l),
(462,773,l),
(405,773,ls),
(312,773,o),
(258,792,o),
(227,828,c),
(195,863,o),
(187,914,o),
(187,974,cs),
(187,1010,o),
(193,1057,o),
(205,1104,cs),
(217,1149,o),
(232,1197,o),
(252,1234,c),
(119,1242,l),
(96,1200,o),
(78,1152,o),
(67,1101,cs),
(55,1050,o),
(48,1000,o),
(48,954,cs),
(48,750,o),
(154,646,o),
(374,646,cs)
);
}
);
width = 1847;
},
{
anchors = (
{
name = bottom;
position = "{1031, 0}";
},
{
name = top;
position = "{1031, 1426}";
}
);
layerId = "5BCA41AC-1A8A-4D79-8779-5300D22224AB";
shapes = (
{
closed = 1;
nodes = (
(1184,-18,o),
(1275,-7,o),
(1364,13,cs),
(1452,33,o),
(1539,63,o),
(1612,102,c),
(1598,171,l),
(1445,83,o),
(1268,48,o),
(1103,48,cs),
(878,48,o),
(713,109,o),
(597,222,cs),
(481,335,o),
(424,498,o),
(424,710,cs),
(424,716,ls),
(424,891,o),
(464,1054,o),
(560,1179,cs),
(655,1303,o),
(805,1384,o),
(1024,1384,cs),
(1243,1384,o),
(1395,1305,o),
(1495,1182,cs),
(1595,1057,o),
(1638,895,o),
(1638,716,c),
(1654,738,l),
(394,738,l),
(394,676,l),
(1704,676,l),
(1704,716,ls),
(1704,919,o),
(1649,1100,o),
(1533,1233,cs),
(1420,1366,o),
(1247,1450,o),
(1020,1450,cs),
(808,1450,o),
(645,1374,o),
(532,1241,cs),
(419,1108,o),
(358,929,o),
(358,716,cs),
(358,481,o),
(427,304,o),
(556,176,cs),
(685,48,o),
(868,-18,o),
(1103,-18,cs)
);
},
{
closed = 1;
nodes = (
(384,676,l),
(384,738,l),
(372,738,ls),
(264,738,o),
(202,762,o),
(167,802,cs),
(132,842,o),
(124,897,o),
(124,958,cs),
(124,995,o),
(129,1041,o),
(141,1086,cs),
(152,1130,o),
(167,1177,o),
(187,1214,c),
(124,1219,l),
(103,1180,o),
(87,1137,o),
(76,1093,cs),
(65,1048,o),
(60,1002,o),
(60,958,cs),
(60,775,o),
(156,676,o),
(351,676,cs)
);
}
);
width = 1824;
}
);
leftKerningGroup = uni04BC;
rightKerningGroup = uni041E;
unicode = 1212;
},
{
glyphname = "Chedescender-cy";
layers = (
{
anchors = (
{
name = _bottomright;
position = "{1342, 0}";
},
{
name = top;
position = "{703, 1426}";
}
);
layerId = "6958D9FC-3AA0-42A5-A7C5-41542F6C8ADC";
shapes = (
{
closed = 1;
nodes = (
(1342,0,l),
(1342,458,l),
(1342,948,l),
(1342,1426,l),
(850,1426,l),
(850,948,l),
(850,838,l),
(806,818,o),
(759,806,o),
(699,806,cs),
(643,806,o),
(606,823,o),
(585,848,cs),
(564,872,o),
(556,905,o),
(556,938,cs),
(556,984,l),
(556,1426,l),
(64,1426,l),
(64,976,l),
(64,872,ls),
(64,727,o),
(111,617,o),
(192,541,cs),
(273,465,o),
(390,427,o),
(527,427,cs),
(591,427,o),
(646,430,o),
(698,438,cs),
(749,446,o),
(798,459,o),
(850,478,c),
(850,425,l),
(850,0,l)
);
},
{
closed = 1;
nodes = (
(1525,-300,l),
(1525,44,l),
(1525,404,l),
(991,404,l),
(991,0,l),
(1166,0,l),
(1091,76,l),
(1117,-300,l)
);
}
);
width = 1547;
},
{
anchors = (
{
name = _bottomright;
position = "{1236, 0}";
},
{
name = top;
position = "{664, 1426}";
}
);
layerId = "05F448A1-237D-4A5F-844D-77861616AAFF";
shapes = (
{
closed = 1;
nodes = (
(1211,0,l),
(1211,468,l),
(1211,949,l),
(1211,1426,l),
(951,1426,l),
(951,949,l),
(951,765,l),
(874,724,o),
(780,695,o),
(656,695,cs),
(548,695,o),
(475,718,o),
(427,761,cs),
(379,804,o),
(358,868,o),
(358,948,cs),
(358,1006,l),
(358,1426,l),
(98,1426,l),
(98,1013,l),
(98,918,ls),
(98,773,o),
(141,667,o),
(225,595,cs),
(309,523,o),
(428,487,o),
(577,487,cs),
(661,487,o),
(730,496,o),
(791,511,cs),
(852,526,o),
(906,543,o),
(951,563,c),
(951,452,l),
(951,0,l)
);
},
{
closed = 1;
nodes = (
(1394,-305,l),
(1394,-49,l),
(1394,219,l),
(1030,219,l),
(1030,0,l),
(1211,0,l),
(1160,41,l),
(1175,-305,l)
);
}
);
width = 1440;
},
{
anchors = (
{
name = _bottomright;
position = "{1161, 0}";
},
{
name = top;
position = "{636, 1426}";
}
);
layerId = "7735F29D-4F76-449E-8F41-87F6EE236855";
shapes = (
{
closed = 1;
nodes = (
(1161,0,l),
(1161,472,l),
(1161,949,l),
(1161,1426,l),
(989,1426,l),
(989,949,l),
(989,738,l),
(900,688,o),
(789,653,o),
(639,653,cs),
(513,653,o),
(426,678,o),
(367,729,cs),
(308,779,o),
(282,854,o),
(282,952,cs),
(282,1015,l),
(282,1426,l),
(111,1426,l),
(111,1027,l),
(111,936,ls),
(111,792,o),
(153,686,o),
(237,616,cs),
(321,545,o),
(442,510,o),
(596,510,cs),
(686,510,o),
(762,521,o),
(827,538,cs),
(891,555,o),
(946,575,o),
(989,595,c),
(989,463,l),
(989,0,l)
);
},
{
closed = 1;
nodes = (
(1345,-307,l),
(1345,-84,l),
(1345,148,l),
(1045,148,l),
(1045,0,l),
(1229,0,l),
(1187,28,l),
(1197,-307,l)
);
}
);
width = 1399;
},
{
anchors = (
{
name = _bottomright;
position = "{1100, 0}";
},
{
name = top;
position = "{613, 1426}";
}
);
layerId = "5BCA41AC-1A8A-4D79-8779-5300D22224AB";
shapes = (
{
closed = 1;
nodes = (
(1100,0,l),
(1100,476,l),
(1100,950,l),
(1100,1426,l),
(1036,1426,l),
(1036,950,l),
(1036,705,l),
(931,645,o),
(799,602,o),
(619,602,cs),
(470,602,o),
(365,629,o),
(293,689,cs),
(221,749,o),
(190,836,o),
(190,957,cs),
(190,1025,l),
(190,1426,l),
(126,1426,l),
(126,1045,l),
(126,957,ls),
(126,816,o),
(168,710,o),
(252,641,cs),
(336,572,o),
(458,538,o),
(619,538,cs),
(716,538,o),
(801,552,o),
(870,571,cs),
(939,590,o),
(995,615,o),
(1036,635,c),
(1036,476,l),
(1036,0,l)
);
},
{
closed = 1;
nodes = (
(1284,-310,l),
(1284,-127,l),
(1284,62,l),
(1064,62,l),
(1064,0,l),
(1250,0,l),
(1219,11,l),
(1224,-310,l)
);
}
);
width = 1349;
}
);
leftKerningGroup = uni0427;
rightKerningGroup = uni0414;
unicode = 1206;
},
{
glyphname = "Chedescenderabkhasian-cy";
layers = (
{
anchors = (
{
name = top;
position = "{1140, 1426}";
}
);
layerId = "6958D9FC-3AA0-42A5-A7C5-41542F6C8ADC";
shapes = (
{
closed = 1;
nodes = (
(1308,-32,o),
(1414,-19,o),
(1506,1,cs),
(1598,21,o),
(1669,47,o),
(1726,72,c),
(1694,490,l),
(1557,414,o),
(1417,364,o),
(1248,364,cs),
(1155,364,o),
(1071,384,o),
(1011,421,c),
(950,457,o),
(911,513,o),
(907,582,c),
(907,754,l),
(910,850,o),
(931,927,o),
(972,980,cs),
(1012,1033,o),
(1072,1062,o),
(1151,1062,cs),
(1239,1062,o),
(1300,1028,o),
(1337,980,cs),
(1376,932,o),
(1390,869,o),
(1389,812,c),
(1451,878,l),
(825,878,l),
(825,558,l),
(1851,558,l),
(1865,734,l),
(1865,926,o),
(1816,1102,o),
(1703,1238,cs),
(1590,1373,o),
(1411,1458,o),
(1151,1458,cs),
(903,1458,o),
(724,1387,o),
(599,1255,cs),
(474,1123,o),
(415,941,o),
(415,714,cs),
(415,478,o),
(483,295,o),
(612,166,cs),
(741,37,o),
(930,-32,o),
(1179,-32,cs)
);
},
{
closed = 1;
nodes = (
(620,558,l),
(620,875,l),
(504,875,ls),
(456,875,o),
(424,882,o),
(404,903,cs),
(384,924,o),
(376,961,o),
(376,1021,cs),
(376,1054,o),
(385,1104,o),
(398,1155,cs),
(410,1206,o),
(427,1257,o),
(444,1292,c),
(103,1309,l),
(75,1258,o),
(54,1194,o),
(39,1126,cs),
(23,1058,o),
(15,992,o),
(15,940,cs),
(15,672,o),
(151,558,o),
(440,558,cs)
);
},
{
closed = 1;
nodes = (
(1344,-300,l),
(1347,-175,o),
(1351,-51,o),
(1354,74,c),
(926,74,l),
(929,-51,o),
(933,-175,o),
(936,-300,c)
);
}
);
width = 1913;
},
{
anchors = (
{
name = top;
position = "{1092, 1426}";
}
);
layerId = "05F448A1-237D-4A5F-844D-77861616AAFF";
shapes = (
{
closed = 1;
nodes = (
(1242,-24,o),
(1340,-12,o),
(1429,8,cs),
(1518,28,o),
(1599,56,o),
(1664,88,c),
(1642,317,l),
(1497,237,o),
(1337,193,o),
(1169,193,cs),
(1004,193,o),
(879,234,o),
(787,314,cs),
(695,394,o),
(648,506,o),
(645,651,c),
(645,733,l),
(646,870,o),
(676,996,o),
(748,1088,cs),
(819,1180,o),
(927,1237,o),
(1082,1237,cs),
(1241,1237,o),
(1351,1178,o),
(1423,1090,cs),
(1495,1001,o),
(1524,881,o),
(1524,760,c),
(1561,812,l),
(591,812,l),
(591,610,l),
(1771,610,l),
(1778,724,l),
(1778,921,o),
(1727,1100,o),
(1611,1236,cs),
(1498,1371,o),
(1323,1454,o),
(1080,1454,cs),
(852,1454,o),
(683,1380,o),
(563,1247,cs),
(443,1114,o),
(384,934,o),
(384,715,cs),
(384,480,o),
(453,300,o),
(582,171,cs),
(711,42,o),
(897,-24,o),
(1138,-24,cs)
);
},
{
closed = 1;
nodes = (
(525,622,l),
(525,801,l),
(432,801,ls),
(352,801,o),
(304,817,o),
(276,849,c),
(247,880,o),
(239,927,o),
(239,987,cs),
(239,1023,o),
(246,1070,o),
(258,1118,cs),
(270,1165,o),
(286,1213,o),
(305,1250,c),
(114,1260,l),
(90,1216,o),
(71,1164,o),
(59,1108,cs),
(46,1052,o),
(39,998,o),
(39,950,cs),
(39,729,o),
(153,622,o),
(392,622,cs)
);
},
{
closed = 1;
nodes = (
(1191,-306,l),
(1194,-189,o),
(1195,-78,o),
(1198,39,c),
(966,39,l),
(969,-78,o),
(970,-189,o),
(973,-306,c)
);
}
);
width = 1865;
},
{
anchors = (
{
name = top;
position = "{1058, 1426}";
}
);
layerId = "7735F29D-4F76-449E-8F41-87F6EE236855";
shapes = (
{
closed = 1;
nodes = (
(1216,-21,o),
(1311,-10,o),
(1400,10,cs),
(1488,30,o),
(1572,59,o),
(1641,94,c),
(1622,251,l),
(1474,168,o),
(1306,128,o),
(1139,128,cs),
(947,128,o),
(804,178,o),
(702,273,cs),
(599,367,o),
(547,502,o),
(546,678,c),
(546,725,l),
(546,879,o),
(581,1022,o),
(663,1129,cs),
(745,1235,o),
(872,1303,o),
(1056,1303,cs),
(1242,1303,o),
(1371,1235,o),
(1455,1131,cs),
(1540,1026,o),
(1575,887,o),
(1575,740,c),
(1603,779,l),
(502,779,l),
(502,640,l),
(1741,640,l),
(1745,720,l),
(1745,920,o),
(1692,1100,o),
(1576,1235,c),
(1463,1369,o),
(1289,1452,o),
(1053,1452,cs),
(832,1452,o),
(666,1377,o),
(549,1244,cs),
(432,1111,o),
(372,932,o),
(372,715,cs),
(372,480,o),
(441,302,o),
(570,173,cs),
(699,45,o),
(884,-21,o),
(1122,-21,cs)
);
},
{
closed = 1;
nodes = (
(462,646,l),
(462,773,l),
(405,773,ls),
(312,773,o),
(258,792,o),
(227,828,c),
(195,863,o),
(187,914,o),
(187,974,cs),
(187,1010,o),
(193,1057,o),
(205,1104,cs),
(217,1149,o),
(232,1197,o),
(252,1234,c),
(119,1242,l),
(96,1200,o),
(78,1152,o),
(67,1101,cs),
(55,1050,o),
(48,1000,o),
(48,954,cs),
(48,750,o),
(154,646,o),
(374,646,cs)
);
},
{
closed = 1;
nodes = (
(1132,-308,l),
(1135,-195,o),
(1135,-87,o),
(1138,26,c),
(981,26,l),
(984,-87,o),
(984,-195,o),
(987,-308,c)
);
}
);
width = 1847;
},
{
anchors = (
{
name = top;
position = "{1031, 1426}";
}
);
layerId = "5BCA41AC-1A8A-4D79-8779-5300D22224AB";
shapes = (
{
closed = 1;
nodes = (
(1184,-18,o),
(1275,-7,o),
(1364,13,cs),
(1452,33,o),
(1539,63,o),
(1612,102,c),
(1598,171,l),
(1445,83,o),
(1268,48,o),
(1103,48,cs),
(878,48,o),
(713,109,o),
(597,222,cs),
(481,335,o),
(424,498,o),
(424,710,cs),
(424,716,ls),
(424,891,o),
(464,1054,o),
(560,1179,cs),
(655,1303,o),
(805,1384,o),
(1024,1384,cs),
(1243,1384,o),
(1395,1305,o),
(1495,1182,cs),
(1595,1057,o),
(1638,895,o),
(1638,716,c),
(1654,738,l),
(394,738,l),
(394,676,l),
(1704,676,l),
(1704,716,ls),
(1704,919,o),
(1649,1100,o),
(1533,1233,cs),
(1420,1366,o),
(1247,1450,o),
(1020,1450,cs),
(808,1450,o),
(645,1374,o),
(532,1241,cs),
(419,1108,o),
(358,929,o),
(358,716,cs),
(358,481,o),
(427,304,o),
(556,176,cs),
(685,48,o),
(868,-18,o),
(1103,-18,cs)
);
},
{
closed = 1;
nodes = (
(384,676,l),
(384,738,l),
(372,738,ls),
(264,738,o),
(202,762,o),
(167,802,cs),
(132,842,o),
(124,897,o),
(124,958,cs),
(124,995,o),
(129,1041,o),
(141,1086,cs),
(152,1130,o),
(167,1177,o),
(187,1214,c),
(124,1219,l),
(103,1180,o),
(87,1137,o),
(76,1093,cs),
(65,1048,o),
(60,1002,o),
(60,958,cs),
(60,775,o),
(156,676,o),
(351,676,cs)
);
},
{
closed = 1;
nodes = (
(1060,-311,l),
(1063,-203,o),
(1062,-99,o),
(1065,9,c),
(999,9,l),
(1002,-99,o),
(1001,-203,o),
(1004,-311,c)
);
}
);
width = 1824;
}
);
leftKerningGroup = uni04BC;
rightKerningGroup = uni041E;
unicode = 1214;
},
{
glyphname = "Chekhakassian-cy";
layers = (
{
layerId = "6958D9FC-3AA0-42A5-A7C5-41542F6C8ADC";
shapes = (
{
closed = 1;
nodes = (
(1075,-300,l),
(1101,76,l),
(1026,0,l),
(1342,0,l),
(1342,458,l),
(1342,948,l),
(1342,1426,l),
(850,1426,l),
(850,948,l),
(850,838,l),
(806,818,o),
(759,806,o),
(699,806,cs),
(643,806,o),
(606,822,o),
(585,849,cs),
(564,876,o),
(556,911,o),
(556,948,cs),
(556,984,l),
(556,1426,l),
(64,1426,l),
(64,976,l),
(64,872,ls),
(64,731,o),
(111,622,o),
(192,549,cs),
(273,476,o),
(390,437,o),
(527,437,cs),
(591,437,o),
(646,440,o),
(698,448,cs),
(749,456,o),
(798,469,o),
(850,488,c),
(850,425,l),
(850,20,l),
(1201,324,l),
(667,324,l),
(667,5,l),
(667,-300,l)
);
}
);
width = 1434;
},
{
layerId = "05F448A1-237D-4A5F-844D-77861616AAFF";
shapes = (
{
closed = 1;
nodes = (
(987,-305,l),
(1001,41,l),
(950,0,l),
(1211,0,l),
(1211,468,l),
(1211,950,l),
(1211,1427,l),
(951,1427,l),
(951,950,l),
(951,766,l),
(874,725,o),
(780,696,o),
(656,696,cs),
(548,696,o),
(475,719,o),
(427,763,cs),
(379,806,o),
(358,869,o),
(358,953,cs),
(358,1007,l),
(358,1427,l),
(98,1427,l),
(98,1014,l),
(98,919,ls),
(98,778,o),
(141,672,o),
(225,600,cs),
(309,528,o),
(428,492,o),
(577,492,cs),
(661,492,o),
(730,501,o),
(791,516,cs),
(852,531,o),
(904,548,o),
(951,568,c),
(951,453,l),
(951,15,l),
(1131,182,l),
(767,182,l),
(767,-67,l),
(767,-305,l)
);
}
);
width = 1372;
},
{
layerId = "7735F29D-4F76-449E-8F41-87F6EE236855";
shapes = (
{
closed = 1;
nodes = (
(953,-307,l),
(963,28,l),
(921,0,l),
(1161,0,l),
(1161,472,l),
(1161,950,l),
(1161,1427,l),
(989,1427,l),
(989,950,l),
(989,739,l),
(900,689,o),
(789,654,o),
(639,654,cs),
(513,654,o),
(426,679,o),
(367,730,cs),
(308,780,o),
(282,854,o),
(282,955,cs),
(282,1015,l),
(282,1427,l),
(111,1427,l),
(111,1028,l),
(111,936,ls),
(111,795,o),
(153,689,o),
(237,618,cs),
(321,548,o),
(442,513,o),
(596,513,cs),
(686,513,o),
(762,524,o),
(827,541,cs),
(891,558,o),
(945,578,o),
(989,598,c),
(989,463,l),
(989,13,l),
(1104,128,l),
(805,128,l),
(805,-94,l),
(805,-307,l)
);
}
);
width = 1349;
},
{
layerId = "5BCA41AC-1A8A-4D79-8779-5300D22224AB";
shapes = (
{
closed = 1;
nodes = (
(912,-310,l),
(917,11,l),
(886,0,l),
(1100,0,l),
(1100,476,l),
(1100,950,l),
(1100,1426,l),
(1036,1426,l),
(1036,950,l),
(1036,705,l),
(931,645,o),
(799,602,o),
(619,602,cs),
(470,602,o),
(365,629,o),
(293,689,cs),
(221,749,o),
(190,836,o),
(190,957,cs),
(190,1025,l),
(190,1426,l),
(126,1426,l),
(126,1045,l),
(126,957,ls),
(126,816,o),
(168,710,o),
(252,641,cs),
(336,572,o),
(458,538,o),
(619,538,cs),
(716,538,o),
(801,552,o),
(870,571,cs),
(939,590,o),
(995,615,o),
(1036,635,c),
(1036,476,l),
(1036,10,l),
(1072,62,l),
(852,62,l),
(852,-127,l),
(852,-310,l)
);
}
);
width = 1320;
}
);
leftKerningGroup = uni0427;
rightKerningGroup = uni0406;
unicode = 1227;
},
{
glyphname = "Cheverticalstroke-cy";
layers = (
{
layerId = "6958D9FC-3AA0-42A5-A7C5-41542F6C8ADC";
shapes = (
{
closed = 1;
nodes = (
(1444,0,l),
(1444,458,l),
(1444,948,l),
(1444,1426,l),
(952,1426,l),
(952,948,l),
(952,808,l),
(925,800,o),
(881,793,o),
(833,786,cs),
(785,779,o),
(733,776,o),
(689,776,cs),
(637,776,o),
(604,788,o),
(584,809,cs),
(564,829,o),
(556,861,o),
(556,898,cs),
(556,984,l),
(556,1426,l),
(64,1426,l),
(64,976,l),
(64,872,ls),
(64,727,o),
(111,617,o),
(192,545,cs),
(273,472,o),
(390,435,o),
(527,435,cs),
(591,435,o),
(656,438,o),
(725,446,cs),
(794,454,o),
(868,467,o),
(952,486,c),
(952,425,l),
(952,0,l)
);
},
{
closed = 1;
nodes = (
(866,195,l),
(866,555,l),
(866,845,l),
(866,1205,l),
(642,1205,l),
(642,845,l),
(642,555,l),
(642,195,l)
);
}
);
width = 1536;
},
{
layerId = "05F448A1-237D-4A5F-844D-77861616AAFF";
shapes = (
{
closed = 1;
nodes = (
(1269,0,l),
(1269,468,l),
(1269,949,l),
(1269,1426,l),
(1009,1426,l),
(1009,949,l),
(1009,758,l),
(968,738,o),
(915,720,o),
(851,708,cs),
(787,695,o),
(719,687,o),
(651,687,cs),
(547,687,o),
(473,708,o),
(426,749,cs),
(379,790,o),
(358,851,o),
(358,935,cs),
(358,1006,l),
(358,1426,l),
(98,1426,l),
(98,1013,l),
(98,914,ls),
(98,769,o),
(141,665,o),
(225,593,cs),
(309,521,o),
(428,486,o),
(577,486,cs),
(661,486,o),
(737,495,o),
(810,510,cs),
(882,525,o),
(949,542,o),
(1009,562,c),
(1009,453,l),
(1009,0,l)
);
},
{
closed = 1;
nodes = (
(780,206,l),
(780,544,l),
(780,812,l),
(780,1151,l),
(610,1151,l),
(610,812,l),
(610,544,l),
(610,206,l)
);
}
);
width = 1431;
},
{
layerId = "7735F29D-4F76-449E-8F41-87F6EE236855";
shapes = (
{
closed = 1;
nodes = (
(1202,0,l),
(1202,472,l),
(1202,949,l),
(1202,1426,l),
(1030,1426,l),
(1030,949,l),
(1030,734,l),
(984,710,o),
(927,689,o),
(857,674,cs),
(788,658,o),
(714,649,o),
(637,649,cs),
(512,649,o),
(424,672,o),
(366,722,cs),
(308,772,o),
(282,844,o),
(282,945,cs),
(282,1015,l),
(282,1426,l),
(111,1426,l),
(111,1027,l),
(111,933,ls),
(111,790,o),
(153,685,o),
(237,615,cs),
(321,544,o),
(442,509,o),
(596,509,cs),
(686,509,o),
(767,521,o),
(842,537,cs),
(915,554,o),
(979,575,o),
(1030,595,c),
(1030,463,l),
(1030,0,l)
);
},
{
closed = 1;
nodes = (
(730,210,l),
(730,540,l),
(730,800,l),
(730,1130,l),
(610,1130,l),
(610,800,l),
(610,540,l),
(610,210,l)
);
}
);
width = 1390;
},
{
layerId = "5BCA41AC-1A8A-4D79-8779-5300D22224AB";
shapes = (
{
closed = 1;
nodes = (
(1120,0,l),
(1120,476,l),
(1120,950,l),
(1120,1426,l),
(1056,1426,l),
(1056,950,l),
(1056,705,l),
(1004,676,o),
(941,651,o),
(865,632,cs),
(789,613,o),
(707,602,o),
(619,602,cs),
(470,602,o),
(365,629,o),
(293,689,cs),
(221,749,o),
(190,836,o),
(190,957,cs),
(190,1025,l),
(190,1426,l),
(126,1426,l),
(126,1045,l),
(126,957,ls),
(126,816,o),
(168,710,o),
(252,641,cs),
(336,572,o),
(458,538,o),
(619,538,cs),
(716,538,o),
(804,552,o),
(880,571,cs),
(956,590,o),
(1015,615,o),
(1056,635,c),
(1056,476,l),
(1056,0,l)
);
},
{
closed = 1;
nodes = (
(669,215,l),
(669,535,l),
(669,785,l),
(669,1105,l),
(609,1105,l),
(609,785,l),
(609,535,l),
(609,215,l)
);
}
);
width = 1340;
}
);
leftKerningGroup = uni0427;
rightKerningGroup = uni0406;
unicode = 1208;
},
{
glyphname = D;
layers = (
{
anchors = (
{
name = bottom;
position = "{710, 0}";
},
{
name = center;
position = "{730, 714}";
},
{
name = top;
position = "{710, 1426}";
}
);
layerId = "6958D9FC-3AA0-42A5-A7C5-41542F6C8ADC";
shapes = (
{
closed = 1;
nodes = (
(92,0,l),
(638,0,ls),
(926,0,o),
(1120,78,o),
(1241,207,cs),
(1362,336,o),
(1412,512,o),
(1412,716,cs),
(1412,948,o),
(1350,1122,o),
(1233,1243,cs),
(1116,1364,o),
(949,1426,o),
(732,1426,cs),
(92,1426,l),
(92,948,l),
(92,458,l)
);
},
{
closed = 1;
nodes = (
(584,386,l),
(584,586,l),
(584,824,l),
(584,1040,l),
(646,1040,ls),
(738,1040,o),
(800,1008,o),
(841,952,cs),
(881,896,o),
(900,818,o),
(900,722,cs),
(900,625,o),
(884,541,o),
(843,481,cs),
(800,421,o),
(735,386,o),
(636,386,cs)
);
}
);
width = 1460;
},
{
anchors = (
{
name = bottom;
position = "{706, 0}";
},
{
name = center;
position = "{734, 714}";
},
{
name = top;
position = "{706, 1426}";
}
);
layerId = "05F448A1-237D-4A5F-844D-77861616AAFF";
shapes = (
{
closed = 1;
nodes = (
(161,0,l),
(634,0,ls),
(909,0,o),
(1096,79,o),
(1215,208,cs),
(1336,337,o),
(1383,514,o),
(1383,718,cs),
(1383,945,o),
(1321,1120,o),
(1204,1241,cs),
(1087,1362,o),
(918,1426,o),
(697,1426,cs),
(161,1426,l),
(161,949,l),
(161,468,l)
);
},
{
closed = 1;
nodes = (
(421,210,l),
(421,526,l),
(421,892,l),
(421,1216,l),
(652,1216,ls),
(813,1216,o),
(927,1169,o),
(1003,1081,cs),
(1079,993,o),
(1113,871,o),
(1113,722,cs),
(1113,573,o),
(1083,449,o),
(1007,357,cs),
(931,265,o),
(811,210,o),
(634,210,cs)
);
}
);
width = 1470;
},
{
anchors = (
{
name = bottom;
position = "{703, 0}";
},
{
name = center;
position = "{738, 714}";
},
{
name = top;
position = "{703, 1426}";
}
);
layerId = "7735F29D-4F76-449E-8F41-87F6EE236855";
shapes = (
{
closed = 1;
nodes = (
(188,0,l),
(632,0,ls),
(902,0,o),
(1087,80,o),
(1205,209,cs),
(1324,339,o),
(1372,515,o),
(1372,719,cs),
(1372,944,o),
(1310,1119,o),
(1193,1240,cs),
(1076,1361,o),
(907,1426,o),
(684,1426,cs),
(188,1426,l),
(188,949,l),
(188,472,l)
);
},
{
closed = 1;
nodes = (
(359,143,l),
(359,504,l),
(359,918,l),
(359,1283,l),
(655,1283,ls),
(843,1283,o),
(976,1229,o),
(1064,1130,cs),
(1153,1030,o),
(1194,893,o),
(1194,722,cs),
(1194,554,o),
(1158,414,o),
(1069,310,cs),
(981,207,o),
(840,143,o),
(633,143,cs)
);
}
);
width = 1474;
},
{
anchors = (
{
name = bottom;
position = "{700, 0}";
},
{
name = center;
position = "{740, 714}";
},
{
name = top;
position = "{700, 1426}";
}
);
layerId = "5BCA41AC-1A8A-4D79-8779-5300D22224AB";
shapes = (
{
closed = 1;
nodes = (
(220,0,l),
(630,0,ls),
(894,0,o),
(1076,81,o),
(1192,210,cs),
(1309,342,o),
(1358,516,o),
(1358,720,cs),
(1358,943,o),
(1297,1117,o),
(1180,1238,cs),
(1063,1359,o),
(893,1426,o),
(668,1426,cs),
(220,1426,l),
(220,950,l),
(220,476,l)
);
},
{
closed = 1;
nodes = (
(284,62,l),
(284,476,l),
(284,950,l),
(284,1364,l),
(658,1364,ls),
(879,1364,o),
(1035,1302,o),
(1139,1189,cs),
(1243,1076,o),
(1292,919,o),
(1292,722,cs),
(1292,531,o),
(1249,372,o),
(1145,252,cs),
(1041,135,o),
(876,62,o),
(632,62,cs)
);
}
);
width = 1478;
}
);
leftKerningGroup = B;
rightKerningGroup = D;
unicode = 68;
},
{
glyphname = "De-cy";
layers = (
{
layerId = "6958D9FC-3AA0-42A5-A7C5-41542F6C8ADC";
shapes = (
{
closed = 1;
nodes = (
(1458,80,l),
(1458,538,l),
(1458,948,l),
(1458,1426,l),
(321,1426,l),
(314,1277,o),
(305,1123,o),
(297,954,cs),
(289,779,o),
(264,655,o),
(233,563,cs),
(201,471,o),
(163,421,o),
(126,404,c),
(591,361,l),
(651,429,o),
(683,491,o),
(703,571,cs),
(723,651,o),
(731,739,o),
(736,860,cs),
(744,1017,o),
(752,1167,o),
(760,1324,c),
(522,1022,l),
(1092,1022,l),
(966,1346,l),
(966,868,l),
(966,538,l),
(966,80,l)
);
},
{
closed = 1;
nodes = (
(426,-300,l),
(452,76,l),
(377,0,l),
(1282,0,l),
(1207,76,l),
(1233,-300,l),
(1641,-300,l),
(1641,44,l),
(1641,404,l),
(1065,404,l),
(594,404,l),
(18,404,l),
(18,44,l),
(18,-300,l)
);
}
);
width = 1663;
},
{
layerId = "05F448A1-237D-4A5F-844D-77861616AAFF";
shapes = (
{
closed = 1;
nodes = (
(1363,41,l),
(1363,509,l),
(1363,949,l),
(1363,1426,l),
(385,1426,l),
(374,1258,o),
(364,1086,o),
(352,897,cs),
(340,702,o),
(316,563,o),
(280,454,cs),
(244,345,o),
(200,271,o),
(144,215,c),
(393,189,l),
(457,265,o),
(499,348,o),
(530,452,cs),
(561,556,o),
(577,683,o),
(586,844,cs),
(597,1024,o),
(608,1192,o),
(619,1371,c),
(490,1207,l),
(1186,1207,l),
(1103,1386,l),
(1103,909,l),
(1103,509,l),
(1103,41,l)
);
},
{
closed = 1;
nodes = (
(244,-305,l),
(259,41,l),
(208,0,l),
(1364,0,l),
(1312,41,l),
(1327,-305,l),
(1546,-305,l),
(1546,-49,l),
(1546,219,l),
(1019,219,l),
(553,219,l),
(25,219,l),
(25,-49,l),
(25,-305,l)
);
}
);
width = 1591;
},
{
layerId = "7735F29D-4F76-449E-8F41-87F6EE236855";
shapes = (
{
closed = 1;
nodes = (
(1327,26,l),
(1327,498,l),
(1327,949,l),
(1327,1426,l),
(409,1426,l),
(397,1252,o),
(386,1072,o),
(373,876,cs),
(359,674,o),
(335,529,o),
(298,413,cs),
(260,296,o),
(212,213,o),
(150,143,c),
(317,124,l),
(383,203,o),
(428,292,o),
(463,407,cs),
(498,522,o),
(518,659,o),
(529,838,cs),
(541,1026,o),
(553,1202,o),
(565,1389,c),
(477,1278,l),
(1222,1278,l),
(1155,1401,l),
(1155,925,l),
(1155,498,l),
(1155,26,l)
);
},
{
closed = 1;
nodes = (
(175,-307,l),
(185,28,l),
(143,0,l),
(1395,0,l),
(1352,28,l),
(1363,-307,l),
(1510,-307,l),
(1510,-84,l),
(1510,148,l),
(1001,148,l),
(537,148,l),
(27,148,l),
(27,-84,l),
(27,-307,l)
);
}
);
width = 1564;
},
{
layerId = "5BCA41AC-1A8A-4D79-8779-5300D22224AB";
shapes = (
{
closed = 1;
nodes = (
(1282,8,l),
(1282,484,l),
(1282,950,l),
(1282,1426,l),
(438,1426,l),
(426,1245,o),
(413,1055,o),
(398,850,cs),
(383,639,o),
(358,487,o),
(319,362,cs),
(279,237,o),
(226,143,o),
(158,55,c),
(224,44,l),
(292,128,o),
(342,224,o),
(381,352,cs),
(420,480,o),
(446,630,o),
(459,831,cs),
(472,1028,o),
(486,1215,o),
(499,1410,c),
(462,1364,l),
(1266,1364,l),
(1218,1420,l),
(1218,944,l),
(1218,484,l),
(1218,8,l)
);
},
{
closed = 1;
nodes = (
(90,-310,l),
(95,11,l),
(64,0,l),
(1432,0,l),
(1401,11,l),
(1406,-310,l),
(1466,-310,l),
(1466,-127,l),
(1466,62,l),
(979,62,l),
(517,62,l),
(30,62,l),
(30,-127,l),
(30,-310,l)
);
}
);
width = 1531;
}
);
leftKerningGroup = uni0409_2;
rightKerningGroup = uni0414;
unicode = 1044;
},
{
glyphname = "De-cy.loclBGR";
layers = (
{
layerId = "6958D9FC-3AA0-42A5-A7C5-41542F6C8ADC";
shapes = (
{
closed = 1;
nodes = (
(595,46,l),
(611,123,o),
(628,204,o),
(645,285,cs),
(661,366,o),
(677,445,o),
(693,521,cs),
(790,993,l),
(822,993,l),
(916,524,ls),
(947,371,o),
(980,207,o),
(1012,46,c),
(1525,46,l),
(1485,187,o),
(1442,339,o),
(1402,480,cs),
(1262,974,ls),
(1237,1062,o),
(1215,1141,o),
(1195,1214,cs),
(1174,1286,o),
(1154,1354,o),
(1134,1426,c),
(488,1426,l),
(468,1354,o),
(448,1285,o),
(428,1212,cs),
(407,1139,o),
(384,1062,o),
(360,974,cs),
(222,487,ls),
(183,350,o),
(138,191,o),
(97,46,c)
);
},
{
closed = 1;
nodes = (
(426,-300,l),
(452,76,l),
(377,0,l),
(1245,0,l),
(1170,76,l),
(1196,-300,l),
(1604,-300,l),
(1604,44,l),
(1604,404,l),
(1028,404,l),
(594,404,l),
(18,404,l),
(18,44,l),
(18,-300,l)
);
}
);
width = 1624;
},
{
layerId = "05F448A1-237D-4A5F-844D-77861616AAFF";
shapes = (
{
closed = 1;
nodes = (
(412,27,l),
(441,123,o),
(473,224,o),
(505,328,cs),
(537,432,o),
(568,531,o),
(597,627,cs),
(769,1188,l),
(790,1188,l),
(958,626,ls),
(1015,433,o),
(1079,230,o),
(1139,27,c),
(1411,27,l),
(1364,176,o),
(1312,332,o),
(1263,481,cs),
(1102,973,ls),
(1074,1061,o),
(1048,1139,o),
(1024,1212,cs),
(1000,1285,o),
(978,1354,o),
(955,1426,c),
(609,1426,l),
(585,1354,o),
(562,1284,o),
(538,1211,cs),
(514,1138,o),
(488,1060,o),
(460,972,cs),
(299,486,ls),
(251,341,o),
(197,176,o),
(148,27,c)
);
},
{
closed = 1;
nodes = (
(254,-305,l),
(269,41,l),
(218,0,l),
(1341,0,l),
(1290,41,l),
(1305,-305,l),
(1524,-305,l),
(1524,-49,l),
(1524,219,l),
(996,219,l),
(563,219,l),
(35,219,l),
(35,-49,l),
(35,-305,l)
);
}
);
width = 1560;
},
{
layerId = "7735F29D-4F76-449E-8F41-87F6EE236855";
shapes = (
{
closed = 1;
nodes = (
(343,20,l),
(377,123,o),
(415,233,o),
(452,344,cs),
(490,456,o),
(527,563,o),
(561,667,c),
(761,1262,l),
(778,1262,l),
(974,664,l),
(1042,456,o),
(1116,237,o),
(1187,20,c),
(1368,20,l),
(1317,169,o),
(1262,328,o),
(1210,481,cs),
(1041,973,ls),
(1011,1061,o),
(985,1139,o),
(960,1212,cs),
(934,1285,o),
(911,1354,o),
(887,1426,c),
(655,1426,l),
(630,1354,o),
(606,1284,o),
(580,1211,cs),
(555,1138,o),
(528,1060,o),
(498,972,cs),
(329,485,ls),
(277,337,o),
(220,171,o),
(167,20,c)
);
},
{
closed = 1;
nodes = (
(189,-307,l),
(200,28,l),
(158,0,l),
(1377,0,l),
(1335,28,l),
(1346,-307,l),
(1493,-307,l),
(1493,-84,l),
(1493,148,l),
(984,148,l),
(551,148,l),
(42,148,l),
(42,-84,l),
(42,-307,l)
);
}
);
width = 1536;
},
{
layerId = "5BCA41AC-1A8A-4D79-8779-5300D22224AB";
shapes = (
{
closed = 1;
nodes = (
(258,11,l),
(298,124,o),
(343,243,o),
(388,364,cs),
(432,485,o),
(477,603,o),
(517,716,cs),
(751,1353,l),
(763,1353,l),
(994,711,ls),
(1074,484,o),
(1162,246,o),
(1246,11,c),
(1315,11,l),
(1259,160,o),
(1201,324,o),
(1145,481,cs),
(967,973,ls),
(935,1061,o),
(908,1139,o),
(881,1212,cs),
(854,1285,o),
(830,1354,o),
(803,1426,c),
(711,1426,l),
(684,1354,o),
(659,1284,o),
(632,1211,cs),
(605,1138,o),
(576,1059,o),
(544,971,cs),
(365,484,ls),
(309,331,o),
(247,164,o),
(191,11,c)
);
},
{
closed = 1;
nodes = (
(110,-310,l),
(115,11,l),
(84,0,l),
(1422,0,l),
(1391,11,l),
(1396,-310,l),
(1456,-310,l),
(1456,-127,l),
(1456,62,l),
(969,62,l),
(537,62,l),
(50,62,l),
(50,-127,l),
(50,-310,l)
);
}
);
width = 1506;
}
);
},
{
glyphname = Delta;
layers = (
{
layerId = "6958D9FC-3AA0-42A5-A7C5-41542F6C8ADC";
shapes = (
{
closed = 1;
nodes = (
(1518,0,l),
(1471,157,o),
(1422,324,o),
(1375,481,cs),
(1228,975,ls),
(1203,1063,o),
(1181,1140,o),
(1158,1213,cs),
(1135,1286,o),
(1115,1354,o),
(1094,1426,c),
(448,1426,l),
(427,1354,o),
(408,1285,o),
(385,1212,cs),
(362,1139,o),
(339,1063,o),
(314,975,cs),
(169,488,ls),
(146,412,o),
(122,329,o),
(97,245,cs),
(72,161,o),
(47,77,o),
(24,0,c)
);
},
{
closed = 1;
nodes = (
(544,80,l),
(561,157,o),
(579,238,o),
(598,323,cs),
(617,408,o),
(635,488,o),
(652,565,cs),
(750,1005,l),
(782,1005,l),
(878,565,ls),
(911,412,o),
(949,241,o),
(984,80,c),
(1034,404,l),
(504,404,l)
);
}
);
width = 1538;
},
{
layerId = "05F448A1-237D-4A5F-844D-77861616AAFF";
shapes = (
{
closed = 1;
nodes = (
(1413,0,l),
(1357,157,o),
(1298,325,o),
(1242,482,cs),
(1066,974,ls),
(1035,1062,o),
(1009,1140,o),
(982,1213,cs),
(955,1285,o),
(931,1354,o),
(906,1426,c),
(561,1426,l),
(536,1354,o),
(511,1284,o),
(484,1211,cs),
(457,1138,o),
(430,1062,o),
(399,974,cs),
(224,487,ls),
(196,410,o),
(166,328,o),
(137,244,cs),
(108,160,o),
(78,77,o),
(50,0,c)
);
},
{
closed = 1;
nodes = (
(327,41,l),
(355,126,o),
(384,213,o),
(413,302,cs),
(442,391,o),
(471,476,o),
(499,560,cs),
(721,1194,l),
(742,1194,l),
(963,555,l),
(1014,394,o),
(1073,214,o),
(1129,41,c),
(1164,219,l),
(298,219,l)
);
}
);
width = 1461;
},
{
layerId = "7735F29D-4F76-449E-8F41-87F6EE236855";
shapes = (
{
closed = 1;
nodes = (
(1373,0,l),
(1313,155,o),
(1251,323,o),
(1191,482,cs),
(1005,974,ls),
(972,1062,o),
(944,1140,o),
(915,1213,cs),
(887,1285,o),
(861,1354,o),
(834,1426,c),
(604,1426,l),
(577,1354,o),
(551,1284,o),
(522,1211,cs),
(493,1138,o),
(465,1062,o),
(431,974,cs),
(245,486,ls),
(215,409,o),
(184,327,o),
(153,243,cs),
(121,159,o),
(90,77,o),
(60,0,c)
);
},
{
closed = 1;
nodes = (
(245,26,l),
(277,114,o),
(310,203,o),
(343,294,cs),
(377,385,o),
(409,472,o),
(441,558,c),
(710,1266,l),
(727,1266,l),
(995,551,l),
(1054,387,o),
(1121,203,o),
(1184,26,c),
(1214,148,l),
(220,148,l)
);
}
);
width = 1432;
},
{
layerId = "5BCA41AC-1A8A-4D79-8779-5300D22224AB";
shapes = (
{
closed = 1;
nodes = (
(1324,0,l),
(1260,153,o),
(1193,321,o),
(1129,482,cs),
(930,974,ls),
(894,1062,o),
(865,1139,o),
(834,1212,cs),
(803,1285,o),
(776,1354,o),
(747,1426,c),
(657,1426,l),
(628,1354,o),
(600,1284,o),
(569,1211,cs),
(538,1138,o),
(507,1061,o),
(471,973,cs),
(271,485,ls),
(239,408,o),
(207,326,o),
(172,242,cs),
(137,158,o),
(104,77,o),
(72,0,c)
);
},
{
closed = 1;
nodes = (
(144,8,l),
(181,100,o),
(219,191,o),
(258,284,cs),
(297,377,o),
(333,468,o),
(369,556,cs),
(696,1354,l),
(708,1354,l),
(1034,547,ls),
(1102,378,o),
(1180,189,o),
(1252,8,c),
(1274,62,l),
(124,62,l)
);
}
);
width = 1396;
}
);
leftKerningGroup = Alpha2;
rightKerningGroup = Alpha;
unicode = 916;
},
{
glyphname = "Dje-cy";
layers = (
{
layerId = "6958D9FC-3AA0-42A5-A7C5-41542F6C8ADC";
shapes = (
{
closed = 1;
nodes = (
(1433,-300,l),
(1509,-228,o),
(1569,-128,o),
(1613,-11,cs),
(1656,106,o),
(1681,232,o),
(1681,357,cs),
(1681,536,o),
(1631,661,o),
(1543,749,cs),
(1455,837,o),
(1335,877,o),
(1190,877,cs),
(1130,877,o),
(1079,872,o),
(1028,861,cs),
(976,850,o),
(927,836,o),
(875,816,c),
(875,868,l),
(875,1346,l),
(693,1022,l),
(933,1022,l),
(1341,1022,l),
(1341,1426,l),
(40,1426,l),
(40,1002,l),
(378,1002,l),
(567,1002,l),
(385,1346,l),
(385,868,l),
(385,458,l),
(385,0,l),
(875,0,l),
(875,446,l),
(875,466,l),
(919,486,o),
(978,498,o),
(1029,498,cs),
(1076,498,o),
(1112,484,o),
(1137,449,cs),
(1161,414,o),
(1174,361,o),
(1174,288,cs),
(1174,203,o),
(1159,112,o),
(1124,15,cs),
(1089,-82,o),
(1035,-187,o),
(958,-300,c)
);
}
);
width = 1701;
},
{
layerId = "05F448A1-237D-4A5F-844D-77861616AAFF";
shapes = (
{
closed = 1;
nodes = (
(1369,-305,l),
(1433,-228,o),
(1494,-127,o),
(1541,-10,cs),
(1588,107,o),
(1617,235,o),
(1617,368,cs),
(1617,543,o),
(1565,667,o),
(1477,755,cs),
(1389,843,o),
(1265,883,o),
(1120,883,cs),
(1040,883,o),
(971,873,o),
(910,858,cs),
(849,843,o),
(797,823,o),
(750,803,c),
(750,909,l),
(750,1386,l),
(649,1207,l),
(892,1207,l),
(1302,1207,l),
(1302,1426,l),
(56,1426,l),
(56,1198,l),
(434,1198,l),
(591,1198,l),
(491,1386,l),
(491,909,l),
(491,468,l),
(491,0,l),
(750,0,l),
(750,463,l),
(750,605,l),
(827,646,o),
(926,675,o),
(1047,675,cs),
(1143,675,o),
(1218,647,o),
(1270,591,cs),
(1321,535,o),
(1349,452,o),
(1349,339,cs),
(1349,226,o),
(1326,121,o),
(1285,13,cs),
(1244,-95,o),
(1183,-200,o),
(1110,-305,c)
);
}
);
width = 1672;
},
{
layerId = "7735F29D-4F76-449E-8F41-87F6EE236855";
shapes = (
{
closed = 1;
nodes = (
(1345,-307,l),
(1405,-228,o),
(1466,-127,o),
(1514,-10,cs),
(1561,107,o),
(1593,235,o),
(1593,372,cs),
(1593,545,o),
(1541,669,o),
(1452,757,cs),
(1364,845,o),
(1241,885,o),
(1094,885,cs),
(1006,885,o),
(930,873,o),
(865,857,cs),
(801,840,o),
(747,818,o),
(703,798,c),
(703,925,l),
(703,1401,l),
(633,1278,l),
(876,1278,l),
(1287,1278,l),
(1287,1426,l),
(62,1426,l),
(62,1273,l),
(456,1273,l),
(600,1273,l),
(532,1401,l),
(532,925,l),
(532,472,l),
(532,0,l),
(703,0,l),
(703,469,l),
(703,657,l),
(792,707,o),
(906,742,o),
(1054,742,cs),
(1168,742,o),
(1258,710,o),
(1320,645,cs),
(1383,580,o),
(1416,486,o),
(1416,358,cs),
(1416,235,o),
(1389,124,o),
(1346,12,cs),
(1302,-100,o),
(1240,-205,o),
(1168,-307,c)
);
}
);
width = 1661;
},
{
layerId = "5BCA41AC-1A8A-4D79-8779-5300D22224AB";
shapes = (
{
closed = 1;
nodes = (
(1315,-310,l),
(1371,-229,o),
(1432,-128,o),
(1480,-11,cs),
(1528,106,o),
(1563,235,o),
(1563,376,cs),
(1563,547,o),
(1511,671,o),
(1422,759,cs),
(1333,847,o),
(1211,888,o),
(1062,888,cs),
(965,888,o),
(880,874,o),
(811,855,cs),
(742,836,o),
(686,811,o),
(645,791,c),
(645,944,l),
(645,1420,l),
(613,1364,l),
(857,1364,l),
(1269,1364,l),
(1269,1426,l),
(70,1426,l),
(70,1364,l),
(482,1364,l),
(611,1364,l),
(581,1420,l),
(581,944,l),
(581,476,l),
(581,0,l),
(645,0,l),
(645,476,l),
(645,721,l),
(750,781,o),
(882,824,o),
(1062,824,cs),
(1199,824,o),
(1306,788,o),
(1382,712,cs),
(1458,636,o),
(1497,527,o),
(1497,382,cs),
(1497,245,o),
(1467,127,o),
(1420,10,cs),
(1373,-107,o),
(1310,-210,o),
(1238,-310,c)
);
}
);
width = 1648;
}
);
leftKerningGroup = uni0402_2;
rightKerningGroup = uni0402;
unicode = 1026;
},
{
glyphname = "Dzeabkhasian-cy";
layers = (
{
layerId = "6958D9FC-3AA0-42A5-A7C5-41542F6C8ADC";
shapes = (
{
closed = 1;
nodes = (
(796,-32,o),
(947,17,o),
(1042,97,cs),
(1138,177,o),
(1174,288,o),
(1174,409,cs),
(1174,538,o),
(1137,638,o),
(1065,710,cs),
(992,782,o),
(886,822,o),
(745,835,c),
(779,807,l),
(892,921,ls),
(968,997,o),
(1035,1063,o),
(1104,1135,c),
(1104,1426,l),
(92,1426,l),
(92,1040,l),
(514,1040,l),
(584,1040,l),
(608,1134,l),
(433,945,ls),
(394,904,o),
(357,862,o),
(322,825,c),
(322,576,l),
(480,576,ls),
(544,576,o),
(588,568,o),
(620,549,c),
(651,529,o),
(666,501,o),
(666,461,cs),
(666,428,o),
(655,399,o),
(628,379,cs),
(601,359,o),
(562,348,o),
(502,348,cs),
(449,348,o),
(384,359,o),
(312,379,cs),
(240,399,o),
(166,429,o),
(97,466,c),
(72,60,l),
(124,33,o),
(205,10,o),
(297,-6,cs),
(389,-22,o),
(484,-32,o),
(568,-32,cs)
);
}
);
width = 1218;
},
{
layerId = "05F448A1-237D-4A5F-844D-77861616AAFF";
shapes = (
{
closed = 1;
nodes = (
(763,-24,o),
(896,26,o),
(977,103,c),
(1061,180,o),
(1091,284,o),
(1091,397,cs),
(1091,538,o),
(1042,641,o),
(950,713,cs),
(858,785,o),
(734,823,o),
(581,828,c),
(598,776,l),
(753,946,ls),
(849,1051,o),
(939,1148,o),
(1032,1252,c),
(1032,1426,l),
(103,1426,l),
(103,1208,l),
(629,1208,l),
(789,1208,l),
(774,1290,l),
(504,987,ls),
(451,927,o),
(396,866,o),
(345,809,c),
(345,656,l),
(461,656,ls),
(574,656,o),
(661,640,o),
(725,603,cs),
(789,566,o),
(823,506,o),
(823,418,cs),
(823,354,o),
(805,299,o),
(760,258,cs),
(715,217,o),
(642,192,o),
(533,192,cs),
(465,192,o),
(394,203,o),
(322,223,cs),
(250,243,o),
(180,273,o),
(112,309,c),
(94,80,l),
(142,53,o),
(215,28,o),
(299,9,cs),
(383,-11,o),
(477,-24,o),
(566,-24,cs)
);
}
);
width = 1164;
},
{
layerId = "7735F29D-4F76-449E-8F41-87F6EE236855";
shapes = (
{
closed = 1;
nodes = (
(751,-21,o),
(875,29,o),
(952,105,cs),
(1031,182,o),
(1060,283,o),
(1060,392,cs),
(1060,537,o),
(1004,638,o),
(906,706,cs),
(809,775,o),
(676,806,o),
(519,809,c),
(529,772,l),
(700,964,ls),
(804,1080,o),
(903,1189,o),
(1005,1305,c),
(1005,1426,l),
(107,1426,l),
(107,1278,l),
(673,1278,l),
(867,1278,l),
(837,1340,l),
(531,993,ls),
(473,927,o),
(411,858,o),
(354,793,c),
(354,687,l),
(454,687,ls),
(585,687,o),
(690,668,o),
(765,624,cs),
(840,580,o),
(882,508,o),
(882,402,cs),
(882,325,o),
(862,257,o),
(810,207,cs),
(758,158,o),
(674,127,o),
(545,127,cs),
(471,127,o),
(398,138,o),
(326,158,cs),
(254,178,o),
(185,208,o),
(117,244,c),
(102,87,l),
(148,61,o),
(218,35,o),
(300,14,cs),
(382,-7,o),
(473,-21,o),
(565,-21,cs)
);
}
);
width = 1144;
},
{
layerId = "5BCA41AC-1A8A-4D79-8779-5300D22224AB";
shapes = (
{
closed = 1;
nodes = (
(736,-18,o),
(850,32,o),
(922,108,cs),
(994,184,o),
(1021,282,o),
(1021,386,cs),
(1021,535,o),
(957,634,o),
(853,698,cs),
(749,762,o),
(604,786,o),
(443,786,c),
(445,768,l),
(636,986,ls),
(749,1115,o),
(859,1240,o),
(972,1369,c),
(972,1426,l),
(112,1426,l),
(112,1364,l),
(726,1364,l),
(962,1364,l),
(915,1400,l),
(564,1000,ls),
(500,927,o),
(430,849,o),
(365,773,c),
(365,724,l),
(445,724,ls),
(598,724,o),
(725,702,o),
(814,649,cs),
(903,596,o),
(955,511,o),
(955,382,cs),
(955,289,o),
(932,205,o),
(872,145,cs),
(811,85,o),
(713,48,o),
(560,48,cs),
(479,48,o),
(402,59,o),
(330,79,cs),
(258,99,o),
(192,128,o),
(124,164,c),
(112,96,l),
(156,71,o),
(221,43,o),
(301,20,cs),
(381,-3,o),
(468,-18,o),
(564,-18,cs)
);
}
);
width = 1119;
}
);
leftKerningGroup = uni0417;
rightKerningGroup = uni0405;
unicode = 1248;
},
{
glyphname = "Dzhe-cy";
layers = (
{
layerId = "6958D9FC-3AA0-42A5-A7C5-41542F6C8ADC";
shapes = (
{
closed = 1;
nodes = (
(1400,0,l),
(1400,458,l),
(1400,948,l),
(1400,1426,l),
(908,1426,l),
(908,948,l),
(908,538,l),
(908,80,l),
(1125,404,l),
(373,404,l),
(584,80,l),
(584,538,l),
(584,948,l),
(584,1426,l),
(92,1426,l),
(92,948,l),
(92,458,l),
(92,0,l)
);
},
{
closed = 1;
nodes = (
(952,-300,l),
(955,-175,o),
(959,-51,o),
(962,74,c),
(534,74,l),
(537,-51,o),
(541,-175,o),
(544,-300,c)
);
}
);
width = 1492;
},
{
layerId = "05F448A1-237D-4A5F-844D-77861616AAFF";
shapes = (
{
closed = 1;
nodes = (
(1333,0,l),
(1333,468,l),
(1333,949,l),
(1333,1426,l),
(1073,1426,l),
(1073,949,l),
(1073,509,l),
(1073,41,l),
(1198,219,l),
(302,219,l),
(421,41,l),
(421,509,l),
(421,949,l),
(421,1426,l),
(161,1426,l),
(161,949,l),
(161,468,l),
(161,0,l)
);
},
{
closed = 1;
nodes = (
(859,-306,l),
(862,-189,o),
(863,-78,o),
(866,39,c),
(634,39,l),
(637,-78,o),
(638,-189,o),
(641,-306,c)
);
}
);
width = 1494;
},
{
layerId = "7735F29D-4F76-449E-8F41-87F6EE236855";
shapes = (
{
closed = 1;
nodes = (
(1307,0,l),
(1307,472,l),
(1307,949,l),
(1307,1426,l),
(1136,1426,l),
(1136,949,l),
(1136,498,l),
(1136,26,l),
(1226,148,l),
(275,148,l),
(359,26,l),
(359,498,l),
(359,949,l),
(359,1426,l),
(188,1426,l),
(188,949,l),
(188,472,l),
(188,0,l)
);
},
{
closed = 1;
nodes = (
(823,-308,l),
(826,-195,o),
(826,-87,o),
(829,26,c),
(672,26,l),
(675,-88,o),
(675,-197,o),
(678,-308,c)
);
}
);
width = 1495;
},
{
layerId = "5BCA41AC-1A8A-4D79-8779-5300D22224AB";
shapes = (
{
closed = 1;
nodes = (
(1276,0,l),
(1276,476,l),
(1276,950,l),
(1276,1426,l),
(1212,1426,l),
(1212,950,l),
(1212,484,l),
(1212,8,l),
(1260,62,l),
(242,62,l),
(284,8,l),
(284,484,l),
(284,950,l),
(284,1426,l),
(220,1426,l),
(220,950,l),
(220,476,l),
(220,0,l)
);
},
{
closed = 1;
nodes = (
(779,-311,l),
(782,-203,o),
(781,-99,o),
(784,9,c),
(718,9,l),
(721,-100,o),
(720,-206,o),
(723,-311,c)
);
}
);
width = 1496;
}
);
rightKerningGroup = uni0406;
unicode = 1039;
},
{
glyphname = E;
layers = (
{
anchors = (
{
name = bottom;
position = "{606, 0}";
},
{
name = ogonek;
position = "{1120, 0}";
},
{
name = top;
position = "{606, 1426}";
},
{
name = topleft;
position = "{80, 1426}";
}
);
layerId = "6958D9FC-3AA0-42A5-A7C5-41542F6C8ADC";
shapes = (
{
closed = 1;
nodes = (
(1120,0,l),
(1120,386,l),
(734,386,l),
(420,386,l),
(572,80,l),
(572,538,l),
(572,868,l),
(572,1346,l),
(388,1040,l),
(702,1040,l),
(1106,1040,l),
(1106,1426,l),
(92,1426,l),
(92,948,l),
(92,458,l),
(92,0,l)
);
},
{
closed = 1;
nodes = (
(702,542,l),
(1084,542,l),
(1084,886,l),
(702,886,l),
(458,886,l),
(458,542,l)
);
}
);
width = 1200;
},
{
anchors = (
{
name = bottom;
position = "{623, 0}";
},
{
name = ogonek;
position = "{1083, 0}";
},
{
name = top;
position = "{623, 1426}";
},
{
name = topleft;
position = "{69, 1426}";
}
);
layerId = "05F448A1-237D-4A5F-844D-77861616AAFF";
shapes = (
{
closed = 1;
nodes = (
(1085,0,l),
(1085,218,l),
(635,218,l),
(285,218,l),
(415,40,l),
(415,508,l),
(415,910,l),
(415,1386,l),
(269,1208,l),
(615,1208,l),
(1079,1208,l),
(1079,1426,l),
(161,1426,l),
(161,950,l),
(161,468,l),
(161,0,l)
);
},
{
closed = 1;
nodes = (
(625,616,l),
(1043,616,l),
(1043,826,l),
(625,826,l),
(357,826,l),
(357,616,l)
);
}
);
width = 1190;
},
{
anchors = (
{
name = bottom;
position = "{632, 0}";
},
{
name = ogonek;
position = "{1068, 0}";
},
{
name = top;
position = "{632, 1426}";
},
{
name = topleft;
position = "{42, 1426}";
}
);
layerId = "7735F29D-4F76-449E-8F41-87F6EE236855";
shapes = (
{
closed = 1;
nodes = (
(1072,0,l),
(1072,148,l),
(598,148,l),
(270,148,l),
(356,26,l),
(356,497,l),
(356,925,l),
(356,1401,l),
(261,1278,l),
(583,1278,l),
(1070,1278,l),
(1070,1426,l),
(188,1426,l),
(188,950,l),
(188,472,l),
(188,0,l)
);
},
{
closed = 1;
nodes = (
(596,651,l),
(1029,651,l),
(1029,795,l),
(597,795,l),
(319,795,l),
(319,651,l)
);
}
);
width = 1186;
},
{
anchors = (
{
name = bottom;
position = "{640, 0}";
},
{
name = ogonek;
position = "{1056, 0}";
},
{
name = top;
position = "{640, 1426}";
},
{
name = topleft;
position = "{20, 1426}";
}
);
layerId = "5BCA41AC-1A8A-4D79-8779-5300D22224AB";
shapes = (
{
closed = 1;
nodes = (
(1056,0,l),
(1056,62,l),
(552,62,l),
(252,62,l),
(284,8,l),
(284,484,l),
(284,944,l),
(284,1420,l),
(252,1364,l),
(544,1364,l),
(1058,1364,l),
(1058,1426,l),
(220,1426,l),
(220,950,l),
(220,476,l),
(220,0,l)
);
},
{
closed = 1;
nodes = (
(560,694,l),
(1012,694,l),
(1012,756,l),
(562,756,l),
(272,756,l),
(272,694,l)
);
}
);
width = 1182;
}
);
leftKerningGroup = B;
rightKerningGroup = E;
unicode = 69;
},
{
glyphname = "E-cy";
layers = (
{
layerId = "6958D9FC-3AA0-42A5-A7C5-41542F6C8ADC";
shapes = (
{
closed = 1;
nodes = (
(916,-32,o),
(1004,-25,o),
(1088,-12,cs),
(1172,1,o),
(1243,22,o),
(1300,50,c),
(1278,480,l),
(1149,384,o),
(1025,354,o),
(894,354,cs),
(769,354,o),
(680,382,o),
(623,434,cs),
(566,485,o),
(540,558,o),
(540,650,cs),
(540,770,ls),
(540,883,o),
(578,954,o),
(635,998,cs),
(692,1042,o),
(772,1059,o),
(853,1059,cs),
(982,1059,o),
(1115,1020,o),
(1272,924,c),
(1306,1356,l),
(1245,1387,o),
(1168,1411,o),
(1080,1430,cs),
(992,1449,o),
(897,1458,o),
(800,1458,cs),
(551,1458,o),
(367,1379,o),
(239,1243,cs),
(111,1107,o),
(48,924,o),
(48,708,cs),
(48,476,o),
(122,295,o),
(258,166,cs),
(394,37,o),
(584,-32,o),
(824,-32,cs)
);
},
{
closed = 1;
nodes = (
(692,545,l),
(1074,545,l),
(1074,871,l),
(692,871,l),
(458,871,l),
(458,545,l)
);
}
);
width = 1380;
},
{
layerId = "05F448A1-237D-4A5F-844D-77861616AAFF";
shapes = (
{
closed = 1;
nodes = (
(913,-24,o),
(994,-17,o),
(1070,-1,cs),
(1146,16,o),
(1216,41,o),
(1273,74,c),
(1256,314,l),
(1132,225,o),
(998,193,o),
(859,193,cs),
(686,193,o),
(560,247,o),
(476,335,cs),
(391,423,o),
(348,545,o),
(348,686,cs),
(348,742,ls),
(348,899,o),
(398,1020,o),
(486,1104,cs),
(574,1188,o),
(689,1230,o),
(826,1230,cs),
(963,1230,o),
(1103,1193,o),
(1260,1101,c),
(1281,1342,l),
(1228,1370,o),
(1159,1398,o),
(1075,1419,cs),
(991,1440,o),
(899,1454,o),
(803,1454,cs),
(582,1454,o),
(406,1379,o),
(281,1246,cs),
(156,1113,o),
(87,932,o),
(87,713,cs),
(87,494,o),
(157,315,o),
(286,183,cs),
(415,51,o),
(597,-24,o),
(829,-24,cs)
);
},
{
closed = 1;
nodes = (
(599,613,l),
(1019,613,l),
(1019,823,l),
(600,823,l),
(298,823,l),
(298,613,l)
);
}
);
width = 1376;
},
{
layerId = "7735F29D-4F76-449E-8F41-87F6EE236855";
shapes = (
{
closed = 1;
nodes = (
(912,-21,o),
(990,-14,o),
(1064,4,cs),
(1138,21,o),
(1206,47,o),
(1263,83,c),
(1248,247,l),
(1126,160,o),
(987,128,o),
(846,128,cs),
(655,128,o),
(514,191,o),
(419,294,cs),
(324,397,o),
(275,537,o),
(275,700,cs),
(275,731,ls),
(275,909,o),
(332,1049,o),
(429,1148,cs),
(527,1247,o),
(658,1299,o),
(816,1299,cs),
(957,1299,o),
(1099,1263,o),
(1256,1173,c),
(1272,1337,l),
(1222,1364,o),
(1155,1393,o),
(1073,1415,cs),
(991,1437,o),
(900,1452,o),
(804,1452,cs),
(593,1452,o),
(422,1378,o),
(297,1246,cs),
(172,1115,o),
(102,935,o),
(102,715,cs),
(102,501,o),
(170,321,o),
(297,189,cs),
(424,56,o),
(603,-21,o),
(831,-21,cs)
);
},
{
closed = 1;
nodes = (
(564,649,l),
(998,649,l),
(998,793,l),
(565,793,l),
(237,793,l),
(237,649,l)
);
}
);
width = 1374;
},
{
layerId = "5BCA41AC-1A8A-4D79-8779-5300D22224AB";
shapes = (
{
closed = 1;
nodes = (
(910,-18,o),
(984,-10,o),
(1056,9,cs),
(1128,28,o),
(1194,55,o),
(1250,94,c),
(1238,164,l),
(1118,80,o),
(974,48,o),
(830,48,cs),
(617,48,o),
(458,123,o),
(350,244,cs),
(242,365,o),
(186,528,o),
(186,716,cs),
(186,718,ls),
(186,922,o),
(251,1085,o),
(360,1202,cs),
(469,1319,o),
(621,1384,o),
(804,1384,cs),
(949,1384,o),
(1093,1348,o),
(1250,1260,c),
(1260,1330,l),
(1215,1357,o),
(1151,1386,o),
(1071,1410,cs),
(991,1433,o),
(902,1450,o),
(806,1450,cs),
(607,1450,o),
(441,1376,o),
(316,1247,cs),
(191,1118,o),
(120,938,o),
(120,718,cs),
(120,510,o),
(186,329,o),
(311,196,cs),
(436,63,o),
(610,-18,o),
(834,-18,cs)
);
},
{
closed = 1;
nodes = (
(521,694,l),
(973,694,l),
(973,756,l),
(523,756,l),
(163,756,l),
(163,694,l)
);
}
);
width = 1372;
}
);
leftKerningGroup = uni0404_2;
rightKerningGroup = uni0404;
unicode = 1028;
},
{
glyphname = "Ef-cy";
layers = (
{
layerId = "6958D9FC-3AA0-42A5-A7C5-41542F6C8ADC";
shapes = (
{
closed = 1;
nodes = (
(1144,125,ls),
(1395,125,o),
(1567,186,o),
(1678,290,cs),
(1791,394,o),
(1836,536,o),
(1836,711,cs),
(1836,892,o),
(1789,1036,o),
(1677,1140,cs),
(1565,1244,o),
(1401,1301,o),
(1158,1301,cs),
(973,1301,l),
(982,953,l),
(1153,953,ls),
(1233,953,o),
(1280,926,o),
(1311,883,cs),
(1342,839,o),
(1350,780,o),
(1350,712,cs),
(1350,648,o),
(1341,588,o),
(1312,545,cs),
(1283,501,o),
(1233,473,o),
(1153,473,cs),
(972,473,l),
(963,125,l)
);
},
{
closed = 1;
nodes = (
(913,125,l),
(904,473,l),
(723,473,ls),
(643,473,o),
(593,501,o),
(564,545,cs),
(535,588,o),
(526,648,o),
(526,712,cs),
(526,780,o),
(535,839,o),
(566,883,cs),
(597,926,o),
(643,953,o),
(723,953,cs),
(894,953,l),
(903,1301,l),
(718,1301,ls),
(475,1301,o),
(312,1244,o),
(200,1140,cs),
(88,1036,o),
(40,892,o),
(40,711,cs),
(40,536,o),
(85,394,o),
(198,290,cs),
(309,186,o),
(481,125,o),
(732,125,cs)
);
},
{
closed = 1;
nodes = (
(1173,-20,l),
(1173,165,l),
(1158,176,l),
(1158,466,l),
(1158,960,l),
(1158,1250,l),
(1173,1261,l),
(1173,1446,l),
(703,1446,l),
(703,1261,l),
(718,1250,l),
(718,960,l),
(718,466,l),
(718,176,l),
(703,165,l),
(703,-20,l)
);
}
);
width = 1876;
},
{
layerId = "05F448A1-237D-4A5F-844D-77861616AAFF";
shapes = (
{
closed = 1;
nodes = (
(986,123,ls),
(1238,123,o),
(1413,186,o),
(1522,291,c),
(1634,395,o),
(1678,539,o),
(1678,711,cs),
(1678,890,o),
(1629,1035,o),
(1521,1139,cs),
(1412,1243,o),
(1245,1303,o),
(1000,1303,cs),
(900,1303,l),
(904,1101,l),
(997,1101,ls),
(1146,1101,o),
(1246,1069,o),
(1314,1001,cs),
(1382,933,o),
(1409,840,o),
(1409,711,cs),
(1409,586,o),
(1381,490,o),
(1313,425,cs),
(1245,360,o),
(1143,325,o),
(990,325,cs),
(894,325,l),
(890,123,l)
);
},
{
closed = 1;
nodes = (
(860,123,l),
(856,325,l),
(760,325,ls),
(607,325,o),
(506,360,o),
(438,425,cs),
(370,490,o),
(341,586,o),
(341,711,cs),
(341,840,o),
(369,933,o),
(437,1001,cs),
(505,1069,o),
(604,1101,o),
(753,1101,cs),
(846,1101,l),
(850,1303,l),
(751,1303,ls),
(507,1303,o),
(339,1243,o),
(231,1139,cs),
(122,1035,o),
(73,890,o),
(73,711,cs),
(73,539,o),
(118,395,o),
(230,291,cs),
(341,186,o),
(512,123,o),
(765,123,cs)
);
},
{
closed = 1;
nodes = (
(1005,-36,l),
(1005,163,l),
(998,168,l),
(998,461,l),
(998,965,l),
(998,1258,l),
(1005,1263,l),
(1005,1462,l),
(745,1462,l),
(745,1263,l),
(752,1258,l),
(752,965,l),
(752,461,l),
(752,168,l),
(745,163,l),
(745,-36,l)
);
}
);
width = 1750;
},
{
layerId = "7735F29D-4F76-449E-8F41-87F6EE236855";
shapes = (
{
closed = 1;
nodes = (
(926,126,ls),
(1179,126,o),
(1353,188,o),
(1462,293,c),
(1573,397,o),
(1618,540,o),
(1618,711,cs),
(1618,889,o),
(1569,1033,o),
(1461,1137,cs),
(1353,1241,o),
(1186,1300,o),
(940,1300,cs),
(872,1300,l),
(874,1161,l),
(938,1161,ls),
(1114,1161,o),
(1237,1125,o),
(1319,1048,cs),
(1402,971,o),
(1440,863,o),
(1440,711,cs),
(1440,562,o),
(1402,453,o),
(1318,378,cs),
(1233,302,o),
(1108,265,o),
(928,265,cs),
(864,265,l),
(862,126,l)
);
},
{
closed = 1;
nodes = (
(840,126,l),
(838,265,l),
(774,265,ls),
(594,265,o),
(470,302,o),
(385,378,cs),
(301,453,o),
(262,562,o),
(262,711,cs),
(262,863,o),
(301,971,o),
(383,1048,cs),
(466,1125,o),
(589,1161,o),
(764,1161,cs),
(828,1161,l),
(830,1300,l),
(763,1300,ls),
(518,1300,o),
(350,1241,o),
(242,1137,cs),
(134,1033,o),
(85,889,o),
(85,711,cs),
(85,540,o),
(131,397,o),
(241,293,cs),
(351,188,o),
(523,126,o),
(777,126,cs)
);
},
{
closed = 1;
nodes = (
(937,-42,l),
(937,162,l),
(933,165,l),
(933,459,l),
(933,967,l),
(933,1261,l),
(937,1264,l),
(937,1468,l),
(765,1468,l),
(765,1264,l),
(769,1261,l),
(769,967,l),
(769,459,l),
(769,165,l),
(765,162,l),
(765,-42,l)
);
}
);
width = 1702;
},
{
layerId = "5BCA41AC-1A8A-4D79-8779-5300D22224AB";
shapes = (
{
closed = 1;
nodes = (
(852,129,ls),
(1107,129,o),
(1280,191,o),
(1389,295,cs),
(1498,399,o),
(1544,542,o),
(1544,711,cs),
(1544,887,o),
(1496,1030,o),
(1388,1134,cs),
(1280,1238,o),
(1113,1297,o),
(866,1297,cs),
(838,1297,l),
(838,1235,l),
(866,1235,ls),
(1074,1235,o),
(1225,1194,o),
(1326,1106,cs),
(1427,1018,o),
(1478,891,o),
(1478,711,cs),
(1478,532,o),
(1427,408,o),
(1323,320,cs),
(1219,232,o),
(1065,191,o),
(852,191,cs),
(828,191,l),
(828,129,l)
);
},
{
closed = 1;
nodes = (
(816,129,l),
(816,191,l),
(792,191,ls),
(579,191,o),
(425,232,o),
(321,320,cs),
(217,408,o),
(166,532,o),
(166,711,cs),
(166,891,o),
(217,1018,o),
(318,1106,cs),
(419,1194,o),
(570,1235,o),
(778,1235,cs),
(806,1235,l),
(806,1297,l),
(778,1297,ls),
(531,1297,o),
(364,1238,o),
(256,1134,cs),
(148,1030,o),
(100,887,o),
(100,711,cs),
(100,542,o),
(146,399,o),
(255,295,cs),
(364,191,o),
(537,129,o),
(792,129,cs)
);
},
{
closed = 1;
nodes = (
(854,-50,l),
(854,161,l),
(854,162,l),
(854,456,l),
(854,970,l),
(854,1264,l),
(854,1265,l),
(854,1476,l),
(790,1476,l),
(790,1265,l),
(790,1264,l),
(790,970,l),
(790,456,l),
(790,162,l),
(790,161,l),
(790,-50,l)
);
}
);
width = 1644;
}
);
unicode = 1060;
},
{
glyphname = "Ef-cy.loclBGR";
layers = (
{
layerId = "6958D9FC-3AA0-42A5-A7C5-41542F6C8ADC";
shapes = (
{
closed = 1;
nodes = (
(1114,23,l),
(1355,35,o),
(1530,112,o),
(1646,233,cs),
(1763,354,o),
(1816,516,o),
(1816,708,cs),
(1816,907,o),
(1761,1072,o),
(1645,1196,cs),
(1532,1320,o),
(1360,1394,o),
(1128,1403,c),
(963,1403,l),
(972,1070,l),
(1116,1070,l),
(1188,1067,o),
(1239,1022,o),
(1274,954,cs),
(1309,886,o),
(1324,797,o),
(1324,709,cs),
(1324,624,o),
(1308,538,o),
(1275,470,cs),
(1242,402,o),
(1189,358,o),
(1116,355,c),
(962,355,l),
(953,23,l)
);
},
{
closed = 1;
nodes = (
(903,23,l),
(894,355,l),
(740,355,l),
(667,358,o),
(614,402,o),
(581,470,cs),
(548,538,o),
(532,624,o),
(532,709,cs),
(532,797,o),
(548,886,o),
(583,954,cs),
(618,1022,o),
(668,1067,o),
(740,1070,c),
(884,1070,l),
(893,1403,l),
(722,1403,l),
(495,1394,o),
(328,1319,o),
(213,1196,cs),
(97,1072,o),
(40,907,o),
(40,708,cs),
(40,516,o),
(95,354,o),
(212,233,cs),
(328,112,o),
(504,35,o),
(741,23,c)
);
},
{
closed = 1;
nodes = (
(1153,-83,l),
(1153,102,l),
(1143,141,l),
(1143,431,l),
(1143,991,l),
(1143,1281,l),
(1153,1320,l),
(1153,1505,l),
(703,1505,l),
(703,1320,l),
(713,1281,l),
(713,991,l),
(713,431,l),
(713,141,l),
(703,102,l),
(703,-83,l)
);
}
);
width = 1856;
},
{
layerId = "05F448A1-237D-4A5F-844D-77861616AAFF";
shapes = (
{
closed = 1;
nodes = (
(972,45,l),
(1216,50,o),
(1390,128,o),
(1503,249,cs),
(1616,370,o),
(1669,530,o),
(1669,710,cs),
(1669,897,o),
(1615,1059,o),
(1502,1180,cs),
(1389,1301,o),
(1218,1377,o),
(981,1381,c),
(895,1381,l),
(899,1181,l),
(975,1181,l),
(1120,1180,o),
(1224,1131,o),
(1296,1047,cs),
(1368,963,o),
(1401,847,o),
(1401,710,cs),
(1401,577,o),
(1368,463,o),
(1296,379,cs),
(1224,295,o),
(1118,248,o),
(973,245,c),
(889,245,l),
(885,45,l)
);
},
{
closed = 1;
nodes = (
(856,45,l),
(852,245,l),
(768,245,l),
(623,248,o),
(518,295,o),
(446,379,cs),
(374,463,o),
(341,577,o),
(341,710,cs),
(341,847,o),
(374,963,o),
(446,1047,cs),
(518,1131,o),
(621,1180,o),
(766,1181,c),
(842,1181,l),
(846,1381,l),
(758,1381,l),
(523,1377,o),
(354,1301,o),
(241,1180,cs),
(128,1059,o),
(73,897,o),
(73,710,cs),
(73,530,o),
(126,370,o),
(239,249,cs),
(352,128,o),
(526,50,o),
(769,45,c)
);
},
{
closed = 1;
nodes = (
(997,-78,l),
(997,107,l),
(992,127,l),
(992,417,l),
(992,1007,l),
(992,1297,l),
(997,1317,l),
(997,1502,l),
(744,1502,l),
(744,1317,l),
(749,1297,l),
(749,1007,l),
(749,417,l),
(749,127,l),
(744,107,l),
(744,-78,l)
);
}
);
width = 1741;
},
{
layerId = "7735F29D-4F76-449E-8F41-87F6EE236855";
shapes = (
{
closed = 1;
nodes = (
(918,53,l),
(1160,56,o),
(1334,134,o),
(1447,255,cs),
(1560,376,o),
(1613,535,o),
(1613,710,cs),
(1613,893,o),
(1560,1053,o),
(1445,1174,cs),
(1332,1295,o),
(1161,1371,o),
(925,1373,c),
(869,1373,l),
(872,1235,l),
(921,1235,l),
(1093,1234,o),
(1219,1181,o),
(1305,1088,cs),
(1392,995,o),
(1436,867,o),
(1436,710,cs),
(1436,557,o),
(1393,430,o),
(1305,337,cs),
(1216,244,o),
(1090,193,o),
(919,191,c),
(862,191,l),
(859,53,l)
);
},
{
closed = 1;
nodes = (
(838,53,l),
(836,191,l),
(779,191,l),
(608,193,o),
(482,244,o),
(393,337,cs),
(305,430,o),
(262,557,o),
(262,710,cs),
(262,867,o),
(306,995,o),
(392,1088,cs),
(479,1181,o),
(605,1234,o),
(776,1235,c),
(826,1235,l),
(828,1373,l),
(772,1373,l),
(537,1371,o),
(368,1295,o),
(254,1174,cs),
(139,1053,o),
(85,893,o),
(85,710,cs),
(85,535,o),
(139,376,o),
(252,255,cs),
(364,134,o),
(538,56,o),
(779,53,c)
);
},
{
closed = 1;
nodes = (
(933,-79,l),
(933,106,l),
(930,122,l),
(930,412,l),
(930,1013,l),
(930,1303,l),
(933,1319,l),
(933,1504,l),
(765,1504,l),
(765,1319,l),
(767,1303,l),
(767,1013,l),
(767,412,l),
(767,122,l),
(765,106,l),
(765,-79,l)
);
}
);
width = 1697;
},
{
layerId = "5BCA41AC-1A8A-4D79-8779-5300D22224AB";
shapes = (
{
closed = 1;
nodes = (
(852,63,ls),
(1092,63,o),
(1265,142,o),
(1378,262,cs),
(1491,383,o),
(1544,542,o),
(1544,711,cs),
(1544,887,o),
(1492,1046,o),
(1376,1167,cs),
(1263,1288,o),
(1092,1363,o),
(856,1363,cs),
(838,1363,l),
(838,1301,l),
(856,1301,ls),
(1059,1301,o),
(1212,1243,o),
(1317,1139,cs),
(1422,1035,o),
(1478,891,o),
(1478,711,cs),
(1478,532,o),
(1423,390,o),
(1315,286,cs),
(1207,182,o),
(1055,125,o),
(852,125,cs),
(828,125,l),
(828,63,l)
);
},
{
closed = 1;
nodes = (
(816,63,l),
(816,125,l),
(792,125,ls),
(589,125,o),
(437,182,o),
(329,286,cs),
(221,390,o),
(166,532,o),
(166,711,cs),
(166,891,o),
(222,1035,o),
(327,1139,cs),
(432,1243,o),
(585,1301,o),
(788,1301,cs),
(806,1301,l),
(806,1363,l),
(788,1363,ls),
(553,1363,o),
(384,1288,o),
(269,1167,cs),
(153,1046,o),
(100,887,o),
(100,711,cs),
(100,542,o),
(154,383,o),
(267,262,cs),
(379,142,o),
(552,63,o),
(792,63,cs)
);
},
{
closed = 1;
nodes = (
(854,-80,l),
(854,105,l),
(854,116,l),
(854,406,l),
(854,1020,l),
(854,1310,l),
(854,1321,l),
(854,1506,l),
(790,1506,l),
(790,1321,l),
(790,1310,l),
(790,1020,l),
(790,406,l),
(790,116,l),
(790,105,l),
(790,-80,l)
);
}
);
width = 1644;
}
);
leftKerningGroup = uni0404_2;
rightKerningGroup = uni041E;
},
{
glyphname = "El-cy";
layers = (
{
anchors = (
{
name = "#exit";
position = "{1438, 0}";
}
);
layerId = "6958D9FC-3AA0-42A5-A7C5-41542F6C8ADC";
shapes = (
{
closed = 1;
nodes = (
(311,-28,o),
(369,-21,o),
(418,-6,cs),
(518,23,o),
(582,80,o),
(623,165,cs),
(643,208,o),
(659,256,o),
(672,312,c),
(696,425,o),
(706,561,o),
(718,722,cs),
(734,937,o),
(749,1127,o),
(764,1327,c),
(505,1022,l),
(1172,1022,l),
(946,1346,l),
(946,868,l),
(946,458,l),
(946,0,l),
(1438,0,l),
(1438,458,l),
(1438,948,l),
(1438,1426,l),
(306,1426,l),
(298,1255,o),
(290,1079,o),
(282,914,cs),
(274,737,o),
(256,611,o),
(227,523,cs),
(198,435,o),
(156,394,o),
(96,394,cs),
(81,394,o),
(66,396,o),
(37,400,c),
(20,-1,l),
(76,-16,o),
(147,-28,o),
(239,-28,cs)
);
}
);
width = 1530;
},
{
anchors = (
{
name = "#exit";
position = "{1366, 0}";
}
);
layerId = "05F448A1-237D-4A5F-844D-77861616AAFF";
shapes = (
{
closed = 1;
nodes = (
(230,-20,o),
(276,-13,o),
(315,2,c),
(395,30,o),
(446,85,o),
(481,173,cs),
(498,216,o),
(512,266,o),
(523,323,cs),
(544,440,o),
(556,578,o),
(567,754,cs),
(582,973,o),
(596,1170,o),
(609,1373,c),
(467,1207,l),
(1219,1207,l),
(1089,1386,l),
(1089,909,l),
(1089,468,l),
(1089,0,l),
(1349,0,l),
(1349,468,l),
(1349,949,l),
(1349,1426,l),
(367,1426,l),
(356,1230,o),
(345,1043,o),
(334,852,cs),
(322,628,o),
(305,469,o),
(272,364,cs),
(239,259,o),
(188,208,o),
(108,208,cs),
(89,208,o),
(67,211,o),
(39,216,c),
(26,-3,l),
(62,-12,o),
(114,-20,o),
(174,-20,cs)
);
}
);
width = 1510;
},
{
anchors = (
{
name = "#exit";
position = "{1314, 0}";
}
);
layerId = "7735F29D-4F76-449E-8F41-87F6EE236855";
shapes = (
{
closed = 1;
nodes = (
(199,-17,o),
(240,-11,o),
(276,4,c),
(347,32,o),
(395,87,o),
(427,175,cs),
(443,218,o),
(455,269,o),
(466,327,c),
(486,445,o),
(498,586,o),
(509,766,cs),
(524,986,o),
(537,1187,o),
(550,1391,c),
(453,1278,l),
(1236,1278,l),
(1143,1401,l),
(1143,925,l),
(1143,472,l),
(1143,0,l),
(1315,0,l),
(1315,472,l),
(1315,949,l),
(1315,1426,l),
(390,1426,l),
(378,1221,o),
(366,1029,o),
(354,828,cs),
(340,587,o),
(323,417,o),
(289,304,cs),
(254,190,o),
(201,137,o),
(112,137,cs),
(91,137,o),
(67,140,o),
(39,146,c),
(28,-4,l),
(57,-11,o),
(101,-17,o),
(149,-17,cs)
);
}
);
width = 1502;
},
{
anchors = (
{
name = "#exit";
position = "{1273, 0}";
}
);
layerId = "5BCA41AC-1A8A-4D79-8779-5300D22224AB";
shapes = (
{
closed = 1;
nodes = (
(161,-14,o),
(197,-8,o),
(228,7,cs),
(289,35,o),
(332,90,o),
(361,178,cs),
(376,221,o),
(386,272,o),
(397,332,c),
(416,452,o),
(427,596,o),
(439,781,cs),
(454,1002,o),
(465,1207,o),
(478,1412,c),
(435,1364,l),
(1257,1364,l),
(1209,1420,l),
(1209,944,l),
(1209,476,l),
(1209,0,l),
(1273,0,l),
(1273,476,l),
(1273,950,l),
(1273,1426,l),
(417,1426,l),
(404,1210,o),
(391,1012,o),
(378,799,cs),
(362,536,o),
(346,354,o),
(310,230,cs),
(273,106,o),
(217,50,o),
(117,50,cs),
(94,50,o),
(67,53,o),
(39,60,c),
(30,-6,l),
(51,-10,o),
(86,-14,o),
(118,-14,cs)
);
}
);
width = 1493;
}
);
leftKerningGroup = uni0409_2;
rightKerningGroup = uni0406;
unicode = 1051;
},
{
glyphname = "El-cy.loclBGR";
layers = (
{
layerId = "6958D9FC-3AA0-42A5-A7C5-41542F6C8ADC";
shapes = (
{
closed = 1;
nodes = (
(555,0,l),
(570,77,o),
(585,161,o),
(601,245,cs),
(617,329,o),
(632,413,o),
(647,490,cs),
(730,932,l),
(762,932,l),
(841,491,ls),
(869,334,o),
(900,165,o),
(929,0,c),
(1478,0,l),
(1435,153,o),
(1387,324,o),
(1343,481,cs),
(1205,973,ls),
(1180,1062,o),
(1158,1140,o),
(1138,1213,cs),
(1117,1286,o),
(1098,1354,o),
(1078,1426,c),
(424,1426,l),
(404,1354,o),
(384,1288,o),
(364,1212,cs),
(343,1136,o),
(321,1061,o),
(297,973,cs),
(160,485,ls),
(139,408,o),
(116,328,o),
(92,243,cs),
(68,158,o),
(45,77,o),
(24,0,c)
);
}
);
width = 1502;
},
{
layerId = "05F448A1-237D-4A5F-844D-77861616AAFF";
shapes = (
{
closed = 1;
nodes = (
(331,0,l),
(362,96,o),
(394,202,o),
(427,307,cs),
(460,411,o),
(494,516,o),
(523,612,cs),
(695,1161,l),
(716,1161,l),
(885,610,ls),
(945,413,o),
(1009,205,o),
(1073,0,c),
(1362,0,l),
(1311,153,o),
(1253,324,o),
(1200,481,cs),
(1035,974,ls),
(1006,1062,o),
(979,1140,o),
(955,1213,cs),
(930,1286,o),
(907,1354,o),
(883,1426,c),
(534,1426,l),
(510,1354,o),
(486,1288,o),
(461,1212,cs),
(436,1136,o),
(409,1061,o),
(380,973,cs),
(214,485,ls),
(187,408,o),
(161,327,o),
(132,243,cs),
(103,158,o),
(77,77,o),
(50,0,c)
);
}
);
width = 1412;
},
{
layerId = "7735F29D-4F76-449E-8F41-87F6EE236855";
shapes = (
{
closed = 1;
nodes = (
(246,0,l),
(282,104,o),
(321,216,o),
(361,330,cs),
(401,443,o),
(440,554,o),
(476,658,c),
(682,1248,l),
(699,1248,l),
(902,655,ls),
(975,443,o),
(1052,219,o),
(1127,0,c),
(1318,0,l),
(1263,153,o),
(1202,324,o),
(1146,481,cs),
(970,974,ls),
(939,1062,o),
(911,1140,o),
(885,1213,cs),
(859,1286,o),
(835,1354,o),
(809,1426,c),
(575,1426,l),
(550,1354,o),
(524,1286,o),
(498,1212,cs),
(471,1137,o),
(443,1061,o),
(412,973,cs),
(235,485,l),
(206,408,o),
(178,327,o),
(147,243,cs),
(117,158,o),
(89,77,o),
(60,0,c)
);
}
);
width = 1378;
},
{
layerId = "5BCA41AC-1A8A-4D79-8779-5300D22224AB";
shapes = (
{
closed = 1;
nodes = (
(141,0,l),
(185,113,o),
(232,233,o),
(280,358,cs),
(328,483,o),
(375,601,o),
(418,714,cs),
(666,1354,l),
(678,1354,l),
(923,711,ls),
(1011,480,o),
(1105,237,o),
(1194,0,c),
(1264,0,l),
(1204,153,o),
(1140,324,o),
(1080,481,cs),
(891,974,ls),
(858,1062,o),
(828,1139,o),
(800,1212,cs),
(772,1285,o),
(746,1354,o),
(718,1426,c),
(626,1426,l),
(598,1354,o),
(571,1284,o),
(543,1211,cs),
(514,1138,o),
(485,1061,o),
(450,973,cs),
(260,484,ls),
(229,407,o),
(199,326,o),
(166,242,cs),
(133,158,o),
(103,77,o),
(72,0,c)
);
}
);
width = 1336;
}
);
leftKerningGroup = uni0410_2;
rightKerningGroup = uni0410;
},
{
glyphname = "Eldescender-cy";
layers = (
{
anchors = (
{
name = _bottomright;
position = "{1438, 0}";
}
);
layerId = "6958D9FC-3AA0-42A5-A7C5-41542F6C8ADC";
shapes = (
{
closed = 1;
nodes = (
(311,-28,o),
(369,-21,o),
(418,-6,cs),
(518,23,o),
(582,80,o),
(623,165,cs),
(643,208,o),
(659,256,o),
(672,312,c),
(696,425,o),
(706,561,o),
(718,722,cs),
(734,937,o),
(749,1127,o),
(764,1327,c),
(505,1022,l),
(1172,1022,l),
(946,1346,l),
(946,868,l),
(946,458,l),
(946,0,l),
(1438,0,l),
(1438,458,l),
(1438,948,l),
(1438,1426,l),
(306,1426,l),
(298,1255,o),
(290,1079,o),
(282,914,cs),
(274,737,o),
(256,611,o),
(227,523,cs),
(198,435,o),
(156,394,o),
(96,394,cs),
(81,394,o),
(66,396,o),
(37,400,c),
(20,-1,l),
(76,-16,o),
(147,-28,o),
(239,-28,cs)
);
},
{
closed = 1;
nodes = (
(1621,-300,l),
(1621,44,l),
(1621,404,l),
(1087,404,l),
(1087,0,l),
(1262,0,l),
(1187,76,l),
(1213,-300,l)
);
}
);
width = 1643;
},
{
anchors = (
{
name = _bottomright;
position = "{1366, 0}";
}
);
layerId = "05F448A1-237D-4A5F-844D-77861616AAFF";
shapes = (
{
closed = 1;
nodes = (
(230,-20,o),
(276,-13,o),
(315,2,c),
(395,30,o),
(446,85,o),
(481,173,cs),
(498,216,o),
(512,266,o),
(523,323,cs),
(544,440,o),
(556,578,o),
(567,754,cs),
(582,973,o),
(596,1170,o),
(609,1373,c),
(467,1207,l),
(1219,1207,l),
(1089,1386,l),
(1089,909,l),
(1089,468,l),
(1089,0,l),
(1349,0,l),
(1349,468,l),
(1349,949,l),
(1349,1426,l),
(367,1426,l),
(356,1230,o),
(345,1043,o),
(334,852,cs),
(322,628,o),
(305,469,o),
(272,364,cs),
(239,259,o),
(188,208,o),
(108,208,cs),
(89,208,o),
(67,211,o),
(39,216,c),
(26,-3,l),
(62,-12,o),
(114,-20,o),
(174,-20,cs)
);
},
{
closed = 1;
nodes = (
(1532,-305,l),
(1532,-49,l),
(1532,219,l),
(1168,219,l),
(1168,0,l),
(1349,0,l),
(1298,41,l),
(1313,-305,l)
);
}
);
width = 1577;
},
{
anchors = (
{
name = _bottomright;
position = "{1314, 0}";
}
);
layerId = "7735F29D-4F76-449E-8F41-87F6EE236855";
shapes = (
{
closed = 1;
nodes = (
(199,-17,o),
(240,-11,o),
(276,4,c),
(347,32,o),
(395,87,o),
(427,175,cs),
(443,218,o),
(455,269,o),
(466,327,c),
(486,445,o),
(498,586,o),
(509,766,cs),
(524,986,o),
(537,1187,o),
(550,1391,c),
(453,1278,l),
(1236,1278,l),
(1143,1401,l),
(1143,925,l),
(1143,472,l),
(1143,0,l),
(1315,0,l),
(1315,472,l),
(1315,949,l),
(1315,1426,l),
(390,1426,l),
(378,1221,o),
(366,1029,o),
(354,828,cs),
(340,587,o),
(323,417,o),
(289,304,cs),
(254,190,o),
(201,137,o),
(112,137,cs),
(91,137,o),
(67,140,o),
(39,146,c),
(28,-4,l),
(57,-11,o),
(101,-17,o),
(149,-17,cs)
);
},
{
closed = 1;
nodes = (
(1498,-307,l),
(1498,-84,l),
(1498,148,l),
(1199,148,l),
(1199,0,l),
(1382,0,l),
(1340,28,l),
(1351,-307,l)
);
}
);
width = 1552;
},
{
anchors = (
{
name = _bottomright;
position = "{1273, 0}";
}
);
layerId = "5BCA41AC-1A8A-4D79-8779-5300D22224AB";
shapes = (
{
closed = 1;
nodes = (
(161,-14,o),
(197,-8,o),
(228,7,cs),
(289,35,o),
(332,90,o),
(361,178,cs),
(376,221,o),
(386,272,o),
(397,332,c),
(416,452,o),
(427,596,o),
(439,781,cs),
(454,1002,o),
(465,1207,o),
(478,1412,c),
(435,1364,l),
(1257,1364,l),
(1209,1420,l),
(1209,944,l),
(1209,476,l),
(1209,0,l),
(1273,0,l),
(1273,476,l),
(1273,950,l),
(1273,1426,l),
(417,1426,l),
(404,1210,o),
(391,1012,o),
(378,799,cs),
(362,536,o),
(346,354,o),
(310,230,cs),
(273,106,o),
(217,50,o),
(117,50,cs),
(94,50,o),
(67,53,o),
(39,60,c),
(30,-6,l),
(51,-10,o),
(86,-14,o),
(118,-14,cs)
);
},
{
closed = 1;
nodes = (
(1457,-310,l),
(1457,-127,l),
(1457,62,l),
(1237,62,l),
(1237,0,l),
(1423,0,l),
(1392,11,l),
(1397,-310,l)
);
}
);
width = 1522;
}
);
leftKerningGroup = uni0409_2;
rightKerningGroup = uni0414;
unicode = 1326;
},
{
glyphname = "Elhook-cy";
layers = (
{
layerId = "6958D9FC-3AA0-42A5-A7C5-41542F6C8ADC";
shapes = (
{
closed = 1;
nodes = (
(1262,-300,l),
(1315,-253,o),
(1359,-196,o),
(1390,-120,cs),
(1421,-44,o),
(1438,49,o),
(1438,162,cs),
(1438,738,l),
(1438,948,l),
(1438,1426,l),
(306,1426,l),
(298,1255,o),
(290,1079,o),
(282,914,cs),
(274,737,o),
(256,611,o),
(227,523,cs),
(198,435,o),
(156,394,o),
(96,394,cs),
(81,394,o),
(66,396,o),
(37,400,c),
(20,-1,l),
(76,-16,o),
(147,-28,o),
(239,-28,cs),
(311,-28,o),
(369,-21,o),
(418,-6,cs),
(518,23,o),
(582,80,o),
(623,165,cs),
(643,208,o),
(659,256,o),
(672,312,c),
(696,425,o),
(706,561,o),
(718,722,cs),
(734,937,o),
(749,1127,o),
(764,1327,c),
(505,1022,l),
(1172,1022,l),
(946,1346,l),
(946,868,l),
(946,738,l),
(946,186,ls),
(946,101,o),
(937,19,o),
(917,-65,cs),
(897,-149,o),
(865,-224,o),
(818,-300,c)
);
}
);
width = 1530;
},
{
layerId = "05F448A1-237D-4A5F-844D-77861616AAFF";
shapes = (
{
closed = 1;
nodes = (
(1171,-305,l),
(1219,-260,o),
(1264,-205,o),
(1297,-133,cs),
(1329,-61,o),
(1349,27,o),
(1349,136,cs),
(1349,635,l),
(1349,949,l),
(1349,1426,l),
(367,1426,l),
(356,1230,o),
(345,1043,o),
(334,852,cs),
(322,628,o),
(305,469,o),
(272,364,cs),
(239,259,o),
(188,208,o),
(108,208,cs),
(89,208,o),
(67,211,o),
(39,216,c),
(26,-3,l),
(62,-12,o),
(114,-20,o),
(174,-20,cs),
(230,-20,o),
(276,-13,o),
(315,2,c),
(395,30,o),
(446,85,o),
(481,173,cs),
(498,216,o),
(512,266,o),
(523,323,cs),
(544,440,o),
(556,578,o),
(567,754,cs),
(582,973,o),
(596,1170,o),
(609,1373,c),
(467,1207,l),
(1219,1207,l),
(1089,1386,l),
(1089,909,l),
(1089,636,l),
(1089,155,ls),
(1089,59,o),
(1074,-21,o),
(1046,-97,cs),
(1017,-173,o),
(976,-237,o),
(920,-305,c)
);
}
);
width = 1510;
},
{
layerId = "7735F29D-4F76-449E-8F41-87F6EE236855";
shapes = (
{
closed = 1;
nodes = (
(1136,-307,l),
(1183,-262,o),
(1227,-208,o),
(1261,-138,cs),
(1294,-68,o),
(1315,19,o),
(1315,126,cs),
(1315,596,l),
(1315,949,l),
(1315,1426,l),
(390,1426,l),
(378,1221,o),
(366,1029,o),
(354,828,cs),
(340,587,o),
(323,417,o),
(289,304,cs),
(254,190,o),
(201,137,o),
(112,137,cs),
(91,137,o),
(67,140,o),
(39,146,c),
(28,-4,l),
(57,-11,o),
(101,-17,o),
(149,-17,cs),
(199,-17,o),
(240,-11,o),
(276,4,c),
(347,32,o),
(395,87,o),
(427,175,cs),
(443,218,o),
(455,269,o),
(466,327,c),
(486,445,o),
(498,586,o),
(509,766,cs),
(524,986,o),
(537,1187,o),
(550,1391,c),
(453,1278,l),
(1236,1278,l),
(1143,1401,l),
(1143,925,l),
(1143,597,l),
(1143,143,ls),
(1143,43,o),
(1126,-37,o),
(1095,-110,c),
(1062,-182,o),
(1018,-242,o),
(958,-307,c)
);
}
);
width = 1502;
},
{
layerId = "5BCA41AC-1A8A-4D79-8779-5300D22224AB";
shapes = (
{
closed = 1;
nodes = (
(1093,-310,l),
(1138,-265,o),
(1182,-212,o),
(1217,-144,cs),
(1252,-76,o),
(1273,9,o),
(1273,114,cs),
(1273,548,l),
(1273,950,l),
(1273,1426,l),
(417,1426,l),
(404,1210,o),
(391,1012,o),
(378,799,cs),
(362,536,o),
(346,354,o),
(310,230,cs),
(273,106,o),
(217,50,o),
(117,50,cs),
(94,50,o),
(67,53,o),
(39,60,c),
(30,-6,l),
(51,-10,o),
(86,-14,o),
(118,-14,cs),
(161,-14,o),
(197,-8,o),
(228,7,cs),
(289,35,o),
(332,90,o),
(361,178,cs),
(376,221,o),
(386,272,o),
(397,332,c),
(416,452,o),
(427,596,o),
(439,781,cs),
(454,1002,o),
(465,1207,o),
(478,1412,c),
(435,1364,l),
(1257,1364,l),
(1209,1420,l),
(1209,944,l),
(1209,550,l),
(1209,128,ls),
(1209,23,o),
(1189,-57,o),
(1154,-125,cs),
(1118,-193,o),
(1069,-249,o),
(1005,-310,c)
);
}
);
width = 1493;
}
);
leftKerningGroup = uni0409_2;
rightKerningGroup = uni0406;
unicode = 1298;
},
{
glyphname = "Eltail-cy";
layers = (
{
layerId = "6958D9FC-3AA0-42A5-A7C5-41542F6C8ADC";
shapes = (
{
closed = 1;
nodes = (
(311,-28,o),
(369,-21,o),
(418,-6,cs),
(518,23,o),
(582,80,o),
(623,165,cs),
(643,208,o),
(659,256,o),
(672,312,c),
(696,425,o),
(706,561,o),
(718,722,cs),
(734,937,o),
(749,1127,o),
(764,1327,c),
(505,1022,l),
(1172,1022,l),
(946,1346,l),
(946,868,l),
(946,458,l),
(946,0,l),
(1438,0,l),
(1438,458,l),
(1438,948,l),
(1438,1426,l),
(306,1426,l),
(298,1255,o),
(290,1079,o),
(282,914,cs),
(274,737,o),
(256,611,o),
(227,523,cs),
(198,435,o),
(156,394,o),
(96,394,cs),
(81,394,o),
(66,396,o),
(37,400,c),
(20,-1,l),
(76,-16,o),
(147,-28,o),
(239,-28,cs)
);
},
{
closed = 1;
nodes = (
(1499,-300,l),
(1523,-187,o),
(1549,-67,o),
(1573,46,cs),
(1597,163,o),
(1624,283,o),
(1649,404,c),
(1060,404,l),
(1060,0,l),
(1275,0,l),
(1165,49,l),
(1105,-300,l)
);
}
);
width = 1639;
},
{
layerId = "05F448A1-237D-4A5F-844D-77861616AAFF";
shapes = (
{
closed = 1;
nodes = (
(230,-20,o),
(276,-13,o),
(315,2,c),
(395,30,o),
(446,85,o),
(481,173,cs),
(498,216,o),
(512,266,o),
(523,323,cs),
(544,440,o),
(556,578,o),
(567,754,cs),
(582,973,o),
(596,1170,o),
(609,1373,c),
(467,1207,l),
(1219,1207,l),
(1089,1386,l),
(1089,909,l),
(1089,468,l),
(1089,0,l),
(1349,0,l),
(1349,468,l),
(1349,949,l),
(1349,1426,l),
(367,1426,l),
(356,1230,o),
(345,1043,o),
(334,852,cs),
(322,628,o),
(305,469,o),
(272,364,cs),
(239,259,o),
(188,208,o),
(108,208,cs),
(89,208,o),
(67,211,o),
(39,216,c),
(26,-3,l),
(62,-12,o),
(114,-20,o),
(174,-20,cs)
);
},
{
closed = 1;
nodes = (
(1415,-305,l),
(1436,-221,o),
(1458,-133,o),
(1479,-48,cs),
(1500,40,o),
(1522,130,o),
(1545,219,c),
(1148,219,l),
(1148,0,l),
(1340,0,l),
(1279,29,l),
(1201,-305,l)
);
}
);
width = 1576;
},
{
layerId = "7735F29D-4F76-449E-8F41-87F6EE236855";
shapes = (
{
closed = 1;
nodes = (
(199,-17,o),
(240,-11,o),
(276,4,c),
(347,32,o),
(395,87,o),
(427,175,cs),
(443,218,o),
(455,269,o),
(466,327,c),
(486,445,o),
(498,586,o),
(509,766,cs),
(524,986,o),
(537,1187,o),
(550,1391,c),
(453,1278,l),
(1236,1278,l),
(1143,1401,l),
(1143,925,l),
(1143,472,l),
(1143,0,l),
(1315,0,l),
(1315,472,l),
(1315,949,l),
(1315,1426,l),
(390,1426,l),
(378,1221,o),
(366,1029,o),
(354,828,cs),
(340,587,o),
(323,417,o),
(289,304,cs),
(254,190,o),
(201,137,o),
(112,137,cs),
(91,137,o),
(67,140,o),
(39,146,c),
(28,-4,l),
(57,-11,o),
(101,-17,o),
(149,-17,cs)
);
},
{
closed = 1;
nodes = (
(1383,-307,l),
(1403,-232,o),
(1423,-159,o),
(1443,-84,cs),
(1464,-6,o),
(1484,70,o),
(1506,148,c),
(1182,148,l),
(1182,0,l),
(1365,0,l),
(1322,21,l),
(1238,-307,l)
);
}
);
width = 1552;
},
{
layerId = "5BCA41AC-1A8A-4D79-8779-5300D22224AB";
shapes = (
{
closed = 1;
nodes = (
(161,-14,o),
(197,-8,o),
(228,7,cs),
(289,35,o),
(332,90,o),
(361,178,cs),
(376,221,o),
(386,272,o),
(397,332,c),
(416,452,o),
(427,596,o),
(439,781,cs),
(454,1002,o),
(465,1207,o),
(478,1412,c),
(435,1364,l),
(1257,1364,l),
(1209,1420,l),
(1209,944,l),
(1209,476,l),
(1209,0,l),
(1273,0,l),
(1273,476,l),
(1273,950,l),
(1273,1426,l),
(417,1426,l),
(404,1210,o),
(391,1012,o),
(378,799,cs),
(362,536,o),
(346,354,o),
(310,230,cs),
(273,106,o),
(217,50,o),
(117,50,cs),
(94,50,o),
(67,53,o),
(39,60,c),
(30,-6,l),
(51,-10,o),
(86,-14,o),
(118,-14,cs)
);
},
{
closed = 1;
nodes = (
(1344,-310,l),
(1363,-246,o),
(1381,-191,o),
(1400,-127,cs),
(1419,-63,o),
(1438,-3,o),
(1458,62,c),
(1223,62,l),
(1223,0,l),
(1395,0,l),
(1375,12,l),
(1283,-310,l)
);
}
);
width = 1522;
}
);
leftKerningGroup = uni0409_2;
rightKerningGroup = uni0414;
unicode = 1221;
},
{
glyphname = "Emtail-cy";
layers = (
{
anchors = (
{
name = bottom;
position = "{970, 0}";
},
{
name = top;
position = "{970, 1426}";
}
);
layerId = "6958D9FC-3AA0-42A5-A7C5-41542F6C8ADC";
shapes = (
{
closed = 1;
nodes = (
(516,0,l),
(533,141,o),
(548,269,o),
(563,386,cs),
(592,624,l),
(624,624,l),
(708,367,ls),
(728,303,o),
(749,241,o),
(769,180,cs),
(789,119,o),
(809,60,o),
(828,0,c),
(1150,0,l),
(1163,56,o),
(1177,116,o),
(1193,177,cs),
(1208,238,o),
(1222,302,o),
(1238,366,cs),
(1300,624,l),
(1332,624,l),
(1362,383,ls),
(1377,270,o),
(1391,145,o),
(1410,0,c),
(1876,0,l),
(1867,72,o),
(1859,142,o),
(1848,218,cs),
(1837,294,o),
(1828,369,o),
(1816,457,cs),
(1752,942,ls),
(1740,1030,o),
(1730,1112,o),
(1719,1192,cs),
(1708,1272,o),
(1699,1346,o),
(1688,1426,c),
(1200,1426,l),
(1179,1362,o),
(1161,1306,o),
(1144,1254,cs),
(1127,1202,o),
(1111,1153,o),
(1094,1101,cs),
(994,794,l),
(964,794,l),
(854,1102,ls),
(817,1206,o),
(781,1305,o),
(738,1426,c),
(242,1426,l),
(233,1346,o),
(224,1270,o),
(213,1190,cs),
(202,1110,o),
(193,1029,o),
(182,944,cs),
(121,458,ls),
(110,373,o),
(100,294,o),
(91,218,cs),
(82,142,o),
(73,72,o),
(64,0,c)
);
},
{
closed = 1;
nodes = (
(1884,-300,l),
(1908,-187,o),
(1934,-67,o),
(1958,46,cs),
(1982,163,o),
(2009,283,o),
(2034,404,c),
(1445,404,l),
(1445,0,l),
(1660,0,l),
(1550,49,l),
(1490,-300,l)
);
}
);
width = 2024;
},
{
anchors = (
{
name = bottom;
position = "{963, 0}";
},
{
name = top;
position = "{963, 1426}";
}
);
layerId = "05F448A1-237D-4A5F-844D-77861616AAFF";
shapes = (
{
closed = 1;
nodes = (
(360,0,l),
(387,228,o),
(412,425,o),
(433,606,cs),
(479,984,l),
(497,984,l),
(658,574,ls),
(697,478,o),
(736,377,o),
(775,277,cs),
(814,177,o),
(852,84,o),
(884,0,c),
(1057,0,l),
(1089,88,o),
(1124,181,o),
(1160,278,cs),
(1196,375,o),
(1234,476,o),
(1270,576,cs),
(1421,984,l),
(1439,984,l),
(1485,605,ls),
(1508,424,o),
(1531,228,o),
(1559,0,c),
(1806,0,l),
(1797,77,o),
(1787,150,o),
(1778,226,cs),
(1769,302,o),
(1759,379,o),
(1748,467,cs),
(1688,945,ls),
(1677,1033,o),
(1669,1111,o),
(1658,1191,cs),
(1647,1271,o),
(1639,1345,o),
(1628,1426,c),
(1368,1426,l),
(1332,1333,o),
(1298,1247,o),
(1266,1163,cs),
(1233,1079,o),
(1201,998,o),
(1168,914,cs),
(976,423,l),
(958,423,l),
(761,914,ls),
(694,1081,o),
(629,1243,o),
(556,1426,c),
(294,1426,l),
(283,1345,o),
(276,1269,o),
(265,1189,cs),
(254,1109,o),
(245,1033,o),
(234,945,cs),
(175,470,ls),
(164,382,o),
(156,303,o),
(145,226,cs),
(134,149,o),
(125,76,o),
(116,0,c)
);
},
{
closed = 1;
nodes = (
(1844,-305,l),
(1865,-221,o),
(1887,-133,o),
(1908,-48,cs),
(1929,40,o),
(1951,130,o),
(1974,219,c),
(1577,219,l),
(1577,0,l),
(1769,0,l),
(1708,29,l),
(1630,-305,l)
);
}
);
width = 2004;
},
{
anchors = (
{
name = bottom;
position = "{958, 0}";
},
{
name = top;
position = "{958, 1426}";
}
);
layerId = "7735F29D-4F76-449E-8F41-87F6EE236855";
shapes = (
{
closed = 1;
nodes = (
(301,0,l),
(332,260,o),
(360,484,o),
(384,690,cs),
(436,1121,l),
(449,1121,l),
(639,653,ls),
(684,544,o),
(731,428,o),
(777,314,cs),
(824,200,o),
(867,93,o),
(905,0,c),
(1021,0,l),
(1061,99,o),
(1102,205,o),
(1147,316,cs),
(1192,428,o),
(1237,543,o),
(1282,656,cs),
(1466,1121,l),
(1479,1121,l),
(1531,689,ls),
(1557,484,o),
(1584,260,o),
(1615,0,c),
(1779,0,l),
(1770,79,o),
(1760,153,o),
(1751,230,cs),
(1742,306,o),
(1732,384,o),
(1721,471,cs),
(1663,946,ls),
(1652,1034,o),
(1644,1112,o),
(1634,1191,cs),
(1624,1269,o),
(1616,1344,o),
(1605,1426,c),
(1432,1426,l),
(1390,1322,o),
(1351,1225,o),
(1312,1128,cs),
(1273,1031,o),
(1235,940,o),
(1196,843,cs),
(969,282,l),
(955,282,l),
(725,843,ls),
(647,1034,o),
(571,1219,o),
(487,1426,c),
(314,1426,l),
(303,1344,o),
(296,1268,o),
(285,1189,cs),
(274,1110,o),
(265,1033,o),
(254,945,cs),
(195,475,ls),
(184,387,o),
(176,308,o),
(165,229,cs),
(154,151,o),
(146,78,o),
(136,0,c)
);
},
{
closed = 1;
nodes = (
(1829,-307,l),
(1849,-232,o),
(1869,-159,o),
(1889,-84,cs),
(1909,-6,o),
(1930,70,o),
(1952,148,c),
(1627,148,l),
(1627,0,l),
(1810,0,l),
(1768,21,l),
(1684,-307,l)
);
}
);
width = 1997;
},
{
anchors = (
{
name = bottom;
position = "{954, 0}";
},
{
name = top;
position = "{954, 1426}";
}
);
layerId = "5BCA41AC-1A8A-4D79-8779-5300D22224AB";
shapes = (
{
closed = 1;
nodes = (
(228,0,l),
(264,299,o),
(296,557,o),
(324,792,cs),
(384,1288,l),
(390,1288,l),
(616,749,ls),
(668,624,o),
(724,491,o),
(780,359,cs),
(836,227,o),
(886,104,o),
(930,0,c),
(978,0,l),
(1026,113,o),
(1076,234,o),
(1132,363,cs),
(1188,492,o),
(1240,624,o),
(1296,753,cs),
(1522,1288,l),
(1528,1288,l),
(1588,792,ls),
(1616,557,o),
(1648,299,o),
(1684,0,c),
(1746,0,l),
(1737,81,o),
(1727,157,o),
(1718,234,cs),
(1709,311,o),
(1700,391,o),
(1689,476,cs),
(1633,947,ls),
(1622,1035,o),
(1613,1114,o),
(1604,1191,cs),
(1595,1267,o),
(1587,1342,o),
(1576,1426,c),
(1510,1426,l),
(1461,1309,o),
(1415,1199,o),
(1368,1086,cs),
(1321,973,o),
(1277,869,o),
(1230,756,cs),
(960,110,l),
(952,110,l),
(682,756,ls),
(590,976,o),
(501,1190,o),
(402,1426,c),
(338,1426,l),
(327,1342,o),
(320,1266,o),
(309,1189,cs),
(298,1112,o),
(289,1034,o),
(278,946,cs),
(220,481,ls),
(209,392,o),
(201,313,o),
(190,233,cs),
(179,153,o),
(171,80,o),
(160,0,c)
);
},
{
closed = 1;
nodes = (
(1810,-310,l),
(1829,-246,o),
(1847,-191,o),
(1866,-127,cs),
(1885,-63,o),
(1904,-3,o),
(1924,62,c),
(1689,62,l),
(1689,0,l),
(1861,0,l),
(1841,12,l),
(1749,-310,l)
);
}
);
width = 1988;
}
);
leftKerningGroup = uni041C_2;
rightKerningGroup = uni041C;
unicode = 1229;
},
{
glyphname = "EnLeftHook-cy";
layers = (
{
layerId = "6958D9FC-3AA0-42A5-A7C5-41542F6C8ADC";
shapes = (
{
closed = 1;
nodes = (
(408,-300,l),
(461,-253,o),
(505,-196,o),
(536,-120,cs),
(567,-44,o),
(584,49,o),
(584,162,cs),
(584,658,l),
(584,948,l),
(584,1426,l),
(92,1426,l),
(92,948,l),
(92,738,l),
(92,186,ls),
(92,101,o),
(83,19,o),
(63,-65,cs),
(43,-149,o),
(11,-224,o),
(-36,-300,c)
);
},
{
closed = 1;
nodes = (
(1042,512,l),
(1042,916,l),
(462,916,l),
(462,512,l)
);
},
{
closed = 1;
nodes = (
(1410,0,l),
(1410,458,l),
(1410,948,l),
(1410,1426,l),
(918,1426,l),
(918,948,l),
(918,458,l),
(918,0,l)
);
}
);
width = 1502;
},
{
layerId = "05F448A1-237D-4A5F-844D-77861616AAFF";
shapes = (
{
closed = 1;
nodes = (
(243,-305,l),
(291,-260,o),
(336,-205,o),
(369,-133,cs),
(401,-61,o),
(421,27,o),
(421,136,cs),
(421,599,l),
(421,950,l),
(421,1427,l),
(161,1427,l),
(161,950,l),
(161,636,l),
(161,155,ls),
(161,59,o),
(146,-21,o),
(118,-97,cs),
(89,-173,o),
(48,-237,o),
(-8,-305,c)
);
},
{
closed = 1;
nodes = (
(1161,611,l),
(1161,830,l),
(342,830,l),
(342,611,l)
);
},
{
closed = 1;
nodes = (
(1338,0,l),
(1338,468,l),
(1338,950,l),
(1338,1427,l),
(1078,1427,l),
(1078,950,l),
(1078,468,l),
(1078,0,l)
);
}
);
width = 1500;
},
{
layerId = "7735F29D-4F76-449E-8F41-87F6EE236855";
shapes = (
{
closed = 1;
nodes = (
(180,-307,l),
(227,-262,o),
(272,-208,o),
(306,-138,cs),
(339,-68,o),
(359,19,o),
(359,126,cs),
(359,576,l),
(359,950,l),
(359,1427,l),
(188,1427,l),
(188,950,l),
(188,597,l),
(188,143,ls),
(188,43,o),
(170,-37,o),
(139,-110,cs),
(107,-182,o),
(62,-242,o),
(3,-307,c)
);
},
{
closed = 1;
nodes = (
(1206,648,l),
(1206,797,l),
(297,797,l),
(297,648,l)
);
},
{
closed = 1;
nodes = (
(1311,0,l),
(1311,472,l),
(1311,950,l),
(1311,1427,l),
(1139,1427,l),
(1139,950,l),
(1139,472,l),
(1139,0,l)
);
}
);
width = 1499;
},
{
layerId = "5BCA41AC-1A8A-4D79-8779-5300D22224AB";
shapes = (
{
closed = 1;
nodes = (
(104,-310,l),
(149,-265,o),
(193,-212,o),
(228,-144,cs),
(263,-76,o),
(284,9,o),
(284,114,cs),
(284,548,l),
(284,950,l),
(284,1426,l),
(220,1426,l),
(220,950,l),
(220,550,l),
(220,128,ls),
(220,23,o),
(200,-57,o),
(165,-125,cs),
(129,-193,o),
(80,-249,o),
(16,-310,c)
);
},
{
closed = 1;
nodes = (
(1262,694,l),
(1262,756,l),
(242,756,l),
(242,694,l)
);
},
{
closed = 1;
nodes = (
(1278,0,l),
(1278,476,l),
(1278,950,l),
(1278,1426,l),
(1214,1426,l),
(1214,950,l),
(1214,476,l),
(1214,0,l)
);
}
);
width = 1498;
}
);
rightKerningGroup = uni0406;
unicode = 1320;
},
{
glyphname = "Endescender-cy";
layers = (
{
anchors = (
{
name = _bottomright;
position = "{1410, 0}";
},
{
name = bottom;
position = "{752, 0}";
},
{
name = center;
position = "{752, 714}";
},
{
name = top;
position = "{752, 1426}";
},
{
name = topleft;
position = "{80, 1426}";
}
);
layerId = "6958D9FC-3AA0-42A5-A7C5-41542F6C8ADC";
shapes = (
{
closed = 1;
nodes = (
(1410,0,l),
(1410,458,l),
(1410,948,l),
(1410,1426,l),
(918,1426,l),
(918,948,l),
(918,458,l),
(918,0,l)
);
},
{
closed = 1;
nodes = (
(584,0,l),
(584,458,l),
(584,948,l),
(584,1426,l),
(92,1426,l),
(92,948,l),
(92,458,l),
(92,0,l)
);
},
{
closed = 1;
nodes = (
(1044,512,l),
(1044,916,l),
(464,916,l),
(464,512,l)
);
},
{
closed = 1;
nodes = (
(1593,-300,l),
(1593,44,l),
(1593,404,l),
(1059,404,l),
(1059,0,l),
(1234,0,l),
(1159,76,l),
(1185,-300,l)
);
}
);
width = 1615;
},
{
anchors = (
{
name = _bottomright;
position = "{1352, 0}";
},
{
name = bottom;
position = "{751, 0}";
},
{
name = center;
position = "{751, 714}";
},
{
name = top;
position = "{751, 1426}";
},
{
name = topleft;
position = "{54, 1426}";
}
);
layerId = "05F448A1-237D-4A5F-844D-77861616AAFF";
shapes = (
{
closed = 1;
nodes = (
(1338,0,l),
(1338,468,l),
(1338,950,l),
(1338,1427,l),
(1078,1427,l),
(1078,950,l),
(1078,468,l),
(1078,0,l)
);
},
{
closed = 1;
nodes = (
(421,0,l),
(421,468,l),
(421,950,l),
(421,1427,l),
(161,1427,l),
(161,950,l),
(161,468,l),
(161,0,l)
);
},
{
closed = 1;
nodes = (
(1162,611,l),
(1162,830,l),
(343,830,l),
(343,611,l)
);
},
{
closed = 1;
nodes = (
(1522,-305,l),
(1522,-49,l),
(1522,219,l),
(1158,219,l),
(1158,0,l),
(1339,0,l),
(1288,41,l),
(1303,-305,l)
);
}
);
width = 1567;
},
{
anchors = (
{
name = _bottomright;
position = "{1311, 0}";
},
{
name = bottom;
position = "{751, 0}";
},
{
name = center;
position = "{751, 714}";
},
{
name = top;
position = "{751, 1426}";
},
{
name = topleft;
position = "{35, 1426}";
}
);
layerId = "7735F29D-4F76-449E-8F41-87F6EE236855";
shapes = (
{
closed = 1;
nodes = (
(1311,0,l),
(1311,472,l),
(1311,950,l),
(1311,1427,l),
(1139,1427,l),
(1139,950,l),
(1139,472,l),
(1139,0,l)
);
},
{
closed = 1;
nodes = (
(359,0,l),
(359,472,l),
(359,950,l),
(359,1427,l),
(188,1427,l),
(188,950,l),
(188,472,l),
(188,0,l)
);
},
{
closed = 1;
nodes = (
(1207,648,l),
(1207,797,l),
(298,797,l),
(298,648,l)
);
},
{
closed = 1;
nodes = (
(1495,-307,l),
(1495,-84,l),
(1495,148,l),
(1196,148,l),
(1196,0,l),
(1379,0,l),
(1337,28,l),
(1348,-307,l)
);
}
);
width = 1549;
},
{
anchors = (
{
name = _bottomright;
position = "{1278, 0}";
},
{
name = bottom;
position = "{750, 0}";
},
{
name = center;
position = "{750, 714}";
},
{
name = top;
position = "{750, 1426}";
},
{
name = topleft;
position = "{20, 1426}";
}
);
layerId = "5BCA41AC-1A8A-4D79-8779-5300D22224AB";
shapes = (
{
closed = 1;
nodes = (
(1278,0,l),
(1278,476,l),
(1278,950,l),
(1278,1426,l),
(1214,1426,l),
(1214,950,l),
(1214,476,l),
(1214,0,l)
);
},
{
closed = 1;
nodes = (
(284,0,l),
(284,476,l),
(284,950,l),
(284,1426,l),
(220,1426,l),
(220,950,l),
(220,476,l),
(220,0,l)
);
},
{
closed = 1;
nodes = (
(1262,694,l),
(1262,756,l),
(242,756,l),
(242,694,l)
);
},
{
closed = 1;
nodes = (
(1462,-310,l),
(1462,-127,l),
(1462,62,l),
(1242,62,l),
(1242,0,l),
(1428,0,l),
(1397,11,l),
(1402,-310,l)
);
}
);
width = 1527;
}
);
rightKerningGroup = uni0414;
unicode = 1186;
},
{
glyphname = Eng;
layers = (
{
layerId = "6958D9FC-3AA0-42A5-A7C5-41542F6C8ADC";
shapes = (
{
closed = 1;
nodes = (
(1224,-384,l),
(1277,-336,o),
(1321,-276,o),
(1352,-200,cs),
(1383,-123,o),
(1400,-29,o),
(1400,88,cs),
(1400,654,l),
(1400,948,l),
(1400,1426,l),
(942,1426,l),
(942,948,l),
(942,818,l),
(908,818,l),
(760,1046,ls),
(720,1110,o),
(682,1167,o),
(642,1228,cs),
(602,1289,o),
(561,1354,o),
(514,1426,c),
(92,1426,l),
(92,948,l),
(92,458,l),
(92,0,l),
(550,0,l),
(550,458,l),
(550,608,l),
(582,608,l),
(735,375,ls),
(782,303,o),
(824,240,o),
(865,179,cs),
(905,118,o),
(943,60,o),
(982,0,c),
(1062,0,l),
(908,216,l),
(908,102,ls),
(908,17,o),
(899,-65,o),
(879,-149,cs),
(859,-233,o),
(827,-308,o),
(780,-384,c)
);
}
);
width = 1492;
},
{
layerId = "05F448A1-237D-4A5F-844D-77861616AAFF";
shapes = (
{
closed = 1;
nodes = (
(1164,-384,l),
(1212,-337,o),
(1257,-281,o),
(1290,-209,cs),
(1322,-137,o),
(1342,-51,o),
(1342,62,cs),
(1342,558,l),
(1342,950,l),
(1342,1426,l),
(1097,1426,l),
(1097,950,l),
(1097,442,l),
(1077,442,l),
(809,825,ls),
(741,922,o),
(674,1017,o),
(606,1117,cs),
(537,1217,o),
(466,1318,o),
(390,1426,c),
(161,1426,l),
(161,950,l),
(161,468,l),
(161,0,l),
(405,0,l),
(405,468,l),
(405,989,l),
(424,989,l),
(695,602,ls),
(776,485,o),
(851,382,o),
(920,282,cs),
(988,182,o),
(1052,92,o),
(1116,0,c),
(1171,0,l),
(1082,135,l),
(1082,76,ls),
(1082,-20,o),
(1067,-100,o),
(1039,-176,cs),
(1010,-252,o),
(969,-316,o),
(913,-384,c)
);
}
);
width = 1504;
},
{
layerId = "7735F29D-4F76-449E-8F41-87F6EE236855";
shapes = (
{
closed = 1;
nodes = (
(1142,-384,l),
(1188,-338,o),
(1233,-283,o),
(1267,-213,cs),
(1300,-143,o),
(1320,-59,o),
(1320,52,cs),
(1320,521,l),
(1320,950,l),
(1320,1426,l),
(1157,1426,l),
(1157,950,l),
(1157,299,l),
(1142,299,l),
(828,741,ls),
(750,852,o),
(673,960,o),
(593,1075,cs),
(511,1190,o),
(430,1303,o),
(343,1426,c),
(188,1426,l),
(188,950,l),
(188,472,l),
(188,0,l),
(351,0,l),
(351,472,l),
(351,1133,l),
(365,1133,l),
(680,688,ls),
(776,553,o),
(861,435,o),
(941,320,cs),
(1020,205,o),
(1094,103,o),
(1167,0,c),
(1213,0,l),
(1149,104,l),
(1149,66,ls),
(1149,-35,o),
(1131,-114,o),
(1100,-186,cs),
(1068,-259,o),
(1023,-319,o),
(964,-384,c)
);
}
);
width = 1509;
},
{
layerId = "5BCA41AC-1A8A-4D79-8779-5300D22224AB";
shapes = (
{
closed = 1;
nodes = (
(1114,-384,l),
(1159,-339,o),
(1203,-286,o),
(1238,-218,cs),
(1273,-150,o),
(1294,-68,o),
(1294,40,cs),
(1294,476,l),
(1294,950,l),
(1294,1426,l),
(1230,1426,l),
(1230,950,l),
(1230,124,l),
(1222,124,l),
(852,638,ls),
(760,767,o),
(672,890,o),
(576,1023,cs),
(480,1156,o),
(386,1285,o),
(286,1426,c),
(220,1426,l),
(220,950,l),
(220,476,l),
(220,0,l),
(284,0,l),
(284,476,l),
(284,1310,l),
(292,1310,l),
(662,793,ls),
(775,636,o),
(874,500,o),
(967,367,cs),
(1060,234,o),
(1146,117,o),
(1230,0,c),
(1264,0,l),
(1230,66,l),
(1230,54,ls),
(1230,-54,o),
(1210,-131,o),
(1175,-199,cs),
(1139,-267,o),
(1090,-323,o),
(1026,-384,c)
);
}
);
width = 1514;
}
);
leftKerningGroup = B;
rightKerningGroup = H;
unicode = 330;
},
{
glyphname = "Enghe-cy";
layers = (
{
layerId = "6958D9FC-3AA0-42A5-A7C5-41542F6C8ADC";
shapes = (
{
closed = 1;
nodes = (
(1400,0,l),
(1400,458,l),
(1400,868,l),
(1400,1346,l),
(1198,1002,l),
(1442,1002,l),
(1936,1002,l),
(1936,1426,l),
(908,1426,l),
(908,948,l),
(908,458,l),
(908,0,l)
);
},
{
closed = 1;
nodes = (
(584,0,l),
(584,458,l),
(584,948,l),
(584,1426,l),
(92,1426,l),
(92,948,l),
(92,458,l),
(92,0,l)
);
},
{
closed = 1;
nodes = (
(1034,512,l),
(1034,916,l),
(464,916,l),
(464,512,l)
);
}
);
width = 1996;
},
{
layerId = "05F448A1-237D-4A5F-844D-77861616AAFF";
shapes = (
{
closed = 1;
nodes = (
(1310,0,l),
(1310,468,l),
(1310,910,l),
(1310,1386,l),
(1200,1198,l),
(1454,1198,l),
(1959,1198,l),
(1959,1426,l),
(1050,1426,l),
(1050,950,l),
(1050,468,l),
(1050,0,l)
);
},
{
closed = 1;
nodes = (
(421,0,l),
(421,468,l),
(421,950,l),
(421,1426,l),
(161,1426,l),
(161,950,l),
(161,468,l),
(161,0,l)
);
},
{
closed = 1;
nodes = (
(1134,611,l),
(1134,830,l),
(343,830,l),
(343,611,l)
);
}
);
width = 2032;
},
{
layerId = "7735F29D-4F76-449E-8F41-87F6EE236855";
shapes = (
{
closed = 1;
nodes = (
(1276,0,l),
(1276,472,l),
(1276,925,l),
(1276,1401,l),
(1201,1273,l),
(1459,1273,l),
(1968,1273,l),
(1968,1426,l),
(1104,1426,l),
(1104,950,l),
(1104,472,l),
(1104,0,l)
);
},
{
closed = 1;
nodes = (
(359,0,l),
(359,472,l),
(359,950,l),
(359,1426,l),
(188,1426,l),
(188,950,l),
(188,472,l),
(188,0,l)
);
},
{
closed = 1;
nodes = (
(1172,648,l),
(1172,797,l),
(298,797,l),
(298,648,l)
);
}
);
width = 2046;
},
{
layerId = "5BCA41AC-1A8A-4D79-8779-5300D22224AB";
shapes = (
{
closed = 1;
nodes = (
(1234,0,l),
(1234,476,l),
(1234,944,l),
(1234,1420,l),
(1202,1364,l),
(1464,1364,l),
(1978,1364,l),
(1978,1426,l),
(1170,1426,l),
(1170,950,l),
(1170,476,l),
(1170,0,l)
);
},
{
closed = 1;
nodes = (
(284,0,l),
(284,476,l),
(284,950,l),
(284,1426,l),
(220,1426,l),
(220,950,l),
(220,476,l),
(220,0,l)
);
},
{
closed = 1;
nodes = (
(1218,694,l),
(1218,756,l),
(242,756,l),
(242,694,l)
);
}
);
width = 2062;
}
);
rightKerningGroup = uni0403;
unicode = 1188;
},
{
glyphname = "Enhook-cy";
layers = (
{
layerId = "6958D9FC-3AA0-42A5-A7C5-41542F6C8ADC";
shapes = (
{
closed = 1;
nodes = (
(1234,-300,l),
(1287,-253,o),
(1331,-196,o),
(1362,-120,cs),
(1393,-44,o),
(1410,49,o),
(1410,162,cs),
(1410,738,l),
(1410,948,l),
(1410,1426,l),
(918,1426,l),
(918,948,l),
(918,738,l),
(918,186,ls),
(918,101,o),
(909,19,o),
(889,-65,cs),
(869,-149,o),
(837,-224,o),
(790,-300,c)
);
},
{
closed = 1;
nodes = (
(584,0,l),
(584,458,l),
(584,948,l),
(584,1426,l),
(92,1426,l),
(92,948,l),
(92,458,l),
(92,0,l)
);
},
{
closed = 1;
nodes = (
(1044,512,l),
(1044,916,l),
(464,916,l),
(464,512,l)
);
}
);
width = 1502;
},
{
layerId = "05F448A1-237D-4A5F-844D-77861616AAFF";
shapes = (
{
closed = 1;
nodes = (
(1160,-305,l),
(1208,-260,o),
(1253,-205,o),
(1286,-133,cs),
(1318,-61,o),
(1338,27,o),
(1338,136,cs),
(1338,635,l),
(1338,950,l),
(1338,1427,l),
(1078,1427,l),
(1078,950,l),
(1078,636,l),
(1078,155,ls),
(1078,59,o),
(1063,-21,o),
(1035,-97,cs),
(1006,-173,o),
(965,-237,o),
(909,-305,c)
);
},
{
closed = 1;
nodes = (
(421,0,l),
(421,468,l),
(421,950,l),
(421,1427,l),
(161,1427,l),
(161,950,l),
(161,468,l),
(161,0,l)
);
},
{
closed = 1;
nodes = (
(1162,611,l),
(1162,830,l),
(343,830,l),
(343,611,l)
);
}
);
width = 1500;
},
{
layerId = "7735F29D-4F76-449E-8F41-87F6EE236855";
shapes = (
{
closed = 1;
nodes = (
(1132,-307,l),
(1179,-262,o),
(1223,-208,o),
(1257,-138,cs),
(1291,-68,o),
(1311,19,o),
(1311,126,cs),
(1311,596,l),
(1311,950,l),
(1311,1427,l),
(1139,1427,l),
(1139,950,l),
(1139,597,l),
(1139,143,ls),
(1139,43,o),
(1122,-37,o),
(1091,-110,cs),
(1059,-182,o),
(1014,-242,o),
(954,-307,c)
);
},
{
closed = 1;
nodes = (
(359,0,l),
(359,472,l),
(359,950,l),
(359,1427,l),
(188,1427,l),
(188,950,l),
(188,472,l),
(188,0,l)
);
},
{
closed = 1;
nodes = (
(1207,648,l),
(1207,797,l),
(298,797,l),
(298,648,l)
);
}
);
width = 1499;
},
{
layerId = "5BCA41AC-1A8A-4D79-8779-5300D22224AB";
shapes = (
{
closed = 1;
nodes = (
(1098,-310,l),
(1143,-265,o),
(1187,-212,o),
(1222,-144,cs),
(1257,-76,o),
(1278,9,o),
(1278,114,cs),
(1278,548,l),
(1278,950,l),
(1278,1426,l),
(1214,1426,l),
(1214,950,l),
(1214,550,l),
(1214,128,ls),
(1214,23,o),
(1194,-57,o),
(1159,-125,cs),
(1123,-193,o),
(1074,-249,o),
(1010,-310,c)
);
},
{
closed = 1;
nodes = (
(284,0,l),
(284,476,l),
(284,950,l),
(284,1426,l),
(220,1426,l),
(220,950,l),
(220,476,l),
(220,0,l)
);
},
{
closed = 1;
nodes = (
(1262,694,l),
(1262,756,l),
(242,756,l),
(242,694,l)
);
}
);
width = 1498;
}
);
rightKerningGroup = uni0406;
unicode = 1223;
},
{
glyphname = "Entail-cy";
layers = (
{
anchors = (
{
name = bottom;
position = "{752, 0}";
},
{
name = center;
position = "{752, 714}";
},
{
name = top;
position = "{752, 1426}";
},
{
name = topleft;
position = "{80, 1426}";
}
);
layerId = "6958D9FC-3AA0-42A5-A7C5-41542F6C8ADC";
shapes = (
{
closed = 1;
nodes = (
(1410,0,l),
(1410,458,l),
(1410,948,l),
(1410,1426,l),
(918,1426,l),
(918,948,l),
(918,458,l),
(918,0,l)
);
},
{
closed = 1;
nodes = (
(584,0,l),
(584,458,l),
(584,948,l),
(584,1426,l),
(92,1426,l),
(92,948,l),
(92,458,l),
(92,0,l)
);
},
{
closed = 1;
nodes = (
(1044,512,l),
(1044,916,l),
(464,916,l),
(464,512,l)
);
},
{
closed = 1;
nodes = (
(1471,-300,l),
(1495,-187,o),
(1521,-67,o),
(1545,46,cs),
(1569,163,o),
(1596,283,o),
(1621,404,c),
(1032,404,l),
(1032,0,l),
(1247,0,l),
(1137,49,l),
(1077,-300,l)
);
}
);
width = 1611;
},
{
anchors = (
{
name = bottom;
position = "{751, 0}";
},
{
name = center;
position = "{751, 714}";
},
{
name = top;
position = "{751, 1426}";
},
{
name = topleft;
position = "{54, 1426}";
}
);
layerId = "05F448A1-237D-4A5F-844D-77861616AAFF";
shapes = (
{
closed = 1;
nodes = (
(1338,0,l),
(1338,468,l),
(1338,950,l),
(1338,1427,l),
(1078,1427,l),
(1078,950,l),
(1078,468,l),
(1078,0,l)
);
},
{
closed = 1;
nodes = (
(421,0,l),
(421,468,l),
(421,950,l),
(421,1427,l),
(161,1427,l),
(161,950,l),
(161,468,l),
(161,0,l)
);
},
{
closed = 1;
nodes = (
(1162,611,l),
(1162,830,l),
(343,830,l),
(343,611,l)
);
},
{
closed = 1;
nodes = (
(1405,-305,l),
(1426,-221,o),
(1448,-133,o),
(1469,-48,cs),
(1490,40,o),
(1512,130,o),
(1535,219,c),
(1138,219,l),
(1138,0,l),
(1330,0,l),
(1269,29,l),
(1191,-305,l)
);
}
);
width = 1565;
},
{
anchors = (
{
name = bottom;
position = "{751, 0}";
},
{
name = center;
position = "{751, 714}";
},
{
name = top;
position = "{751, 1426}";
},
{
name = topleft;
position = "{35, 1426}";
}
);
layerId = "7735F29D-4F76-449E-8F41-87F6EE236855";
shapes = (
{
closed = 1;
nodes = (
(1311,0,l),
(1311,472,l),
(1311,950,l),
(1311,1427,l),
(1139,1427,l),
(1139,950,l),
(1139,472,l),
(1139,0,l)
);
},
{
closed = 1;
nodes = (
(359,0,l),
(359,472,l),
(359,950,l),
(359,1427,l),
(188,1427,l),
(188,950,l),
(188,472,l),
(188,0,l)
);
},
{
closed = 1;
nodes = (
(1207,648,l),
(1207,797,l),
(298,797,l),
(298,648,l)
);
},
{
closed = 1;
nodes = (
(1380,-307,l),
(1400,-232,o),
(1420,-159,o),
(1440,-84,cs),
(1460,-6,o),
(1481,70,o),
(1503,148,c),
(1179,148,l),
(1179,0,l),
(1362,0,l),
(1319,21,l),
(1235,-307,l)
);
}
);
width = 1548;
},
{
anchors = (
{
name = bottom;
position = "{750, 0}";
},
{
name = center;
position = "{750, 714}";
},
{
name = top;
position = "{750, 1426}";
},
{
name = topleft;
position = "{20, 1426}";
}
);
layerId = "5BCA41AC-1A8A-4D79-8779-5300D22224AB";
shapes = (
{
closed = 1;
nodes = (
(1278,0,l),
(1278,476,l),
(1278,950,l),
(1278,1426,l),
(1214,1426,l),
(1214,950,l),
(1214,476,l),
(1214,0,l)
);
},
{
closed = 1;
nodes = (
(284,0,l),
(284,476,l),
(284,950,l),
(284,1426,l),
(220,1426,l),
(220,950,l),
(220,476,l),
(220,0,l)
);
},
{
closed = 1;
nodes = (
(1262,694,l),
(1262,756,l),
(242,756,l),
(242,694,l)
);
},
{
closed = 1;
nodes = (
(1349,-310,l),
(1368,-246,o),
(1386,-191,o),
(1405,-127,cs),
(1424,-63,o),
(1443,-3,o),
(1463,62,c),
(1228,62,l),
(1228,0,l),
(1400,0,l),
(1380,12,l),
(1288,-310,l)
);
}
);
width = 1527;
}
);
rightKerningGroup = uni0414;
unicode = 1225;
},
{
glyphname = "Ereversed-cy";
layers = (
{
anchors = (
{
name = top;
position = "{639, 1426}";
}
);
layerId = "6958D9FC-3AA0-42A5-A7C5-41542F6C8ADC";
shapes = (
{
closed = 1;
nodes = (
(805,-32,o),
(996,37,o),
(1129,166,cs),
(1262,295,o),
(1332,476,o),
(1332,708,cs),
(1332,924,o),
(1271,1107,o),
(1146,1243,cs),
(1021,1379,o),
(835,1458,o),
(580,1458,cs),
(483,1458,o),
(388,1449,o),
(300,1430,cs),
(212,1411,o),
(135,1387,o),
(74,1356,c),
(108,924,l),
(265,1020,o),
(398,1059,o),
(527,1059,cs),
(615,1059,o),
(693,1045,o),
(749,1006,cs),
(805,966,o),
(840,901,o),
(840,800,cs),
(840,630,ls),
(840,538,o),
(820,471,o),
(764,424,cs),
(708,377,o),
(623,354,o),
(486,354,cs),
(357,354,o),
(233,384,o),
(102,480,c),
(80,50,l),
(140,22,o),
(209,1,o),
(293,-12,cs),
(377,-25,o),
(464,-32,o),
(556,-32,cs)
);
},
{
closed = 1;
nodes = (
(306,545,l),
(688,545,l),
(922,545,l),
(922,871,l),
(688,871,l),
(306,871,l)
);
}
);
width = 1380;
},
{
anchors = (
{
name = top;
position = "{653, 1426}";
}
);
layerId = "05F448A1-237D-4A5F-844D-77861616AAFF";
shapes = (
{
closed = 1;
nodes = (
(788,-24,o),
(970,51,o),
(1098,183,cs),
(1226,315,o),
(1289,494,o),
(1289,713,cs),
(1289,932,o),
(1225,1113,o),
(1100,1246,cs),
(975,1379,o),
(803,1454,o),
(578,1454,cs),
(482,1454,o),
(388,1440,o),
(304,1419,cs),
(220,1398,o),
(147,1370,o),
(95,1342,c),
(116,1100,l),
(273,1192,o),
(418,1230,o),
(555,1230,cs),
(692,1230,o),
(811,1188,o),
(895,1108,cs),
(979,1027,o),
(1028,909,o),
(1028,756,cs),
(1028,677,ls),
(1028,536,o),
(992,419,o),
(908,331,cs),
(824,243,o),
(701,193,o),
(517,193,cs),
(380,193,o),
(244,225,o),
(119,314,c),
(103,74,l),
(160,41,o),
(230,16,o),
(306,-1,cs),
(382,-17,o),
(463,-24,o),
(547,-24,cs)
);
},
{
closed = 1;
nodes = (
(356,613,l),
(776,613,l),
(1078,613,l),
(1078,823,l),
(775,823,l),
(356,823,l)
);
}
);
width = 1376;
},
{
anchors = (
{
name = top;
position = "{659, 1426}";
}
);
layerId = "7735F29D-4F76-449E-8F41-87F6EE236855";
shapes = (
{
closed = 1;
nodes = (
(782,-21,o),
(961,56,o),
(1085,189,cs),
(1210,321,o),
(1272,501,o),
(1272,715,cs),
(1272,935,o),
(1206,1115,o),
(1082,1246,cs),
(959,1378,o),
(790,1452,o),
(577,1452,cs),
(481,1452,o),
(388,1437,o),
(305,1415,cs),
(223,1393,o),
(152,1364,o),
(103,1337,c),
(119,1172,l),
(276,1262,o),
(425,1299,o),
(565,1299,cs),
(723,1299,o),
(856,1247,o),
(950,1150,cs),
(1045,1053,o),
(1099,915,o),
(1099,739,cs),
(1099,695,ls),
(1099,532,o),
(1056,395,o),
(963,292,cs),
(869,189,o),
(730,128,o),
(529,128,cs),
(388,128,o),
(249,160,o),
(126,247,c),
(112,83,l),
(168,47,o),
(237,21,o),
(311,4,cs),
(385,-14,o),
(463,-21,o),
(543,-21,cs)
);
},
{
closed = 1;
nodes = (
(375,649,l),
(810,649,l),
(1137,649,l),
(1137,793,l),
(808,793,l),
(375,793,l)
);
}
);
width = 1374;
},
{
anchors = (
{
name = top;
position = "{664, 1426}";
}
);
layerId = "5BCA41AC-1A8A-4D79-8779-5300D22224AB";
shapes = (
{
closed = 1;
nodes = (
(774,-18,o),
(949,63,o),
(1070,196,cs),
(1191,329,o),
(1252,510,o),
(1252,718,cs),
(1252,938,o),
(1182,1118,o),
(1061,1247,cs),
(940,1376,o),
(775,1450,o),
(576,1450,cs),
(480,1450,o),
(387,1433,o),
(307,1410,cs),
(226,1386,o),
(159,1357,o),
(112,1330,c),
(122,1260,l),
(279,1348,o),
(433,1384,o),
(578,1384,cs),
(761,1384,o),
(910,1319,o),
(1018,1202,cs),
(1126,1085,o),
(1186,922,o),
(1186,718,cs),
(1186,716,ls),
(1186,528,o),
(1135,365,o),
(1030,244,cs),
(925,123,o),
(766,48,o),
(543,48,cs),
(398,48,o),
(254,80,o),
(134,164,c),
(122,94,l),
(178,55,o),
(245,28,o),
(317,9,cs),
(389,-10,o),
(463,-18,o),
(539,-18,cs)
);
},
{
closed = 1;
nodes = (
(399,694,l),
(851,694,l),
(1209,694,l),
(1209,756,l),
(849,756,l),
(399,756,l)
);
}
);
width = 1372;
}
);
leftKerningGroup = uni0417;
rightKerningGroup = uni041E;
unicode = 1069;
},
{
glyphname = "Ertick-cy";
layers = (
{
layerId = "6958D9FC-3AA0-42A5-A7C5-41542F6C8ADC";
shapes = (
{
closed = 1;
nodes = (
(574,0,l),
(574,458,l),
(574,868,l),
(574,1346,l),
(346,1076,l),
(715,1076,ls),
(727,1076,o),
(737,1075,o),
(748,1072,c),
(768,1065,o),
(785,1055,o),
(798,1036,cs),
(805,1027,o),
(810,1016,o),
(815,1004,c),
(823,980,o),
(828,950,o),
(828,914,cs),
(828,858,o),
(819,819,o),
(799,792,cs),
(779,764,o),
(747,750,o),
(702,750,cs),
(516,750,l),
(516,426,l),
(810,426,ls),
(982,426,o),
(1106,476,o),
(1187,564,cs),
(1268,652,o),
(1306,779,o),
(1306,932,cs),
(1306,1127,o),
(1256,1249,o),
(1160,1325,cs),
(1064,1401,o),
(924,1426,o),
(736,1426,cs),
(92,1426,l),
(92,948,l),
(92,458,l),
(92,0,l)
);
},
{
closed = 1;
nodes = (
(1263,373,l),
(1191,454,o),
(1132,525,o),
(1076,589,c),
(914,740,l),
(858,805,o),
(797,874,o),
(725,958,c),
(614,855,l),
(686,774,o),
(747,702,o),
(803,638,c),
(901,436,l),
(957,372,o),
(1018,300,o),
(1090,219,c)
);
}
);
width = 1346;
},
{
layerId = "05F448A1-237D-4A5F-844D-77861616AAFF";
shapes = (
{
closed = 1;
nodes = (
(417,0,l),
(417,468,l),
(417,910,l),
(417,1386,l),
(291,1216,l),
(683,1216,ls),
(703,1216,o),
(723,1216,o),
(744,1213,c),
(784,1209,o),
(822,1198,o),
(857,1178,c),
(874,1167,o),
(888,1154,o),
(901,1138,c),
(925,1105,o),
(941,1059,o),
(941,994,cs),
(941,905,o),
(922,837,o),
(878,793,cs),
(833,749,o),
(763,727,o),
(655,727,cs),
(383,727,l),
(383,532,l),
(691,532,ls),
(882,532,o),
(1010,582,o),
(1091,663,c),
(1171,747,o),
(1205,859,o),
(1205,996,cs),
(1205,1151,o),
(1163,1259,o),
(1079,1328,cs),
(995,1396,o),
(872,1426,o),
(701,1426,cs),
(161,1426,l),
(161,950,l),
(161,468,l),
(161,0,l)
);
},
{
closed = 1;
nodes = (
(1180,411,l),
(1108,495,o),
(1050,565,o),
(994,629,c),
(874,753,l),
(818,821,o),
(759,888,o),
(687,972,c),
(572,865,l),
(644,784,o),
(703,711,o),
(759,647,cs),
(869,519,ls),
(925,455,o),
(984,385,o),
(1056,301,c)
);
}
);
width = 1278;
},
{
layerId = "7735F29D-4F76-449E-8F41-87F6EE236855";
shapes = (
{
closed = 1;
nodes = (
(357,0,l),
(357,472,l),
(357,925,l),
(357,1401,l),
(273,1283,l),
(676,1283,ls),
(699,1283,o),
(723,1282,o),
(748,1280,cs),
(797,1276,o),
(844,1264,o),
(886,1241,cs),
(908,1229,o),
(925,1213,o),
(941,1194,cs),
(972,1155,o),
(992,1100,o),
(992,1019,cs),
(992,910,o),
(966,833,o),
(907,781,cs),
(848,730,o),
(758,707,o),
(626,707,cs),
(334,707,l),
(334,573,l),
(646,573,ls),
(844,573,o),
(974,621,o),
(1055,700,c),
(1135,780,o),
(1167,891,o),
(1167,1020,cs),
(1167,1161,o),
(1129,1262,o),
(1049,1329,cs),
(968,1395,o),
(853,1426,o),
(688,1426,cs),
(188,1426,l),
(188,950,l),
(188,472,l),
(188,0,l)
);
},
{
closed = 1;
nodes = (
(1148,426,l),
(1077,510,o),
(1018,580,o),
(963,644,c),
(859,758,l),
(803,825,o),
(743,893,o),
(673,977,c),
(589,902,l),
(660,820,o),
(719,747,o),
(775,683,c),
(874,568,ls),
(928,504,o),
(989,433,o),
(1060,349,c)
);
}
);
width = 1252;
},
{
layerId = "5BCA41AC-1A8A-4D79-8779-5300D22224AB";
shapes = (
{
closed = 1;
nodes = (
(284,0,l),
(284,476,l),
(284,944,l),
(284,1420,l),
(252,1364,l),
(668,1364,ls),
(695,1364,o),
(724,1363,o),
(753,1362,c),
(813,1358,o),
(870,1345,o),
(922,1318,c),
(949,1305,o),
(971,1286,o),
(990,1263,cs),
(1029,1216,o),
(1054,1150,o),
(1054,1050,cs),
(1054,917,o),
(1019,827,o),
(943,767,cs),
(867,707,o),
(751,682,o),
(590,682,cs),
(274,682,l),
(274,622,l),
(592,622,ls),
(797,622,o),
(929,668,o),
(1010,745,cs),
(1090,821,o),
(1120,929,o),
(1120,1050,cs),
(1120,1173,o),
(1087,1266,o),
(1012,1330,cs),
(936,1394,o),
(829,1426,o),
(672,1426,cs),
(220,1426,l),
(220,950,l),
(220,476,l),
(220,0,l)
);
},
{
closed = 1;
nodes = (
(1109,444,l),
(1040,528,o),
(978,599,o),
(925,663,cs),
(840,764,ls),
(784,829,o),
(724,900,o),
(655,984,c),
(610,948,l),
(679,864,o),
(739,792,o),
(795,728,c),
(879,628,ls),
(932,564,o),
(995,492,o),
(1064,408,c)
);
}
);
width = 1220;
}
);
rightKerningGroup = uni0420;
unicode = 1166;
},
{
glyphname = "Esdescender-cy";
layers = (
{
anchors = (
{
name = top;
position = "{786, 1426}";
}
);
layerId = "6958D9FC-3AA0-42A5-A7C5-41542F6C8ADC";
shapes = (
{
closed = 1;
nodes = (
(908,-32,o),
(994,-25,o),
(1074,-12,cs),
(1154,1,o),
(1227,22,o),
(1284,50,c),
(1262,494,l),
(1133,394,o),
(1008,364,o),
(896,364,cs),
(779,364,o),
(697,405,o),
(641,469,cs),
(585,533,o),
(560,618,o),
(560,710,cs),
(560,827,o),
(591,910,o),
(647,966,cs),
(703,1022,o),
(775,1048,o),
(860,1048,cs),
(968,1048,o),
(1099,1010,o),
(1256,906,c),
(1290,1356,l),
(1229,1387,o),
(1151,1411,o),
(1066,1430,cs),
(981,1449,o),
(889,1458,o),
(800,1458,cs),
(551,1458,o),
(367,1379,o),
(239,1243,cs),
(111,1107,o),
(48,924,o),
(48,708,cs),
(48,476,o),
(122,295,o),
(258,166,cs),
(394,37,o),
(584,-32,o),
(824,-32,cs)
);
},
{
closed = 1;
nodes = (
(990,-300,l),
(993,-175,o),
(997,-51,o),
(1000,74,c),
(572,74,l),
(575,-51,o),
(579,-175,o),
(582,-300,c)
);
}
);
width = 1364;
},
{
anchors = (
{
name = top;
position = "{784, 1426}";
}
);
layerId = "05F448A1-237D-4A5F-844D-77861616AAFF";
shapes = (
{
closed = 1;
nodes = (
(909,-24,o),
(987,-17,o),
(1063,-1,cs),
(1139,16,o),
(1208,41,o),
(1265,74,c),
(1249,315,l),
(1124,224,o),
(989,193,o),
(860,193,cs),
(689,193,o),
(567,251,o),
(483,347,cs),
(399,443,o),
(357,572,o),
(357,713,cs),
(357,878,o),
(406,1005,o),
(490,1094,cs),
(574,1182,o),
(692,1230,o),
(829,1230,cs),
(958,1230,o),
(1095,1194,o),
(1252,1098,c),
(1273,1342,l),
(1221,1370,o),
(1149,1398,o),
(1069,1419,cs),
(988,1440,o),
(896,1454,o),
(803,1454,cs),
(580,1454,o),
(405,1379,o),
(280,1246,cs),
(155,1113,o),
(87,932,o),
(87,713,cs),
(87,494,o),
(157,315,o),
(286,183,cs),
(415,51,o),
(597,-24,o),
(829,-24,cs)
);
},
{
closed = 1;
nodes = (
(904,-306,l),
(907,-189,o),
(908,-78,o),
(911,39,c),
(679,39,l),
(682,-78,o),
(683,-189,o),
(686,-306,c)
);
}
);
width = 1368;
},
{
anchors = (
{
name = top;
position = "{783, 1426}";
}
);
layerId = "7735F29D-4F76-449E-8F41-87F6EE236855";
shapes = (
{
closed = 1;
nodes = (
(909,-21,o),
(986,-14,o),
(1060,4,cs),
(1134,21,o),
(1202,47,o),
(1258,83,c),
(1244,247,l),
(1121,159,o),
(982,128,o),
(847,128,cs),
(657,128,o),
(518,193,o),
(423,301,cs),
(328,408,o),
(280,552,o),
(280,714,cs),
(280,897,o),
(336,1041,o),
(431,1143,cs),
(526,1244,o),
(660,1299,o),
(818,1299,cs),
(954,1299,o),
(1094,1263,o),
(1251,1171,c),
(1267,1337,l),
(1218,1364,o),
(1150,1393,o),
(1070,1415,cs),
(989,1437,o),
(899,1452,o),
(804,1452,cs),
(592,1452,o),
(421,1378,o),
(296,1246,cs),
(171,1115,o),
(102,935,o),
(102,715,cs),
(102,501,o),
(170,321,o),
(297,189,cs),
(424,56,o),
(603,-21,o),
(831,-21,cs)
);
},
{
closed = 1;
nodes = (
(871,-308,l),
(874,-195,o),
(874,-87,o),
(877,26,c),
(720,26,l),
(723,-87,o),
(723,-195,o),
(726,-308,c)
);
}
);
width = 1370;
},
{
anchors = (
{
name = top;
position = "{782, 1426}";
}
);
layerId = "5BCA41AC-1A8A-4D79-8779-5300D22224AB";
shapes = (
{
closed = 1;
nodes = (
(910,-18,o),
(984,-10,o),
(1056,9,cs),
(1128,28,o),
(1194,55,o),
(1250,94,c),
(1238,164,l),
(1118,80,o),
(974,48,o),
(830,48,cs),
(617,48,o),
(458,123,o),
(350,244,cs),
(242,365,o),
(186,528,o),
(186,716,cs),
(186,921,o),
(250,1085,o),
(359,1202,cs),
(468,1319,o),
(620,1384,o),
(804,1384,cs),
(949,1384,o),
(1093,1348,o),
(1250,1260,c),
(1260,1330,l),
(1215,1357,o),
(1151,1386,o),
(1071,1410,cs),
(991,1433,o),
(902,1450,o),
(806,1450,cs),
(607,1450,o),
(441,1376,o),
(316,1247,cs),
(191,1118,o),
(120,938,o),
(120,718,cs),
(120,510,o),
(186,329,o),
(311,196,cs),
(436,63,o),
(610,-18,o),
(834,-18,cs)
);
},
{
closed = 1;
nodes = (
(831,-311,l),
(834,-203,o),
(833,-99,o),
(836,9,c),
(770,9,l),
(773,-99,o),
(772,-203,o),
(775,-311,c)
);
}
);
width = 1372;
}
);
leftKerningGroup = uni0404_2;
rightKerningGroup = uni0404;
unicode = 1194;
},
{
glyphname = "Esdescender-cy.loclBSH";
layers = (
{
anchors = (
{
name = top;
position = "{786, 1426}";
}
);
layerId = "6958D9FC-3AA0-42A5-A7C5-41542F6C8ADC";
shapes = (
{
closed = 1;
nodes = (
(908,-32,o),
(994,-25,o),
(1074,-12,cs),
(1154,1,o),
(1227,22,o),
(1284,50,c),
(1262,494,l),
(1133,394,o),
(1008,364,o),
(896,364,cs),
(779,364,o),
(697,405,o),
(641,469,cs),
(585,533,o),
(560,618,o),
(560,710,cs),
(560,827,o),
(591,910,o),
(647,966,cs),
(703,1022,o),
(775,1048,o),
(860,1048,cs),
(968,1048,o),
(1099,1010,o),
(1256,906,c),
(1290,1356,l),
(1229,1387,o),
(1151,1411,o),
(1066,1430,cs),
(981,1449,o),
(889,1458,o),
(800,1458,cs),
(551,1458,o),
(367,1379,o),
(239,1243,cs),
(111,1107,o),
(48,924,o),
(48,708,cs),
(48,476,o),
(122,295,o),
(258,166,cs),
(394,37,o),
(584,-32,o),
(824,-32,cs)
);
},
{
closed = 1;
nodes = (
(869,-456,o),
(949,-434,o),
(1001,-398,cs),
(1053,-362,o),
(1074,-312,o),
(1074,-256,cs),
(1074,-196,o),
(1054,-150,o),
(1023,-111,cs),
(992,-72,o),
(953,-46,o),
(914,-30,c),
(914,54,l),
(692,82,l),
(612,10,l),
(656,-9,o),
(693,-30,o),
(720,-55,cs),
(747,-79,o),
(760,-107,o),
(760,-136,cs),
(760,-176,o),
(730,-198,o),
(670,-198,cs),
(635,-198,o),
(611,-190,o),
(596,-186,c),
(596,-436,l),
(627,-448,o),
(684,-456,o),
(748,-456,cs)
);
}
);
width = 1364;
},
{
anchors = (
{
name = top;
position = "{784, 1426}";
}
);
layerId = "05F448A1-237D-4A5F-844D-77861616AAFF";
shapes = (
{
closed = 1;
nodes = (
(909,-24,o),
(987,-17,o),
(1063,-1,cs),
(1139,16,o),
(1208,41,o),
(1265,74,c),
(1249,315,l),
(1124,224,o),
(989,193,o),
(860,193,cs),
(689,193,o),
(567,251,o),
(483,347,cs),
(399,443,o),
(357,572,o),
(357,713,cs),
(357,878,o),
(406,1005,o),
(490,1094,cs),
(574,1182,o),
(692,1230,o),
(829,1230,cs),
(958,1230,o),
(1095,1194,o),
(1252,1098,c),
(1273,1342,l),
(1221,1370,o),
(1149,1398,o),
(1069,1419,cs),
(988,1440,o),
(896,1454,o),
(803,1454,cs),
(580,1454,o),
(405,1379,o),
(280,1246,cs),
(155,1113,o),
(87,932,o),
(87,713,cs),
(87,494,o),
(157,315,o),
(286,183,cs),
(415,51,o),
(597,-24,o),
(829,-24,cs)
);
},
{
closed = 1;
nodes = (
(855,-426,o),
(916,-409,o),
(956,-378,cs),
(996,-346,o),
(1016,-302,o),
(1016,-249,cs),
(1016,-200,o),
(1000,-155,o),
(969,-114,cs),
(937,-73,o),
(892,-36,o),
(828,-3,c),
(828,46,l),
(709,59,l),
(660,5,l),
(716,-20,o),
(759,-52,o),
(790,-87,cs),
(821,-122,o),
(839,-156,o),
(839,-191,cs),
(839,-251,o),
(800,-276,o),
(735,-276,cs),
(692,-276,o),
(662,-269,o),
(645,-262,c),
(645,-409,l),
(676,-420,o),
(723,-426,o),
(771,-426,cs)
);
}
);
width = 1368;
},
{
anchors = (
{
name = top;
position = "{783, 1426}";
}
);
layerId = "7735F29D-4F76-449E-8F41-87F6EE236855";
shapes = (
{
closed = 1;
nodes = (
(909,-21,o),
(986,-14,o),
(1060,4,cs),
(1134,21,o),
(1202,47,o),
(1258,83,c),
(1244,247,l),
(1121,159,o),
(982,128,o),
(847,128,cs),
(657,128,o),
(518,193,o),
(423,301,cs),
(328,408,o),
(280,552,o),
(280,714,cs),
(280,897,o),
(336,1041,o),
(431,1143,cs),
(526,1244,o),
(660,1299,o),
(818,1299,cs),
(954,1299,o),
(1094,1263,o),
(1251,1171,c),
(1267,1337,l),
(1218,1364,o),
(1150,1393,o),
(1070,1415,cs),
(989,1437,o),
(899,1452,o),
(804,1452,cs),
(592,1452,o),
(421,1378,o),
(296,1246,cs),
(171,1115,o),
(102,935,o),
(102,715,cs),
(102,501,o),
(170,321,o),
(297,189,cs),
(424,56,o),
(603,-21,o),
(831,-21,cs)
);
},
{
closed = 1;
nodes = (
(850,-414,o),
(903,-399,o),
(939,-369,cs),
(975,-340,o),
(994,-298,o),
(994,-246,cs),
(994,-201,o),
(980,-157,o),
(949,-115,c),
(916,-73,o),
(868,-32,o),
(795,7,c),
(795,43,l),
(715,50,l),
(678,3,l),
(738,-25,o),
(784,-60,o),
(817,-99,cs),
(850,-137,o),
(869,-175,o),
(869,-212,cs),
(869,-279,o),
(828,-306,o),
(760,-306,cs),
(715,-306,o),
(682,-298,o),
(663,-291,c),
(663,-399,l),
(694,-408,o),
(737,-414,o),
(780,-414,cs)
);
}
);
width = 1370;
},
{
anchors = (
{
name = top;
position = "{782, 1426}";
}
);
layerId = "5BCA41AC-1A8A-4D79-8779-5300D22224AB";
shapes = (
{
closed = 1;
nodes = (
(910,-18,o),
(984,-10,o),
(1056,9,cs),
(1128,28,o),
(1194,55,o),
(1250,94,c),
(1238,164,l),
(1118,80,o),
(974,48,o),
(830,48,cs),
(617,48,o),
(458,123,o),
(350,244,cs),
(242,365,o),
(186,528,o),
(186,716,cs),
(186,921,o),
(250,1085,o),
(359,1202,cs),
(468,1319,o),
(620,1384,o),
(804,1384,cs),
(949,1384,o),
(1093,1348,o),
(1250,1260,c),
(1260,1330,l),
(1215,1357,o),
(1151,1386,o),
(1071,1410,cs),
(991,1433,o),
(902,1450,o),
(806,1450,cs),
(607,1450,o),
(441,1376,o),
(316,1247,cs),
(191,1118,o),
(120,938,o),
(120,718,cs),
(120,510,o),
(186,329,o),
(311,196,cs),
(436,63,o),
(610,-18,o),
(834,-18,cs)
);
},
{
closed = 1;
nodes = (
(843,-400,o),
(887,-386,o),
(919,-359,cs),
(950,-332,o),
(968,-294,o),
(968,-243,cs),
(968,-203,o),
(956,-160,o),
(924,-116,cs),
(891,-72,o),
(839,-27,o),
(755,20,c),
(755,40,l),
(723,40,l),
(701,0,l),
(765,-31,o),
(814,-70,o),
(850,-113,cs),
(886,-156,o),
(906,-198,o),
(906,-237,cs),
(906,-313,o),
(862,-342,o),
(790,-342,cs),
(742,-342,o),
(706,-334,o),
(686,-326,c),
(686,-386,l),
(717,-394,o),
(755,-400,o),
(790,-400,cs)
);
}
);
width = 1372;
}
);
leftKerningGroup = uni0404_2;
rightKerningGroup = uni0404;
},
{
glyphname = Eth;
layers = (
{
anchors = (
{
name = bottom;
position = "{710, 0}";
},
{
name = top;
position = "{710, 1426}";
}
);
layerId = "6958D9FC-3AA0-42A5-A7C5-41542F6C8ADC";
shapes = (
{
closed = 1;
nodes = (
(92,0,l),
(638,0,ls),
(926,0,o),
(1120,78,o),
(1241,207,cs),
(1362,336,o),
(1412,512,o),
(1412,716,cs),
(1412,948,o),
(1350,1122,o),
(1233,1243,cs),
(1116,1364,o),
(949,1426,o),
(732,1426,cs),
(92,1426,l),
(92,948,l),
(92,458,l)
);
},
{
closed = 1;
nodes = (
(584,386,l),
(584,586,l),
(584,824,l),
(584,1040,l),
(646,1040,ls),
(738,1040,o),
(800,1008,o),
(841,952,cs),
(881,896,o),
(900,818,o),
(900,722,cs),
(900,625,o),
(884,541,o),
(843,481,cs),
(800,421,o),
(735,386,o),
(636,386,cs)
);
},
{
closed = 1;
nodes = (
(-32,552,l),
(320,552,l),
(416,552,l),
(768,552,l),
(768,874,l),
(416,874,l),
(320,874,l),
(-32,874,l)
);
}
);
width = 1460;
},
{
anchors = (
{
name = bottom;
position = "{706, 0}";
},
{
name = top;
position = "{706, 1426}";
}
);
layerId = "05F448A1-237D-4A5F-844D-77861616AAFF";
shapes = (
{
closed = 1;
nodes = (
(161,0,l),
(634,0,ls),
(909,0,o),
(1096,79,o),
(1215,208,cs),
(1336,337,o),
(1383,514,o),
(1383,718,cs),
(1383,945,o),
(1321,1120,o),
(1204,1241,cs),
(1087,1362,o),
(918,1426,o),
(697,1426,cs),
(161,1426,l),
(161,949,l),
(161,468,l)
);
},
{
closed = 1;
nodes = (
(421,210,l),
(421,526,l),
(421,892,l),
(421,1216,l),
(652,1216,ls),
(813,1216,o),
(927,1169,o),
(1003,1081,cs),
(1079,993,o),
(1113,871,o),
(1113,722,cs),
(1113,573,o),
(1083,449,o),
(1007,357,cs),
(931,265,o),
(811,210,o),
(634,210,cs)
);
},
{
closed = 1;
nodes = (
(-25,612,l),
(317,612,l),
(411,612,l),
(753,612,l),
(753,792,l),
(411,792,l),
(317,792,l),
(-25,792,l)
);
}
);
width = 1470;
},
{
anchors = (
{
name = bottom;
position = "{703, 0}";
},
{
name = top;
position = "{703, 1426}";
}
);
layerId = "7735F29D-4F76-449E-8F41-87F6EE236855";
shapes = (
{
closed = 1;
nodes = (
(188,0,l),
(632,0,ls),
(902,0,o),
(1087,80,o),
(1205,209,cs),
(1324,339,o),
(1372,515,o),
(1372,719,cs),
(1372,944,o),
(1310,1119,o),
(1193,1240,cs),
(1076,1361,o),
(907,1426,o),
(684,1426,cs),
(188,1426,l),
(188,949,l),
(188,472,l)
);
},
{
closed = 1;
nodes = (
(359,143,l),
(359,504,l),
(359,918,l),
(359,1283,l),
(655,1283,ls),
(843,1283,o),
(976,1229,o),
(1064,1130,cs),
(1153,1030,o),
(1194,893,o),
(1194,722,cs),
(1194,554,o),
(1158,413,o),
(1069,310,cs),
(981,206,o),
(840,143,o),
(633,143,cs)
);
},
{
closed = 1;
nodes = (
(-23,635,l),
(316,635,l),
(409,635,l),
(747,635,l),
(747,761,l),
(409,761,l),
(316,761,l),
(-23,761,l)
);
}
);
width = 1474;
},
{
anchors = (
{
name = bottom;
position = "{700, 0}";
},
{
name = top;
position = "{700, 1426}";
}
);
layerId = "5BCA41AC-1A8A-4D79-8779-5300D22224AB";
shapes = (
{
closed = 1;
nodes = (
(220,0,l),
(630,0,ls),
(894,0,o),
(1076,81,o),
(1192,210,cs),
(1309,342,o),
(1358,516,o),
(1358,720,cs),
(1358,943,o),
(1297,1117,o),
(1180,1238,cs),
(1063,1359,o),
(893,1426,o),
(668,1426,cs),
(220,1426,l),
(220,950,l),
(220,476,l)
);
},
{
closed = 1;
nodes = (
(284,62,l),
(284,476,l),
(284,950,l),
(284,1364,l),
(658,1364,ls),
(879,1364,o),
(1035,1302,o),
(1139,1189,cs),
(1243,1076,o),
(1292,919,o),
(1292,722,cs),
(1292,531,o),
(1249,370,o),
(1145,253,cs),
(1041,134,o),
(876,62,o),
(632,62,cs)
);
},
{
closed = 1;
nodes = (
(-20,662,l),
(314,662,l),
(406,662,l),
(740,662,l),
(740,722,l),
(406,722,l),
(314,722,l),
(-20,722,l)
);
}
);
width = 1478;
}
);
leftKerningGroup = Eth;
rightKerningGroup = D;
unicode = 208;
},
{
glyphname = F;
layers = (
{
layerId = "6958D9FC-3AA0-42A5-A7C5-41542F6C8ADC";
shapes = (
{
closed = 1;
nodes = (
(572,0,l),
(572,458,l),
(572,868,l),
(572,1346,l),
(378,1022,l),
(692,1022,l),
(1096,1022,l),
(1096,1426,l),
(92,1426,l),
(92,948,l),
(92,458,l),
(92,0,l)
);
},
{
closed = 1;
nodes = (
(690,490,l),
(1072,490,l),
(1072,876,l),
(690,876,l),
(446,876,l),
(446,490,l)
);
}
);
width = 1162;
},
{
layerId = "05F448A1-237D-4A5F-844D-77861616AAFF";
shapes = (
{
closed = 1;
nodes = (
(415,0,l),
(415,468,l),
(415,909,l),
(415,1386,l),
(309,1207,l),
(600,1207,l),
(1064,1207,l),
(1064,1426,l),
(161,1426,l),
(161,949,l),
(161,468,l),
(161,0,l)
);
},
{
closed = 1;
nodes = (
(608,601,l),
(1028,601,l),
(1028,811,l),
(609,811,l),
(351,811,l),
(351,601,l)
);
}
);
width = 1151;
},
{
layerId = "7735F29D-4F76-449E-8F41-87F6EE236855";
shapes = (
{
closed = 1;
nodes = (
(356,0,l),
(356,472,l),
(356,925,l),
(356,1401,l),
(283,1278,l),
(566,1278,l),
(1052,1278,l),
(1052,1426,l),
(188,1426,l),
(188,949,l),
(188,472,l),
(188,0,l)
);
},
{
closed = 1;
nodes = (
(577,643,l),
(1012,643,l),
(1012,786,l),
(579,786,l),
(315,786,l),
(315,643,l)
);
}
);
width = 1147;
},
{
layerId = "5BCA41AC-1A8A-4D79-8779-5300D22224AB";
shapes = (
{
closed = 1;
nodes = (
(284,0,l),
(284,476,l),
(284,944,l),
(284,1420,l),
(252,1364,l),
(524,1364,l),
(1038,1364,l),
(1038,1426,l),
(220,1426,l),
(220,950,l),
(220,476,l),
(220,0,l)
);
},
{
closed = 1;
nodes = (
(540,694,l),
(992,694,l),
(992,756,l),
(542,756,l),
(272,756,l),
(272,694,l)
);
}
);
width = 1142;
}
);
leftKerningGroup = B;
unicode = 70;
},
{
glyphname = "Fita-cy";
layers = (
{
anchors = (
{
name = top;
position = "{811, 1426}";
}
);
layerId = "6958D9FC-3AA0-42A5-A7C5-41542F6C8ADC";
shapes = (
{
closed = 1;
nodes = (
(1071,-32,o),
(1256,47,o),
(1384,180,cs),
(1512,313,o),
(1574,496,o),
(1574,712,cs),
(1574,921,o),
(1516,1103,o),
(1388,1240,cs),
(1261,1376,o),
(1070,1458,o),
(806,1458,cs),
(546,1458,o),
(356,1375,o),
(232,1240,cs),
(107,1103,o),
(48,921,o),
(48,710,cs),
(48,514,o),
(103,331,o),
(228,194,cs),
(352,57,o),
(545,-32,o),
(818,-32,cs)
);
},
{
closed = 1;
nodes = (
(727,350,o),
(660,379,o),
(615,424,cs),
(570,468,o),
(547,528,o),
(547,589,cs),
(547,835,ls),
(547,903,o),
(572,962,o),
(617,1006,cs),
(662,1049,o),
(729,1076,o),
(812,1076,cs),
(892,1076,o),
(957,1049,o),
(1004,1006,cs),
(1051,962,o),
(1075,903,o),
(1075,835,cs),
(1075,589,ls),
(1075,528,o),
(1052,468,o),
(1008,424,cs),
(963,379,o),
(897,350,o),
(812,350,cs)
);
},
{
closed = 1;
nodes = (
(1175,551,l),
(1175,871,l),
(464,871,l),
(464,551,l)
);
}
);
width = 1622;
},
{
anchors = (
{
name = top;
position = "{815, 1426}";
}
);
layerId = "05F448A1-237D-4A5F-844D-77861616AAFF";
shapes = (
{
closed = 1;
nodes = (
(1056,-24,o),
(1231,54,o),
(1356,187,cs),
(1481,320,o),
(1544,499,o),
(1544,714,cs),
(1544,922,o),
(1484,1102,o),
(1360,1238,cs),
(1237,1373,o),
(1056,1454,o),
(815,1454,cs),
(578,1454,o),
(396,1372,o),
(273,1239,cs),
(148,1106,o),
(87,924,o),
(87,713,cs),
(87,513,o),
(146,334,o),
(267,197,cs),
(388,62,o),
(572,-24,o),
(823,-24,cs)
);
},
{
closed = 1;
nodes = (
(658,193,o),
(541,248,o),
(465,333,cs),
(388,418,o),
(351,533,o),
(351,658,cs),
(351,770,ls),
(351,895,o),
(390,1012,o),
(467,1097,cs),
(544,1182,o),
(661,1237,o),
(818,1237,cs),
(971,1237,o),
(1083,1187,o),
(1163,1103,cs),
(1243,1019,o),
(1280,904,o),
(1280,771,cs),
(1280,657,ls),
(1280,536,o),
(1245,423,o),
(1169,335,cs),
(1093,250,o),
(978,193,o),
(818,193,cs)
);
},
{
closed = 1;
nodes = (
(1336,612,l),
(1336,826,l),
(306,826,l),
(306,612,l)
);
}
);
width = 1631;
},
{
anchors = (
{
name = top;
position = "{817, 1426}";
}
);
layerId = "7735F29D-4F76-449E-8F41-87F6EE236855";
shapes = (
{
closed = 1;
nodes = (
(1049,-21,o),
(1222,56,o),
(1345,189,cs),
(1468,322,o),
(1532,501,o),
(1532,715,cs),
(1532,922,o),
(1471,1102,o),
(1349,1237,cs),
(1227,1371,o),
(1050,1452,o),
(818,1452,cs),
(591,1452,o),
(411,1371,o),
(289,1239,cs),
(166,1106,o),
(102,924,o),
(102,714,cs),
(102,513,o),
(161,333,o),
(282,198,cs),
(402,64,o),
(583,-21,o),
(824,-21,cs)
);
},
{
closed = 1;
nodes = (
(632,128,o),
(496,194,o),
(408,296,cs),
(319,399,o),
(277,535,o),
(277,684,cs),
(277,746,ls),
(277,894,o),
(321,1032,o),
(411,1135,cs),
(500,1237,o),
(636,1303,o),
(820,1303,cs),
(1000,1303,o),
(1131,1243,o),
(1222,1142,cs),
(1313,1042,o),
(1357,905,o),
(1357,747,cs),
(1357,683,ls),
(1357,538,o),
(1318,403,o),
(1229,298,cs),
(1142,196,o),
(1007,128,o),
(820,128,cs)
);
},
{
closed = 1;
nodes = (
(1397,649,l),
(1397,795,l),
(246,795,l),
(246,649,l)
);
}
);
width = 1634;
},
{
anchors = (
{
name = top;
position = "{819, 1426}";
}
);
layerId = "5BCA41AC-1A8A-4D79-8779-5300D22224AB";
shapes = (
{
closed = 1;
nodes = (
(1041,-18,o),
(1210,59,o),
(1331,192,cs),
(1452,325,o),
(1518,504,o),
(1518,716,cs),
(1518,923,o),
(1456,1103,o),
(1335,1236,cs),
(1215,1369,o),
(1043,1450,o),
(822,1450,cs),
(606,1450,o),
(430,1370,o),
(309,1238,cs),
(188,1105,o),
(120,925,o),
(120,716,cs),
(120,513,o),
(180,332,o),
(301,199,cs),
(420,66,o),
(597,-18,o),
(826,-18,cs)
);
},
{
closed = 1;
nodes = (
(601,48,o),
(442,127,o),
(338,251,cs),
(234,376,o),
(186,538,o),
(186,715,cs),
(186,717,ls),
(186,893,o),
(237,1056,o),
(342,1181,cs),
(446,1304,o),
(605,1384,o),
(822,1384,cs),
(1035,1384,o),
(1190,1311,o),
(1295,1190,cs),
(1399,1069,o),
(1452,906,o),
(1452,717,cs),
(1452,715,ls),
(1452,540,o),
(1407,378,o),
(1303,253,cs),
(1202,129,o),
(1043,48,o),
(822,48,cs)
);
},
{
closed = 1;
nodes = (
(1472,694,l),
(1472,756,l),
(172,756,l),
(172,694,l)
);
}
);
width = 1638;
}
);
leftKerningGroup = uni0404_2;
rightKerningGroup = uni041E;
unicode = 1138;
},
{
glyphname = G;
layers = (
{
anchors = (
{
name = bottom;
position = "{786, 0}";
},
{
name = top;
position = "{786, 1426}";
}
);
layerId = "6958D9FC-3AA0-42A5-A7C5-41542F6C8ADC";
shapes = (
{
closed = 1;
nodes = (
(936,-30,o),
(1044,-22,o),
(1140,-10,cs),
(1236,2,o),
(1314,19,o),
(1358,36,c),
(1300,462,l),
(1231,425,o),
(1170,399,o),
(1102,380,cs),
(1034,361,o),
(966,354,o),
(874,354,cs),
(769,354,o),
(688,396,o),
(636,461,cs),
(583,525,o),
(556,615,o),
(556,708,cs),
(556,829,o),
(593,912,o),
(650,968,cs),
(707,1024,o),
(784,1048,o),
(868,1048,cs),
(981,1048,o),
(1128,1006,o),
(1304,906,c),
(1338,1354,l),
(1277,1382,o),
(1199,1408,o),
(1111,1427,cs),
(1023,1446,o),
(926,1458,o),
(826,1458,cs),
(573,1458,o),
(382,1383,o),
(249,1250,cs),
(116,1117,o),
(48,934,o),
(48,710,cs),
(48,487,o),
(120,308,o),
(256,176,cs),
(391,45,o),
(584,-30,o),
(828,-30,cs)
);
},
{
closed = 1;
nodes = (
(1358,36,l),
(1358,855,l),
(732,855,l),
(732,539,l),
(900,539,l),
(900,26,l)
);
}
);
width = 1450;
},
{
anchors = (
{
name = bottom;
position = "{793, 0}";
},
{
name = top;
position = "{793, 1426}";
}
);
layerId = "05F448A1-237D-4A5F-844D-77861616AAFF";
shapes = (
{
closed = 1;
nodes = (
(950,-24,o),
(1046,-15,o),
(1134,0,cs),
(1222,15,o),
(1292,34,o),
(1337,54,c),
(1304,306,l),
(1236,269,o),
(1170,243,o),
(1098,227,cs),
(1026,210,o),
(953,202,o),
(873,202,cs),
(700,202,o),
(578,259,o),
(495,352,cs),
(411,444,o),
(373,572,o),
(373,713,cs),
(373,874,o),
(423,999,o),
(507,1084,cs),
(591,1169,o),
(706,1214,o),
(843,1214,cs),
(976,1214,o),
(1121,1177,o),
(1292,1081,c),
(1314,1342,l),
(1258,1369,o),
(1186,1397,o),
(1102,1418,cs),
(1017,1439,o),
(921,1454,o),
(821,1454,cs),
(589,1454,o),
(410,1380,o),
(281,1247,cs),
(152,1114,o),
(84,934,o),
(84,714,cs),
(84,498,o),
(151,319,o),
(283,186,cs),
(414,53,o),
(603,-24,o),
(850,-24,cs)
);
},
{
closed = 1;
nodes = (
(1337,54,l),
(1337,830,l),
(695,830,l),
(695,600,l),
(1074,600,l),
(1074,49,l)
);
}
);
width = 1461;
},
{
anchors = (
{
name = bottom;
position = "{798, 0}";
},
{
name = top;
position = "{798, 1426}";
}
);
layerId = "7735F29D-4F76-449E-8F41-87F6EE236855";
shapes = (
{
closed = 1;
nodes = (
(956,-21,o),
(1048,-11,o),
(1131,5,cs),
(1213,22,o),
(1282,43,o),
(1328,63,c),
(1306,235,l),
(1239,198,o),
(1170,173,o),
(1096,157,cs),
(1022,140,o),
(948,133,o),
(873,133,cs),
(669,133,o),
(526,196,o),
(430,302,cs),
(333,407,o),
(289,551,o),
(289,715,cs),
(289,896,o),
(344,1038,o),
(441,1138,cs),
(538,1237,o),
(670,1291,o),
(831,1291,cs),
(973,1291,o),
(1118,1254,o),
(1287,1162,c),
(1303,1337,l),
(1251,1364,o),
(1182,1392,o),
(1098,1414,cs),
(1013,1436,o),
(919,1452,o),
(819,1452,cs),
(598,1452,o),
(423,1378,o),
(296,1246,cs),
(169,1113,o),
(100,934,o),
(100,716,cs),
(100,503,o),
(165,324,o),
(295,191,cs),
(424,58,o),
(611,-21,o),
(860,-21,cs)
);
},
{
closed = 1;
nodes = (
(1328,63,l),
(1328,788,l),
(677,788,l),
(677,633,l),
(1154,633,l),
(1154,60,l)
);
}
);
width = 1466;
},
{
anchors = (
{
name = bottom;
position = "{802, 0}";
},
{
name = top;
position = "{802, 1426}";
}
);
layerId = "5BCA41AC-1A8A-4D79-8779-5300D22224AB";
shapes = (
{
closed = 1;
nodes = (
(964,-18,o),
(1050,-7,o),
(1127,12,cs),
(1203,31,o),
(1269,53,o),
(1316,74,c),
(1308,148,l),
(1243,112,o),
(1169,87,o),
(1093,71,cs),
(1017,55,o),
(941,48,o),
(872,48,cs),
(632,48,o),
(463,120,o),
(350,241,cs),
(237,362,o),
(186,526,o),
(186,718,cs),
(186,923,o),
(247,1086,o),
(360,1203,cs),
(473,1320,o),
(625,1384,o),
(816,1384,cs),
(969,1384,o),
(1115,1348,o),
(1280,1260,c),
(1290,1330,l),
(1243,1357,o),
(1177,1386,o),
(1093,1410,cs),
(1009,1433,o),
(916,1450,o),
(816,1450,cs),
(608,1450,o),
(438,1376,o),
(314,1244,cs),
(190,1112,o),
(120,934,o),
(120,718,cs),
(120,510,o),
(182,329,o),
(310,196,cs),
(437,63,o),
(621,-18,o),
(872,-18,cs)
);
},
{
closed = 1;
nodes = (
(1316,74,l),
(1316,736,l),
(656,736,l),
(656,674,l),
(1252,674,l),
(1252,74,l)
);
}
);
width = 1472;
}
);
leftKerningGroup = C2;
rightKerningGroup = G;
unicode = 71;
},
{
glyphname = "Ge-cy";
layers = (
{
anchors = (
{
name = bottomright;
position = "{584, 0}";
},
{
name = top;
position = "{596, 1426}";
}
);
layerId = "6958D9FC-3AA0-42A5-A7C5-41542F6C8ADC";
shapes = (
{
closed = 1;
nodes = (
(584,0,l),
(584,458,l),
(584,868,l),
(584,1346,l),
(382,1002,l),
(626,1002,l),
(1120,1002,l),
(1120,1426,l),
(92,1426,l),
(92,948,l),
(92,458,l),
(92,0,l)
);
}
);
width = 1180;
},
{
anchors = (
{
name = bottomright;
position = "{453, 0}";
},
{
name = top;
position = "{610, 1426}";
}
);
layerId = "05F448A1-237D-4A5F-844D-77861616AAFF";
shapes = (
{
closed = 1;
nodes = (
(421,0,l),
(421,468,l),
(421,909,l),
(421,1386,l),
(311,1198,l),
(565,1198,l),
(1070,1198,l),
(1070,1426,l),
(161,1426,l),
(161,949,l),
(161,468,l),
(161,0,l)
);
}
);
width = 1143;
},
{
anchors = (
{
name = bottomright;
position = "{359, 0}";
},
{
name = top;
position = "{621, 1426}";
}
);
layerId = "7735F29D-4F76-449E-8F41-87F6EE236855";
shapes = (
{
closed = 1;
nodes = (
(359,0,l),
(359,472,l),
(359,925,l),
(359,1401,l),
(284,1273,l),
(542,1273,l),
(1051,1273,l),
(1051,1426,l),
(188,1426,l),
(188,949,l),
(188,472,l),
(188,0,l)
);
}
);
width = 1129;
},
{
anchors = (
{
name = bottomright;
position = "{284, 0}";
},
{
name = top;
position = "{629, 1426}";
}
);
layerId = "5BCA41AC-1A8A-4D79-8779-5300D22224AB";
shapes = (
{
closed = 1;
nodes = (
(284,0,l),
(284,476,l),
(284,944,l),
(284,1420,l),
(252,1364,l),
(514,1364,l),
(1028,1364,l),
(1028,1426,l),
(220,1426,l),
(220,950,l),
(220,476,l),
(220,0,l)
);
}
);
width = 1112;
}
);
rightKerningGroup = uni0403;
unicode = 1043;
},
{
glyphname = "Gedescender-cy";
layers = (
{
anchors = (
{
name = "#entry";
position = "{584, 0}";
},
{
name = top;
position = "{596, 1426}";
}
);
layerId = "6958D9FC-3AA0-42A5-A7C5-41542F6C8ADC";
shapes = (
{
closed = 1;
nodes = (
(584,0,l),
(584,458,l),
(584,868,l),
(584,1346,l),
(382,1002,l),
(626,1002,l),
(1120,1002,l),
(1120,1426,l),
(92,1426,l),
(92,948,l),
(92,458,l),
(92,0,l)
);
},
{
closed = 1;
nodes = (
(767,-300,l),
(767,44,l),
(767,404,l),
(233,404,l),
(233,0,l),
(408,0,l),
(333,76,l),
(359,-300,l)
);
}
);
width = 1180;
},
{
anchors = (
{
name = "#entry";
position = "{453, 0}";
},
{
name = top;
position = "{610, 1426}";
}
);
layerId = "05F448A1-237D-4A5F-844D-77861616AAFF";
shapes = (
{
closed = 1;
nodes = (
(421,0,l),
(421,468,l),
(421,909,l),
(421,1386,l),
(311,1198,l),
(565,1198,l),
(1070,1198,l),
(1070,1426,l),
(161,1426,l),
(161,949,l),
(161,468,l),
(161,0,l)
);
},
{
closed = 1;
nodes = (
(605,-305,l),
(605,-49,l),
(605,219,l),
(241,219,l),
(241,0,l),
(422,0,l),
(371,41,l),
(386,-305,l)
);
}
);
width = 1143;
},
{
anchors = (
{
name = "#entry";
position = "{359, 0}";
},
{
name = top;
position = "{621, 1426}";
}
);
layerId = "7735F29D-4F76-449E-8F41-87F6EE236855";
shapes = (
{
closed = 1;
nodes = (
(359,0,l),
(359,472,l),
(359,925,l),
(359,1401,l),
(284,1273,l),
(542,1273,l),
(1051,1273,l),
(1051,1426,l),
(188,1426,l),
(188,949,l),
(188,472,l),
(188,0,l)
);
},
{
closed = 1;
nodes = (
(543,-307,l),
(543,-84,l),
(543,148,l),
(244,148,l),
(244,0,l),
(427,0,l),
(385,28,l),
(396,-307,l)
);
}
);
width = 1129;
},
{
anchors = (
{
name = "#entry";
position = "{284, 0}";
},
{
name = top;
position = "{629, 1426}";
}
);
layerId = "5BCA41AC-1A8A-4D79-8779-5300D22224AB";
shapes = (
{
closed = 1;
nodes = (
(284,0,l),
(284,476,l),
(284,944,l),
(284,1420,l),
(252,1364,l),
(514,1364,l),
(1028,1364,l),
(1028,1426,l),
(220,1426,l),
(220,950,l),
(220,476,l),
(220,0,l)
);
},
{
closed = 1;
nodes = (
(468,-310,l),
(468,-127,l),
(468,62,l),
(248,62,l),
(248,0,l),
(434,0,l),
(403,11,l),
(408,-310,l)
);
}
);
width = 1112;
}
);
rightKerningGroup = uni0403;
unicode = 1270;
},
{
glyphname = Germandbls;
layers = (
{
layerId = "6958D9FC-3AA0-42A5-A7C5-41542F6C8ADC";
shapes = (
{
closed = 1;
nodes = (
(1076,-12,o),
(1220,30,o),
(1312,106,cs),
(1404,182,o),
(1438,291,o),
(1438,424,cs),
(1438,557,o),
(1401,655,o),
(1321,728,cs),
(1240,800,o),
(1117,847,o),
(936,876,c),
(936,694,l),
(1115,804,ls),
(1183,847,o),
(1252,887,o),
(1320,930,c),
(1354,1306,l),
(1290,1345,o),
(1197,1383,o),
(1088,1411,cs),
(979,1439,o),
(855,1458,o),
(726,1458,cs),
(495,1458,o),
(339,1410,o),
(235,1310,cs),
(131,1210,o),
(86,1069,o),
(86,878,cs),
(86,458,l),
(86,0,l),
(576,0,l),
(576,458,l),
(576,854,ls),
(576,927,o),
(591,978,o),
(620,1013,cs),
(649,1048,o),
(694,1062,o),
(754,1062,cs),
(810,1062,o),
(865,1051,o),
(913,1028,cs),
(960,1005,o),
(999,975,o),
(1024,936,c),
(1024,1100,l),
(874,976,ls),
(823,933,o),
(771,891,o),
(720,848,c),
(720,588,l),
(851,568,o),
(922,524,o),
(922,460,cs),
(922,429,o),
(912,405,o),
(888,386,cs),
(863,367,o),
(824,358,o),
(760,358,cs),
(732,358,o),
(694,361,o),
(678,364,c),
(678,0,l),
(695,-3,o),
(730,-6,o),
(766,-9,cs),
(801,-12,o),
(836,-12,o),
(852,-12,cs)
);
}
);
width = 1482;
},
{
layerId = "05F448A1-237D-4A5F-844D-77861616AAFF";
shapes = (
{
closed = 1;
nodes = (
(1041,-14,o),
(1170,30,o),
(1254,103,cs),
(1338,175,o),
(1371,279,o),
(1371,396,cs),
(1371,517,o),
(1335,609,o),
(1247,682,cs),
(1159,754,o),
(1028,803,o),
(828,831,c),
(834,736,l),
(1030,900,ls),
(1106,964,o),
(1177,1023,o),
(1253,1087,c),
(1275,1299,l),
(1226,1332,o),
(1148,1370,o),
(1052,1401,cs),
(956,1432,o),
(843,1454,o),
(718,1454,cs),
(517,1454,o),
(376,1403,o),
(283,1311,cs),
(190,1218,o),
(146,1084,o),
(146,909,cs),
(146,468,l),
(146,0,l),
(405,0,l),
(405,468,l),
(405,889,ls),
(405,1006,o),
(429,1089,o),
(481,1149,cs),
(533,1209,o),
(613,1237,o),
(730,1237,cs),
(810,1237,o),
(879,1224,o),
(943,1201,cs),
(1007,1177,o),
(1059,1145,o),
(1100,1106,c),
(1098,1196,l),
(901,1009,ls),
(833,945,o),
(769,883,o),
(701,819,c),
(701,669,l),
(965,640,o),
(1099,556,o),
(1099,412,cs),
(1099,332,o),
(1071,278,o),
(1020,243,cs),
(969,207,o),
(898,191,o),
(806,191,cs),
(730,191,o),
(661,204,o),
(601,223,c),
(601,17,l),
(633,9,o),
(677,2,o),
(722,-5,cs),
(766,-12,o),
(812,-14,o),
(848,-14,cs)
);
}
);
width = 1444;
},
{
layerId = "7735F29D-4F76-449E-8F41-87F6EE236855";
shapes = (
{
closed = 1;
nodes = (
(1028,-15,o),
(1151,29,o),
(1232,101,cs),
(1312,173,o),
(1345,274,o),
(1345,385,cs),
(1345,500,o),
(1309,592,o),
(1219,665,cs),
(1129,737,o),
(994,788,o),
(787,814,c),
(795,752,l),
(998,937,ls),
(1075,1008,o),
(1150,1076,o),
(1227,1147,c),
(1245,1296,l),
(1201,1327,o),
(1130,1366,o),
(1039,1397,cs),
(947,1428,o),
(838,1452,o),
(714,1452,cs),
(525,1452,o),
(390,1402,o),
(301,1311,cs),
(212,1220,o),
(169,1090,o),
(169,921,cs),
(169,472,l),
(169,0,l),
(340,0,l),
(340,472,l),
(340,903,ls),
(340,1034,o),
(367,1132,o),
(428,1201,cs),
(489,1270,o),
(582,1303,o),
(721,1303,cs),
(809,1303,o),
(885,1290,o),
(954,1266,cs),
(1024,1242,o),
(1081,1210,o),
(1129,1171,c),
(1126,1232,l),
(911,1022,ls),
(838,951,o),
(767,880,o),
(693,809,c),
(693,700,l),
(1009,667,o),
(1166,569,o),
(1166,394,cs),
(1166,296,o),
(1131,231,o),
(1070,189,cs),
(1010,146,o),
(926,128,o),
(823,128,cs),
(729,128,o),
(646,143,o),
(572,169,c),
(572,24,l),
(610,14,o),
(656,4,o),
(704,-4,cs),
(752,-11,o),
(803,-15,o),
(846,-15,cs)
);
}
);
width = 1430;
},
{
layerId = "5BCA41AC-1A8A-4D79-8779-5300D22224AB";
shapes = (
{
closed = 1;
nodes = (
(1012,-16,o),
(1128,27,o),
(1204,99,cs),
(1280,171,o),
(1314,267,o),
(1314,372,cs),
(1314,480,o),
(1277,572,o),
(1185,644,cs),
(1093,716,o),
(952,769,o),
(736,794,c),
(748,772,l),
(958,982,ls),
(1038,1062,o),
(1116,1140,o),
(1196,1220,c),
(1208,1292,l),
(1171,1320,o),
(1107,1360,o),
(1022,1392,cs),
(937,1424,o),
(831,1450,o),
(710,1450,cs),
(534,1450,o),
(407,1400,o),
(323,1312,cs),
(238,1223,o),
(196,1097,o),
(196,936,cs),
(196,476,l),
(196,0,l),
(260,0,l),
(260,476,l),
(260,920,ls),
(260,1069,o),
(291,1184,o),
(363,1264,cs),
(435,1344,o),
(545,1384,o),
(710,1384,cs),
(807,1384,o),
(892,1370,o),
(968,1346,cs),
(1044,1322,o),
(1108,1289,o),
(1164,1250,c),
(1160,1276,l),
(924,1038,ls),
(844,958,o),
(764,877,o),
(684,796,c),
(684,738,l),
(1063,701,o),
(1248,584,o),
(1248,372,cs),
(1248,251,o),
(1204,173,o),
(1132,122,cs),
(1060,71,o),
(961,50,o),
(844,50,cs),
(727,50,o),
(628,69,o),
(536,104,c),
(536,32,l),
(581,19,o),
(631,7,o),
(683,-2,cs),
(735,-10,o),
(791,-16,o),
(844,-16,cs)
);
}
);
width = 1412;
}
);
leftKerningGroup = Germandbls;
unicode = 7838;
},
{
glyphname = "Gestrokehook-cy";
layers = (
{
layerId = "6958D9FC-3AA0-42A5-A7C5-41542F6C8ADC";
shapes = (
{
closed = 1;
nodes = (
(656,-300,l),
(704,-253,o),
(746,-196,o),
(777,-120,cs),
(808,-44,o),
(824,49,o),
(824,162,cs),
(824,324,l),
(260,324,l),
(640,20,l),
(640,458,l),
(640,868,l),
(640,1346,l),
(450,1002,l),
(694,1002,l),
(1188,1002,l),
(1188,1426,l),
(160,1426,l),
(160,948,l),
(160,458,l),
(160,0,l),
(435,0,l),
(365,177,l),
(365,92,o),
(356,11,o),
(336,-69,cs),
(316,-149,o),
(284,-224,o),
(237,-300,c)
);
},
{
closed = 1;
nodes = (
(20,504,l),
(447,504,l),
(561,504,l),
(988,504,l),
(988,826,l),
(561,826,l),
(447,826,l),
(20,826,l)
);
}
);
width = 1248;
},
{
layerId = "05F448A1-237D-4A5F-844D-77861616AAFF";
shapes = (
{
closed = 1;
nodes = (
(469,-305,l),
(512,-264,o),
(551,-212,o),
(582,-147,cs),
(613,-82,o),
(631,-1,o),
(631,96,cs),
(631,182,l),
(254,182,l),
(447,15,l),
(447,468,l),
(447,909,l),
(447,1386,l),
(343,1198,l),
(596,1198,l),
(1101,1198,l),
(1101,1426,l),
(193,1426,l),
(193,949,l),
(193,468,l),
(193,0,l),
(435,0,l),
(387,94,l),
(387,18,o),
(373,-51,o),
(346,-116,cs),
(319,-181,o),
(280,-244,o),
(228,-305,c)
);
},
{
closed = 1;
nodes = (
(42,608,l),
(418,608,l),
(520,608,l),
(897,608,l),
(897,788,l),
(520,788,l),
(418,788,l),
(42,788,l)
);
}
);
width = 1174;
},
{
layerId = "7735F29D-4F76-449E-8F41-87F6EE236855";
shapes = (
{
closed = 1;
nodes = (
(398,-307,l),
(438,-269,o),
(477,-219,o),
(508,-157,cs),
(539,-96,o),
(558,-20,o),
(558,71,cs),
(558,128,l),
(251,128,l),
(374,13,l),
(374,472,l),
(374,925,l),
(374,1401,l),
(302,1273,l),
(559,1273,l),
(1068,1273,l),
(1068,1426,l),
(205,1426,l),
(205,949,l),
(205,472,l),
(205,0,l),
(435,0,l),
(395,62,l),
(395,-10,o),
(379,-74,o),
(350,-134,cs),
(320,-195,o),
(278,-252,o),
(224,-307,c)
);
},
{
closed = 1;
nodes = (
(50,647,l),
(407,647,l),
(505,647,l),
(862,647,l),
(862,773,l),
(505,773,l),
(407,773,l),
(50,773,l)
);
}
);
width = 1146;
},
{
layerId = "5BCA41AC-1A8A-4D79-8779-5300D22224AB";
shapes = (
{
closed = 1;
nodes = (
(311,-310,l),
(348,-274,o),
(387,-227,o),
(418,-170,cs),
(449,-113,o),
(468,-44,o),
(468,40,cs),
(468,62,l),
(248,62,l),
(284,10,l),
(284,476,l),
(284,944,l),
(284,1420,l),
(252,1364,l),
(514,1364,l),
(1028,1364,l),
(1028,1426,l),
(220,1426,l),
(220,950,l),
(220,476,l),
(220,0,l),
(434,0,l),
(405,23,l),
(405,-45,o),
(386,-101,o),
(354,-157,cs),
(322,-213,o),
(276,-261,o),
(220,-310,c)
);
},
{
closed = 1;
nodes = (
(60,695,l),
(394,695,l),
(486,695,l),
(820,695,l),
(820,755,l),
(486,755,l),
(394,755,l),
(60,755,l)
);
}
);
width = 1112;
}
);
rightKerningGroup = uni0492;
unicode = 1274;
},
{
glyphname = "Ghemiddlehook-cy";
layers = (
{
layerId = "6958D9FC-3AA0-42A5-A7C5-41542F6C8ADC";
shapes = (
{
closed = 1;
nodes = (
(1142,-300,l),
(1218,-228,o),
(1278,-128,o),
(1322,-11,cs),
(1365,106,o),
(1390,232,o),
(1390,357,cs),
(1390,536,o),
(1340,661,o),
(1252,749,cs),
(1164,837,o),
(1044,877,o),
(899,877,cs),
(839,877,o),
(788,872,o),
(737,861,cs),
(685,850,o),
(636,836,o),
(584,816,c),
(584,868,l),
(584,1346,l),
(382,1002,l),
(626,1002,l),
(1120,1002,l),
(1120,1426,l),
(92,1426,l),
(92,948,l),
(92,458,l),
(92,0,l),
(584,0,l),
(584,446,l),
(584,466,l),
(628,486,o),
(687,498,o),
(738,498,cs),
(785,498,o),
(821,484,o),
(846,449,cs),
(870,414,o),
(883,361,o),
(883,288,cs),
(883,203,o),
(868,112,o),
(833,15,cs),
(798,-82,o),
(744,-187,o),
(667,-300,c)
);
}
);
width = 1410;
},
{
layerId = "05F448A1-237D-4A5F-844D-77861616AAFF";
shapes = (
{
closed = 1;
nodes = (
(1040,-305,l),
(1104,-228,o),
(1165,-127,o),
(1212,-10,cs),
(1259,107,o),
(1288,235,o),
(1288,368,cs),
(1288,543,o),
(1236,667,o),
(1148,755,cs),
(1060,843,o),
(936,883,o),
(791,883,cs),
(711,883,o),
(642,873,o),
(581,858,cs),
(520,843,o),
(468,823,o),
(421,803,c),
(421,909,l),
(421,1386,l),
(311,1198,l),
(565,1198,l),
(1070,1198,l),
(1070,1426,l),
(161,1426,l),
(161,949,l),
(161,468,l),
(161,0,l),
(421,0,l),
(421,463,l),
(421,605,l),
(498,646,o),
(597,675,o),
(718,675,cs),
(814,675,o),
(889,647,o),
(941,591,cs),
(992,535,o),
(1020,452,o),
(1020,339,cs),
(1020,226,o),
(997,121,o),
(956,13,cs),
(915,-95,o),
(854,-200,o),
(781,-305,c)
);
}
);
width = 1343;
},
{
layerId = "7735F29D-4F76-449E-8F41-87F6EE236855";
shapes = (
{
closed = 1;
nodes = (
(1001,-307,l),
(1062,-228,o),
(1123,-127,o),
(1170,-10,cs),
(1218,107,o),
(1249,235,o),
(1249,372,cs),
(1249,545,o),
(1197,669,o),
(1109,757,cs),
(1020,845,o),
(897,885,o),
(751,885,cs),
(663,885,o),
(587,873,o),
(522,857,cs),
(457,840,o),
(404,818,o),
(359,798,c),
(359,925,l),
(359,1401,l),
(284,1273,l),
(542,1273,l),
(1051,1273,l),
(1051,1426,l),
(188,1426,l),
(188,949,l),
(188,472,l),
(188,0,l),
(359,0,l),
(359,469,l),
(359,657,l),
(449,707,o),
(563,742,o),
(710,742,cs),
(825,742,o),
(914,710,o),
(977,645,cs),
(1039,580,o),
(1072,486,o),
(1072,358,cs),
(1072,235,o),
(1046,124,o),
(1002,12,cs),
(959,-100,o),
(897,-205,o),
(824,-307,c)
);
}
);
width = 1318;
},
{
layerId = "5BCA41AC-1A8A-4D79-8779-5300D22224AB";
shapes = (
{
closed = 1;
nodes = (
(954,-310,l),
(1010,-229,o),
(1071,-128,o),
(1119,-11,cs),
(1167,106,o),
(1202,235,o),
(1202,376,cs),
(1202,547,o),
(1150,671,o),
(1061,759,cs),
(972,847,o),
(850,888,o),
(701,888,cs),
(604,888,o),
(519,874,o),
(450,855,cs),
(381,836,o),
(325,811,o),
(284,791,c),
(284,944,l),
(284,1420,l),
(252,1364,l),
(514,1364,l),
(1028,1364,l),
(1028,1426,l),
(220,1426,l),
(220,950,l),
(220,476,l),
(220,0,l),
(284,0,l),
(284,476,l),
(284,721,l),
(389,781,o),
(521,824,o),
(701,824,cs),
(838,824,o),
(945,788,o),
(1021,712,cs),
(1097,636,o),
(1136,527,o),
(1136,382,cs),
(1136,245,o),
(1106,127,o),
(1059,10,cs),
(1012,-107,o),
(949,-210,o),
(877,-310,c)
);
}
);
width = 1287;
}
);
rightKerningGroup = uni0402;
unicode = 1172;
},
{
glyphname = "Ghestroke-cy";
layers = (
{
layerId = "6958D9FC-3AA0-42A5-A7C5-41542F6C8ADC";
shapes = (
{
closed = 1;
nodes = (
(640,0,l),
(640,458,l),
(640,868,l),
(640,1346,l),
(450,1002,l),
(694,1002,l),
(1188,1002,l),
(1188,1426,l),
(160,1426,l),
(160,948,l),
(160,458,l),
(160,0,l)
);
},
{
closed = 1;
nodes = (
(20,504,l),
(447,504,l),
(561,504,l),
(988,504,l),
(988,826,l),
(561,826,l),
(447,826,l),
(20,826,l)
);
}
);
width = 1248;
},
{
layerId = "05F448A1-237D-4A5F-844D-77861616AAFF";
shapes = (
{
closed = 1;
nodes = (
(447,0,l),
(447,468,l),
(447,909,l),
(447,1386,l),
(343,1198,l),
(596,1198,l),
(1101,1198,l),
(1101,1426,l),
(193,1426,l),
(193,949,l),
(193,468,l),
(193,0,l)
);
},
{
closed = 1;
nodes = (
(42,608,l),
(418,608,l),
(520,608,l),
(897,608,l),
(897,788,l),
(520,788,l),
(418,788,l),
(42,788,l)
);
}
);
width = 1174;
},
{
layerId = "7735F29D-4F76-449E-8F41-87F6EE236855";
shapes = (
{
closed = 1;
nodes = (
(374,0,l),
(374,472,l),
(374,925,l),
(374,1401,l),
(302,1273,l),
(559,1273,l),
(1068,1273,l),
(1068,1426,l),
(205,1426,l),
(205,949,l),
(205,472,l),
(205,0,l)
);
},
{
closed = 1;
nodes = (
(50,647,l),
(407,647,l),
(505,647,l),
(862,647,l),
(862,773,l),
(505,773,l),
(407,773,l),
(50,773,l)
);
}
);
width = 1146;
},
{
layerId = "5BCA41AC-1A8A-4D79-8779-5300D22224AB";
shapes = (
{
closed = 1;
nodes = (
(284,0,l),
(284,476,l),
(284,944,l),
(284,1420,l),
(252,1364,l),
(514,1364,l),
(1028,1364,l),
(1028,1426,l),
(220,1426,l),
(220,950,l),
(220,476,l),
(220,0,l)
);
},
{
closed = 1;
nodes = (
(60,695,l),
(394,695,l),
(486,695,l),
(820,695,l),
(820,755,l),
(486,755,l),
(394,755,l),
(60,755,l)
);
}
);
width = 1112;
}
);
rightKerningGroup = uni0492;
unicode = 1170;
},
{
glyphname = "Gheupturn-cy";
layers = (
{
layerId = "6958D9FC-3AA0-42A5-A7C5-41542F6C8ADC";
shapes = (
{
closed = 1;
nodes = (
(584,0,l),
(584,458,l),
(584,868,l),
(584,1346,l),
(382,1002,l),
(641,1002,l),
(1135,1002,l),
(1135,1362,l),
(1135,1706,l),
(727,1706,l),
(701,1330,l),
(771,1426,l),
(92,1426,l),
(92,948,l),
(92,458,l),
(92,0,l)
);
}
);
width = 1195;
},
{
layerId = "05F448A1-237D-4A5F-844D-77861616AAFF";
shapes = (
{
closed = 1;
nodes = (
(421,0,l),
(421,468,l),
(421,909,l),
(421,1386,l),
(311,1198,l),
(572,1198,l),
(1077,1198,l),
(1077,1466,l),
(1077,1722,l),
(858,1722,l),
(843,1376,l),
(892,1426,l),
(161,1426,l),
(161,949,l),
(161,468,l),
(161,0,l)
);
}
);
width = 1150;
},
{
layerId = "7735F29D-4F76-449E-8F41-87F6EE236855";
shapes = (
{
closed = 1;
nodes = (
(359,0,l),
(359,472,l),
(359,925,l),
(359,1401,l),
(284,1273,l),
(546,1273,l),
(1055,1273,l),
(1055,1505,l),
(1055,1728,l),
(908,1728,l),
(897,1394,l),
(938,1426,l),
(188,1426,l),
(188,949,l),
(188,472,l),
(188,0,l)
);
}
);
width = 1133;
},
{
layerId = "5BCA41AC-1A8A-4D79-8779-5300D22224AB";
shapes = (
{
closed = 1;
nodes = (
(284,0,l),
(284,476,l),
(284,944,l),
(284,1420,l),
(252,1364,l),
(514,1364,l),
(1028,1364,l),
(1028,1553,l),
(1028,1736,l),
(968,1736,l),
(963,1415,l),
(994,1426,l),
(220,1426,l),
(220,950,l),
(220,476,l),
(220,0,l)
);
}
);
width = 1112;
}
);
rightKerningGroup = uni0403;
unicode = 1168;
},
{
glyphname = H;
layers = (
{
anchors = (
{
name = "#exit";
position = "{1410, 0}";
},
{
name = bottom;
position = "{752, 0}";
},
{
name = center;
position = "{752, 714}";
},
{
name = top;
position = "{752, 1426}";
},
{
name = topleft;
position = "{80, 1426}";
}
);
layerId = "6958D9FC-3AA0-42A5-A7C5-41542F6C8ADC";
shapes = (
{
closed = 1;
nodes = (
(1410,0,l),
(1410,458,l),
(1410,948,l),
(1410,1426,l),
(918,1426,l),
(918,948,l),
(918,458,l),
(918,0,l)
);
},
{
closed = 1;
nodes = (
(584,0,l),
(584,458,l),
(584,948,l),
(584,1426,l),
(92,1426,l),
(92,948,l),
(92,458,l),
(92,0,l)
);
},
{
closed = 1;
nodes = (
(1044,512,l),
(1044,916,l),
(464,916,l),
(464,512,l)
);
}
);
width = 1502;
},
{
anchors = (
{
name = "#exit";
position = "{1352, 0}";
},
{
name = bottom;
position = "{751, 0}";
},
{
name = center;
position = "{751, 714}";
},
{
name = top;
position = "{751, 1426}";
},
{
name = topleft;
position = "{54, 1426}";
}
);
layerId = "05F448A1-237D-4A5F-844D-77861616AAFF";
shapes = (
{
closed = 1;
nodes = (
(1338,0,l),
(1338,468,l),
(1338,950,l),
(1338,1427,l),
(1078,1427,l),
(1078,950,l),
(1078,468,l),
(1078,0,l)
);
},
{
closed = 1;
nodes = (
(421,0,l),
(421,468,l),
(421,950,l),
(421,1427,l),
(161,1427,l),
(161,950,l),
(161,468,l),
(161,0,l)
);
},
{
closed = 1;
nodes = (
(1162,611,l),
(1162,830,l),
(343,830,l),
(343,611,l)
);
}
);
width = 1500;
},
{
anchors = (
{
name = "#exit";
position = "{1311, 0}";
},
{
name = bottom;
position = "{751, 0}";
},
{
name = center;
position = "{751, 714}";
},
{
name = top;
position = "{751, 1426}";
},
{
name = topleft;
position = "{35, 1426}";
}
);
layerId = "7735F29D-4F76-449E-8F41-87F6EE236855";
shapes = (
{
closed = 1;
nodes = (
(1311,0,l),
(1311,472,l),
(1311,950,l),
(1311,1427,l),
(1139,1427,l),
(1139,950,l),
(1139,472,l),
(1139,0,l)
);
},
{
closed = 1;
nodes = (
(359,0,l),
(359,472,l),
(359,950,l),
(359,1427,l),
(188,1427,l),
(188,950,l),
(188,472,l),
(188,0,l)
);
},
{
closed = 1;
nodes = (
(1207,648,l),
(1207,797,l),
(298,797,l),
(298,648,l)
);
}
);
width = 1499;
},
{
anchors = (
{
name = "#exit";
position = "{1278, 0}";
},
{
name = bottom;
position = "{750, 0}";
},
{
name = center;
position = "{750, 714}";
},
{
name = top;
position = "{750, 1426}";
},
{
name = topleft;
position = "{20, 1426}";
}
);
layerId = "5BCA41AC-1A8A-4D79-8779-5300D22224AB";
shapes = (
{
closed = 1;
nodes = (
(1278,0,l),
(1278,476,l),
(1278,950,l),
(1278,1426,l),
(1214,1426,l),
(1214,950,l),
(1214,476,l),
(1214,0,l)
);
},
{
closed = 1;
nodes = (
(284,0,l),
(284,476,l),
(284,950,l),
(284,1426,l),
(220,1426,l),
(220,950,l),
(220,476,l),
(220,0,l)
);
},
{
closed = 1;
nodes = (
(1262,694,l),
(1262,756,l),
(242,756,l),
(242,694,l)
);
}
);
width = 1498;
}
);
leftKerningGroup = B;
rightKerningGroup = H;
unicode = 72;
},
{
glyphname = "Haabkhasian-cy";
layers = (
{
layerId = "6958D9FC-3AA0-42A5-A7C5-41542F6C8ADC";
shapes = (
{
closed = 1;
nodes = (
(992,-32,o),
(1149,11,o),
(1266,108,cs),
(1437,254,l),
(1537,298,o),
(1608,375,o),
(1656,475,cs),
(1704,575,o),
(1727,687,o),
(1727,808,cs),
(1727,965,o),
(1678,1093,o),
(1590,1185,cs),
(1502,1277,o),
(1383,1326,o),
(1238,1326,cs),
(1069,1326,o),
(949,1276,o),
(865,1180,cs),
(781,1084,o),
(742,952,o),
(742,780,cs),
(742,663,o),
(765,565,o),
(812,469,cs),
(859,373,o),
(927,291,o),
(1020,211,c),
(1136,92,l),
(1257,12,o),
(1403,-32,o),
(1572,-32,cs),
(1608,-32,o),
(1650,-29,o),
(1690,-24,cs),
(1730,-19,o),
(1768,-10,o),
(1796,3,c),
(1783,355,l),
(1695,324,o),
(1627,313,o),
(1536,313,cs),
(1375,313,o),
(1266,355,o),
(1194,428,cs),
(1122,501,o),
(1093,606,o),
(1093,731,cs),
(1093,788,o),
(1099,842,o),
(1118,882,cs),
(1137,922,o),
(1163,948,o),
(1206,948,cs),
(1233,948,o),
(1254,933,o),
(1270,905,cs),
(1285,877,o),
(1294,836,o),
(1294,784,cs),
(1294,671,o),
(1266,564,o),
(1202,480,cs),
(1138,397,o),
(1041,342,o),
(902,342,cs),
(795,342,o),
(707,374,o),
(647,435,cs),
(586,495,o),
(551,584,o),
(551,701,cs),
(551,748,o),
(561,822,o),
(589,894,cs),
(617,966,o),
(665,1035,o),
(741,1068,c),
(724,1458,l),
(491,1437,o),
(327,1347,o),
(214,1214,cs),
(101,1081,o),
(48,909,o),
(48,717,cs),
(48,488,o),
(121,305,o),
(254,172,cs),
(387,41,o),
(581,-32,o),
(824,-32,cs)
);
}
);
width = 1834;
},
{
layerId = "05F448A1-237D-4A5F-844D-77861616AAFF";
shapes = (
{
closed = 1;
nodes = (
(980,-24,o),
(1111,11,o),
(1219,83,c),
(1309,154,l),
(1414,207,o),
(1498,291,o),
(1555,399,cs),
(1611,507,o),
(1642,631,o),
(1642,768,cs),
(1642,944,o),
(1598,1076,o),
(1518,1168,cs),
(1438,1260,o),
(1326,1308,o),
(1189,1308,cs),
(1052,1308,o),
(940,1259,o),
(856,1166,cs),
(772,1073,o),
(725,938,o),
(725,757,cs),
(725,612,o),
(756,489,o),
(812,389,cs),
(868,288,o),
(949,207,o),
(1053,143,c),
(1134,77,l),
(1242,13,o),
(1366,-24,o),
(1507,-24,cs),
(1548,-24,o),
(1593,-22,o),
(1637,-15,c),
(1680,-7,o),
(1723,3,o),
(1756,19,c),
(1744,216,l),
(1665,183,o),
(1585,169,o),
(1490,169,cs),
(1310,169,o),
(1180,238,o),
(1092,343,cs),
(1004,447,o),
(960,590,o),
(960,735,cs),
(960,844,o),
(977,934,o),
(1013,998,cs),
(1049,1062,o),
(1106,1096,o),
(1183,1096,cs),
(1255,1096,o),
(1305,1067,o),
(1341,1007,cs),
(1376,947,o),
(1393,866,o),
(1393,758,cs),
(1393,617,o),
(1351,475,o),
(1266,367,cs),
(1181,258,o),
(1051,183,o),
(874,183,cs),
(697,183,o),
(568,242,o),
(481,338,cs),
(393,434,o),
(353,565,o),
(353,710,cs),
(353,831,o),
(386,953,o),
(454,1050,cs),
(522,1147,o),
(623,1219,o),
(756,1239,c),
(748,1454,l),
(540,1441,o),
(380,1360,o),
(264,1227,cs),
(148,1094,o),
(87,922,o),
(87,718,cs),
(87,505,o),
(153,322,o),
(282,189,cs),
(409,56,o),
(598,-24,o),
(839,-24,cs)
);
}
);
width = 1781;
},
{
layerId = "7735F29D-4F76-449E-8F41-87F6EE236855";
shapes = (
{
closed = 1;
nodes = (
(976,-21,o),
(1097,11,o),
(1201,73,c),
(1260,116,l),
(1369,172,o),
(1456,259,o),
(1517,369,cs),
(1576,480,o),
(1610,609,o),
(1610,753,cs),
(1610,935,o),
(1564,1069,o),
(1486,1161,cs),
(1408,1254,o),
(1300,1301,o),
(1176,1301,cs),
(1054,1301,o),
(945,1253,o),
(865,1161,cs),
(784,1068,o),
(735,933,o),
(735,748,cs),
(735,599,o),
(769,471,o),
(829,363,cs),
(889,256,o),
(975,171,o),
(1081,109,c),
(1134,71,l),
(1236,14,o),
(1352,-21,o),
(1482,-21,cs),
(1525,-21,o),
(1571,-19,o),
(1616,-11,cs),
(1661,-3,o),
(1705,8,o),
(1741,25,c),
(1729,163,l),
(1653,129,o),
(1569,115,o),
(1473,115,cs),
(1287,115,o),
(1145,184,o),
(1046,298,cs),
(947,411,o),
(894,565,o),
(894,737,cs),
(894,866,o),
(919,970,o),
(966,1043,cs),
(1013,1116,o),
(1084,1155,o),
(1174,1155,cs),
(1263,1155,o),
(1327,1118,o),
(1374,1047,cs),
(1420,976,o),
(1443,876,o),
(1443,748,cs),
(1443,584,o),
(1395,430,o),
(1297,314,cs),
(1200,198,o),
(1055,122,o),
(863,122,cs),
(659,122,o),
(514,192,o),
(418,301,cs),
(321,410,o),
(278,556,o),
(278,714,cs),
(278,863,o),
(320,1002,o),
(403,1109,cs),
(485,1217,o),
(605,1290,o),
(761,1304,c),
(757,1452,l),
(558,1443,o),
(399,1363,o),
(283,1232,cs),
(166,1101,o),
(102,927,o),
(102,718,cs),
(102,511,o),
(165,330,o),
(292,195,cs),
(418,61,o),
(603,-21,o),
(844,-21,cs)
);
}
);
width = 1761;
},
{
layerId = "5BCA41AC-1A8A-4D79-8779-5300D22224AB";
shapes = (
{
closed = 1;
nodes = (
(972,-18,o),
(1080,12,o),
(1180,61,c),
(1201,69,l),
(1314,129,o),
(1405,220,o),
(1470,333,cs),
(1534,446,o),
(1571,582,o),
(1571,735,cs),
(1571,924,o),
(1523,1060,o),
(1447,1153,cs),
(1371,1246,o),
(1269,1292,o),
(1161,1292,cs),
(1056,1292,o),
(952,1246,o),
(875,1154,cs),
(798,1062,o),
(748,926,o),
(748,737,cs),
(748,584,o),
(785,448,o),
(850,332,cs),
(914,216,o),
(1007,127,o),
(1116,67,c),
(1133,64,l),
(1229,15,o),
(1335,-18,o),
(1452,-18,cs),
(1496,-18,o),
(1544,-15,o),
(1591,-7,cs),
(1638,1,o),
(1683,13,o),
(1722,32,c),
(1711,99,l),
(1639,63,o),
(1549,48,o),
(1452,48,cs),
(1259,48,o),
(1103,117,o),
(990,242,cs),
(877,367,o),
(814,535,o),
(814,739,cs),
(814,892,o),
(848,1013,o),
(908,1097,cs),
(968,1181,o),
(1056,1226,o),
(1164,1226,cs),
(1272,1226,o),
(1354,1180,o),
(1414,1096,cs),
(1474,1012,o),
(1505,889,o),
(1505,736,cs),
(1505,544,o),
(1448,375,o),
(1335,250,cs),
(1223,125,o),
(1059,48,o),
(850,48,cs),
(613,48,o),
(447,131,o),
(340,256,cs),
(232,381,o),
(186,546,o),
(186,718,cs),
(186,903,o),
(240,1061,o),
(340,1182,cs),
(440,1303,o),
(583,1376,o),
(768,1384,c),
(768,1450,l),
(581,1445,o),
(423,1367,o),
(306,1238,cs),
(189,1109,o),
(120,932,o),
(120,719,cs),
(120,519,o),
(180,339,o),
(305,202,cs),
(428,67,o),
(610,-18,o),
(851,-18,cs)
);
}
);
width = 1737;
}
);
leftKerningGroup = uni0404_2;
unicode = 1192;
},
{
glyphname = "Hadescender-cy";
layers = (
{
layerId = "6958D9FC-3AA0-42A5-A7C5-41542F6C8ADC";
shapes = (
{
closed = 1;
nodes = (
(574,0,l),
(602,87,o),
(626,162,o),
(650,235,cs),
(708,414,l),
(740,414,l),
(802,236,ls),
(827,164,o),
(853,89,o),
(884,0,c),
(1460,0,l),
(1383,151,o),
(1312,286,o),
(1232,441,cs),
(1070,754,l),
(1070,634,l),
(1230,988,ls),
(1286,1113,o),
(1352,1258,o),
(1428,1426,c),
(894,1426,l),
(863,1330,o),
(837,1245,o),
(810,1161,cs),
(760,1004,l),
(728,1004,l),
(674,1160,ls),
(646,1241,o),
(614,1333,o),
(582,1426,c),
(28,1426,l),
(108,1261,o),
(175,1124,o),
(240,988,cs),
(384,690,l),
(384,794,l),
(223,429,ls),
(155,276,o),
(94,137,o),
(34,0,c)
);
},
{
closed = 1;
nodes = (
(1553,-300,l),
(1553,44,l),
(1553,404,l),
(1019,404,l),
(1019,0,l),
(1194,0,l),
(1119,76,l),
(1145,-300,l)
);
}
);
width = 1575;
},
{
layerId = "05F448A1-237D-4A5F-844D-77861616AAFF";
shapes = (
{
closed = 1;
nodes = (
(353,0,l),
(418,115,o),
(474,213,o),
(531,314,cs),
(666,553,l),
(687,553,l),
(831,315,ls),
(891,219,o),
(951,117,o),
(1023,0,c),
(1330,0,l),
(1233,151,o),
(1148,286,o),
(1049,439,cs),
(850,751,l),
(850,678,l),
(1044,1011,ls),
(1113,1132,o),
(1193,1269,o),
(1285,1426,c),
(997,1426,l),
(932,1309,o),
(867,1193,o),
(807,1088,cs),
(694,887,l),
(673,887,l),
(556,1087,ls),
(495,1191,o),
(430,1305,o),
(358,1426,c),
(61,1426,l),
(160,1263,o),
(241,1130,o),
(324,995,cs),
(503,701,l),
(503,767,l),
(299,412,ls),
(215,263,o),
(139,133,o),
(63,0,c)
);
},
{
closed = 1;
nodes = (
(1416,-305,l),
(1416,-49,l),
(1416,219,l),
(1091,219,l),
(1091,0,l),
(1233,0,l),
(1182,41,l),
(1197,-305,l)
);
}
);
width = 1462;
},
{
layerId = "7735F29D-4F76-449E-8F41-87F6EE236855";
shapes = (
{
closed = 1;
nodes = (
(269,0,l),
(348,126,o),
(416,233,o),
(486,344,cs),
(650,606,l),
(667,606,l),
(842,345,l),
(915,240,o),
(989,128,o),
(1076,0,c),
(1281,0,l),
(1177,151,o),
(1085,286,o),
(980,438,cs),
(766,750,l),
(766,694,l),
(973,1020,l),
(1047,1139,o),
(1133,1273,o),
(1231,1426,c),
(1036,1426,l),
(957,1300,o),
(879,1175,o),
(806,1061,cs),
(669,842,l),
(652,842,l),
(511,1059,ls),
(438,1173,o),
(359,1294,o),
(273,1426,c),
(73,1426,l),
(180,1264,o),
(267,1132,o),
(356,997,cs),
(548,705,l),
(548,757,l),
(328,406,l),
(237,259,o),
(156,131,o),
(74,0,c)
);
},
{
closed = 1;
nodes = (
(1364,-307,l),
(1364,-84,l),
(1364,148,l),
(1118,148,l),
(1118,0,l),
(1248,0,l),
(1206,28,l),
(1217,-307,l)
);
}
);
width = 1419;
},
{
layerId = "5BCA41AC-1A8A-4D79-8779-5300D22224AB";
shapes = (
{
closed = 1;
nodes = (
(166,0,l),
(263,140,o),
(345,257,o),
(430,381,cs),
(630,670,l),
(642,670,l),
(856,382,ls),
(944,265,o),
(1036,141,o),
(1140,0,c),
(1220,0,l),
(1108,151,o),
(1008,285,o),
(895,437,cs),
(664,748,l),
(664,714,l),
(886,1030,ls),
(966,1147,o),
(1060,1277,o),
(1164,1426,c),
(1084,1426,l),
(988,1289,o),
(893,1152,o),
(805,1027,cs),
(638,788,l),
(626,788,l),
(456,1025,ls),
(368,1150,o),
(272,1281,o),
(168,1426,c),
(88,1426,l),
(204,1265,o),
(298,1135,o),
(395,1000,cs),
(604,710,l),
(604,744,l),
(364,398,ls),
(264,253,o),
(176,129,o),
(88,0,c)
);
},
{
closed = 1;
nodes = (
(1301,-310,l),
(1301,-127,l),
(1301,62,l),
(1152,62,l),
(1152,0,l),
(1267,0,l),
(1236,11,l),
(1241,-310,l)
);
}
);
width = 1366;
}
);
rightKerningGroup = uni0496;
unicode = 1202;
},
{
glyphname = "Hahook-cy";
layers = (
{
layerId = "6958D9FC-3AA0-42A5-A7C5-41542F6C8ADC";
shapes = (
{
closed = 1;
nodes = (
(1288,-300,l),
(1380,-232,o),
(1416,-146,o),
(1416,-54,cs),
(1416,18,o),
(1402,83,o),
(1373,159,cs),
(1344,235,o),
(1300,321,o),
(1236,441,cs),
(1070,754,l),
(1070,634,l),
(1230,988,ls),
(1286,1113,o),
(1352,1258,o),
(1428,1426,c),
(894,1426,l),
(863,1330,o),
(837,1245,o),
(810,1161,cs),
(760,1004,l),
(728,1004,l),
(674,1160,ls),
(646,1241,o),
(614,1333,o),
(582,1426,c),
(28,1426,l),
(108,1261,o),
(175,1124,o),
(240,988,cs),
(384,690,l),
(384,794,l),
(223,429,ls),
(155,276,o),
(94,137,o),
(34,0,c),
(574,0,l),
(602,87,o),
(626,162,o),
(650,235,cs),
(708,414,l),
(740,414,l),
(823,236,ls),
(847,184,o),
(867,133,o),
(883,82,c),
(898,30,o),
(906,-23,o),
(906,-76,cs),
(906,-156,o),
(885,-228,o),
(844,-300,c)
);
}
);
width = 1479;
},
{
layerId = "05F448A1-237D-4A5F-844D-77861616AAFF";
shapes = (
{
closed = 1;
nodes = (
(1200,-305,l),
(1264,-241,o),
(1295,-163,o),
(1295,-79,cs),
(1295,-11,o),
(1281,51,o),
(1242,128,cs),
(1203,205,o),
(1146,297,o),
(1058,430,cs),
(850,751,l),
(850,677,l),
(1044,1011,ls),
(1113,1132,o),
(1193,1269,o),
(1285,1426,c),
(997,1426,l),
(932,1309,o),
(867,1193,o),
(807,1088,cs),
(694,887,l),
(673,887,l),
(556,1087,ls),
(495,1191,o),
(430,1305,o),
(358,1426,c),
(61,1426,l),
(160,1263,o),
(241,1130,o),
(324,995,cs),
(503,701,l),
(503,767,l),
(300,412,ls),
(215,263,o),
(139,133,o),
(63,0,c),
(353,0,l),
(418,115,o),
(474,213,o),
(531,314,cs),
(666,553,l),
(687,553,l),
(841,315,l),
(909,215,o),
(955,144,o),
(984,80,cs),
(1013,16,o),
(1026,-34,o),
(1026,-90,cs),
(1026,-166,o),
(1001,-237,o),
(954,-305,c)
);
}
);
width = 1374;
},
{
layerId = "7735F29D-4F76-449E-8F41-87F6EE236855";
shapes = (
{
closed = 1;
nodes = (
(1166,-307,l),
(1220,-245,o),
(1249,-169,o),
(1249,-89,cs),
(1249,-22,o),
(1233,38,o),
(1192,116,cs),
(1150,194,o),
(1087,288,o),
(990,426,c),
(766,750,l),
(766,694,l),
(973,1020,l),
(1047,1139,o),
(1133,1273,o),
(1231,1426,c),
(1036,1426,l),
(957,1300,o),
(879,1175,o),
(806,1061,cs),
(669,842,l),
(652,842,l),
(511,1059,ls),
(438,1173,o),
(359,1294,o),
(273,1426,c),
(73,1426,l),
(180,1264,o),
(267,1132,o),
(356,997,cs),
(548,705,l),
(548,757,l),
(329,406,ls),
(237,259,o),
(156,131,o),
(74,0,c),
(269,0,l),
(348,126,o),
(416,233,o),
(486,344,cs),
(650,606,l),
(667,606,l),
(848,345,l),
(932,227,o),
(987,147,o),
(1023,80,cs),
(1058,12,o),
(1071,-39,o),
(1071,-95,cs),
(1071,-171,o),
(1045,-241,o),
(996,-307,c)
);
}
);
width = 1334;
},
{
layerId = "5BCA41AC-1A8A-4D79-8779-5300D22224AB";
shapes = (
{
closed = 1;
nodes = (
(1125,-310,l),
(1166,-250,o),
(1193,-177,o),
(1193,-101,cs),
(1193,-36,o),
(1175,22,o),
(1131,102,cs),
(1086,181,o),
(1015,276,o),
(907,421,cs),
(664,748,l),
(664,714,l),
(886,1030,ls),
(966,1147,o),
(1060,1277,o),
(1164,1426,c),
(1084,1426,l),
(988,1289,o),
(893,1152,o),
(805,1027,cs),
(638,788,l),
(626,788,l),
(456,1025,ls),
(368,1150,o),
(272,1281,o),
(168,1426,c),
(88,1426,l),
(204,1265,o),
(298,1135,o),
(395,1000,cs),
(604,710,l),
(604,744,l),
(364,398,ls),
(264,253,o),
(176,129,o),
(88,0,c),
(166,0,l),
(263,140,o),
(345,257,o),
(430,381,cs),
(630,670,l),
(642,670,l),
(856,382,ls),
(960,242,o),
(1027,151,o),
(1070,79,cs),
(1113,7,o),
(1127,-45,o),
(1127,-101,cs),
(1127,-177,o),
(1098,-246,o),
(1047,-310,c)
);
}
);
width = 1286;
}
);
leftKerningGroup = uni0416;
unicode = 1276;
},
{
glyphname = "Hardsign-cy";
layers = (
{
anchors = (
{
name = top;
position = "{819, 1426}";
}
);
layerId = "6958D9FC-3AA0-42A5-A7C5-41542F6C8ADC";
shapes = (
{
closed = 1;
nodes = (
(1083,0,ls),
(1266,0,o),
(1394,50,o),
(1478,138,cs),
(1562,226,o),
(1599,353,o),
(1599,506,cs),
(1599,701,o),
(1549,823,o),
(1453,899,cs),
(1357,975,o),
(1217,1000,o),
(1029,1000,cs),
(809,1000,l),
(809,630,l),
(995,630,ls),
(1006,630,o),
(1017,629,o),
(1026,626,cs),
(1045,621,o),
(1061,610,o),
(1073,594,cs),
(1080,586,o),
(1084,578,o),
(1088,567,cs),
(1096,546,o),
(1101,520,o),
(1101,488,cs),
(1101,440,o),
(1093,404,o),
(1074,380,cs),
(1054,356,o),
(1026,344,o),
(983,344,cs),
(867,344,l),
(867,538,l),
(867,948,l),
(867,1426,l),
(40,1426,l),
(40,1002,l),
(378,1002,l),
(567,1002,l),
(385,1346,l),
(385,868,l),
(385,458,l),
(385,0,l)
);
}
);
width = 1643;
},
{
anchors = (
{
name = top;
position = "{799, 1426}";
}
);
layerId = "05F448A1-237D-4A5F-844D-77861616AAFF";
shapes = (
{
closed = 1;
nodes = (
(1013,0,ls),
(1208,0,o),
(1339,49,o),
(1420,130,cs),
(1504,214,o),
(1535,327,o),
(1535,464,cs),
(1535,623,o),
(1493,733,o),
(1409,802,c),
(1325,874,o),
(1202,901,o),
(1031,901,cs),
(715,901,l),
(715,691,l),
(1014,691,ls),
(1034,691,o),
(1054,691,o),
(1075,688,c),
(1115,684,o),
(1154,672,o),
(1187,651,cs),
(1204,640,o),
(1218,627,o),
(1231,610,cs),
(1255,577,o),
(1271,529,o),
(1271,464,cs),
(1271,375,o),
(1249,310,o),
(1198,270,cs),
(1147,229,o),
(1071,210,o),
(966,210,cs),
(747,210,l),
(747,509,l),
(747,949,l),
(747,1426,l),
(56,1426,l),
(56,1198,l),
(434,1198,l),
(634,1198,l),
(491,1386,l),
(491,909,l),
(491,468,l),
(491,0,l)
);
}
);
width = 1608;
},
{
anchors = (
{
name = top;
position = "{790, 1426}";
}
);
layerId = "7735F29D-4F76-449E-8F41-87F6EE236855";
shapes = (
{
closed = 1;
nodes = (
(986,0,ls),
(1186,0,o),
(1317,48,o),
(1398,127,cs),
(1480,208,o),
(1511,318,o),
(1511,450,cs),
(1511,593,o),
(1473,696,o),
(1393,763,cs),
(1312,831,o),
(1197,861,o),
(1032,861,cs),
(679,861,l),
(679,718,l),
(1021,718,ls),
(1044,718,o),
(1068,717,o),
(1093,715,cs),
(1142,711,o),
(1189,699,o),
(1230,675,cs),
(1252,662,o),
(1269,647,o),
(1285,627,cs),
(1316,587,o),
(1336,530,o),
(1336,450,cs),
(1336,341,o),
(1308,264,o),
(1245,215,cs),
(1183,165,o),
(1089,143,o),
(959,143,cs),
(701,143,l),
(701,498,l),
(701,949,l),
(701,1426,l),
(62,1426,l),
(62,1273,l),
(456,1273,l),
(624,1273,l),
(532,1401,l),
(532,925,l),
(532,472,l),
(532,0,l)
);
}
);
width = 1595;
},
{
anchors = (
{
name = top;
position = "{782, 1426}";
}
);
layerId = "5BCA41AC-1A8A-4D79-8779-5300D22224AB";
shapes = (
{
closed = 1;
nodes = (
(953,0,ls),
(1158,0,o),
(1290,46,o),
(1371,123,cs),
(1451,200,o),
(1481,307,o),
(1481,432,cs),
(1481,556,o),
(1448,651,o),
(1373,715,cs),
(1297,779,o),
(1190,812,o),
(1033,812,cs),
(635,812,l),
(635,750,l),
(1029,750,ls),
(1056,750,o),
(1085,749,o),
(1114,748,c),
(1174,744,o),
(1231,731,o),
(1283,704,c),
(1310,689,o),
(1332,671,o),
(1351,648,cs),
(1390,600,o),
(1415,532,o),
(1415,432,cs),
(1415,299,o),
(1379,207,o),
(1303,147,cs),
(1227,87,o),
(1112,62,o),
(951,62,cs),
(645,62,l),
(645,484,l),
(645,950,l),
(645,1426,l),
(70,1426,l),
(70,1364,l),
(482,1364,l),
(611,1364,l),
(581,1420,l),
(581,944,l),
(581,476,l),
(581,0,l)
);
}
);
width = 1579;
}
);
leftKerningGroup = uni0402_2;
rightKerningGroup = uni0409;
unicode = 1066;
},
{
glyphname = "Hastroke-cy";
layers = (
{
layerId = "6958D9FC-3AA0-42A5-A7C5-41542F6C8ADC";
shapes = (
{
closed = 1;
nodes = (
(574,0,l),
(602,87,o),
(626,162,o),
(650,235,cs),
(708,414,l),
(740,414,l),
(802,236,ls),
(827,164,o),
(853,89,o),
(884,0,c),
(1460,0,l),
(1379,151,o),
(1304,286,o),
(1220,441,cs),
(1050,754,l),
(1050,634,l),
(1218,988,ls),
(1278,1113,o),
(1349,1261,o),
(1426,1426,c),
(894,1426,l),
(863,1330,o),
(837,1245,o),
(810,1161,cs),
(760,1004,l),
(728,1004,l),
(674,1160,ls),
(646,1241,o),
(614,1333,o),
(582,1426,c),
(28,1426,l),
(112,1261,o),
(183,1124,o),
(252,988,cs),
(404,690,l),
(404,784,l),
(234,429,ls),
(162,276,o),
(98,137,o),
(34,0,c)
);
},
{
closed = 1;
nodes = (
(79,554,l),
(506,554,l),
(960,554,l),
(1387,554,l),
(1387,876,l),
(960,876,l),
(506,876,l),
(79,876,l)
);
}
);
width = 1488;
},
{
layerId = "05F448A1-237D-4A5F-844D-77861616AAFF";
shapes = (
{
closed = 1;
nodes = (
(353,0,l),
(418,116,o),
(474,213,o),
(531,314,cs),
(666,553,l),
(687,553,l),
(831,315,ls),
(891,219,o),
(951,117,o),
(1023,0,c),
(1330,0,l),
(1233,151,o),
(1144,286,o),
(1044,439,cs),
(841,751,l),
(841,678,l),
(1038,1011,ls),
(1110,1132,o),
(1192,1269,o),
(1284,1426,c),
(997,1426,l),
(932,1309,o),
(867,1193,o),
(807,1089,cs),
(694,887,l),
(673,887,l),
(556,1087,ls),
(495,1191,o),
(430,1305,o),
(358,1426,c),
(61,1426,l),
(162,1265,o),
(245,1130,o),
(330,995,cs),
(512,701,l),
(512,763,l),
(304,413,ls),
(216,264,o),
(140,133,o),
(63,0,c)
);
},
{
closed = 1;
nodes = (
(136,634,l),
(513,634,l),
(847,634,l),
(1223,634,l),
(1223,814,l),
(847,814,l),
(513,814,l),
(136,814,l)
);
}
);
width = 1390;
},
{
layerId = "7735F29D-4F76-449E-8F41-87F6EE236855";
shapes = (
{
closed = 1;
nodes = (
(269,0,l),
(348,127,o),
(416,233,o),
(486,344,cs),
(650,606,l),
(667,606,l),
(842,345,l),
(915,240,o),
(989,128,o),
(1076,0,c),
(1281,0,l),
(1177,151,o),
(1083,286,o),
(977,438,cs),
(761,750,l),
(761,694,l),
(970,1020,ls),
(1045,1139,o),
(1133,1273,o),
(1230,1426,c),
(1036,1426,l),
(957,1300,o),
(879,1175,o),
(806,1061,c),
(669,842,l),
(652,842,l),
(511,1059,ls),
(438,1173,o),
(359,1294,o),
(273,1426,c),
(73,1426,l),
(181,1265,o),
(269,1132,o),
(359,997,cs),
(553,705,l),
(553,754,l),
(331,406,ls),
(238,259,o),
(156,131,o),
(74,0,c)
);
},
{
closed = 1;
nodes = (
(158,664,l),
(516,664,l),
(804,664,l),
(1161,664,l),
(1161,790,l),
(804,790,l),
(516,790,l),
(158,790,l)
);
}
);
width = 1353;
},
{
layerId = "5BCA41AC-1A8A-4D79-8779-5300D22224AB";
shapes = (
{
closed = 1;
nodes = (
(166,0,l),
(263,140,o),
(345,257,o),
(430,381,cs),
(630,670,l),
(642,670,l),
(856,382,ls),
(944,265,o),
(1036,141,o),
(1140,0,c),
(1220,0,l),
(1108,151,o),
(1008,285,o),
(895,437,cs),
(664,748,l),
(664,714,l),
(886,1030,ls),
(966,1147,o),
(1060,1277,o),
(1164,1426,c),
(1084,1426,l),
(988,1289,o),
(893,1152,o),
(805,1027,cs),
(638,788,l),
(626,788,l),
(456,1025,ls),
(368,1150,o),
(272,1281,o),
(168,1426,c),
(88,1426,l),
(204,1265,o),
(298,1135,o),
(395,1000,cs),
(604,710,l),
(604,744,l),
(364,398,ls),
(264,253,o),
(176,129,o),
(88,0,c)
);
},
{
closed = 1;
nodes = (
(185,701,l),
(519,701,l),
(751,701,l),
(1085,701,l),
(1085,761,l),
(751,761,l),
(519,761,l),
(185,761,l)
);
}
);
width = 1308;
}
);
unicode = 1278;
},
{
glyphname = Hbar;
layers = (
{
anchors = (
{
name = bottom;
position = "{752, 0}";
},
{
name = top;
position = "{752, 1426}";
},
{
name = topleft;
position = "{76, 1426}";
}
);
layerId = "6958D9FC-3AA0-42A5-A7C5-41542F6C8ADC";
shapes = (
{
closed = 1;
nodes = (
(1410,0,l),
(1410,458,l),
(1410,948,l),
(1410,1426,l),
(918,1426,l),
(918,948,l),
(918,458,l),
(918,0,l)
);
},
{
closed = 1;
nodes = (
(584,0,l),
(584,458,l),
(584,948,l),
(584,1426,l),
(92,1426,l),
(92,948,l),
(92,458,l),
(92,0,l)
);
},
{
closed = 1;
nodes = (
(1044,462,l),
(1044,846,l),
(464,846,l),
(464,462,l)
);
},
{
closed = 1;
nodes = (
(-48,986,l),
(374,986,l),
(1130,986,l),
(1552,986,l),
(1552,1288,l),
(1130,1288,l),
(374,1288,l),
(-48,1288,l)
);
}
);
width = 1502;
},
{
anchors = (
{
name = bottom;
position = "{751, 0}";
},
{
name = top;
position = "{751, 1426}";
},
{
name = topleft;
position = "{74, 1426}";
}
);
layerId = "05F448A1-237D-4A5F-844D-77861616AAFF";
shapes = (
{
closed = 1;
nodes = (
(1338,0,l),
(1338,468,l),
(1338,949,l),
(1338,1426,l),
(1078,1426,l),
(1078,949,l),
(1078,468,l),
(1078,0,l)
);
},
{
closed = 1;
nodes = (
(421,0,l),
(421,468,l),
(421,949,l),
(421,1426,l),
(161,1426,l),
(161,949,l),
(161,468,l),
(161,0,l)
);
},
{
closed = 1;
nodes = (
(1162,588,l),
(1162,797,l),
(343,797,l),
(343,588,l)
);
},
{
closed = 1;
nodes = (
(11,1028,l),
(401,1028,l),
(1101,1028,l),
(1491,1028,l),
(1491,1199,l),
(1101,1199,l),
(401,1199,l),
(11,1199,l)
);
}
);
width = 1500;
},
{
anchors = (
{
name = bottom;
position = "{751, 0}";
},
{
name = top;
position = "{751, 1426}";
},
{
name = topleft;
position = "{73, 1426}";
}
);
layerId = "7735F29D-4F76-449E-8F41-87F6EE236855";
shapes = (
{
closed = 1;
nodes = (
(1311,0,l),
(1311,472,l),
(1311,949,l),
(1311,1426,l),
(1139,1426,l),
(1139,949,l),
(1139,472,l),
(1139,0,l)
);
},
{
closed = 1;
nodes = (
(359,0,l),
(359,472,l),
(359,949,l),
(359,1426,l),
(188,1426,l),
(188,949,l),
(188,472,l),
(188,0,l)
);
},
{
closed = 1;
nodes = (
(1207,636,l),
(1207,779,l),
(298,779,l),
(298,636,l)
);
},
{
closed = 1;
nodes = (
(33,1044,l),
(411,1044,l),
(1090,1044,l),
(1468,1044,l),
(1468,1165,l),
(1090,1165,l),
(411,1165,l),
(33,1165,l)
);
}
);
width = 1499;
},
{
anchors = (
{
name = bottom;
position = "{750, 0}";
},
{
name = top;
position = "{750, 1426}";
},
{
name = topleft;
position = "{72, 1426}";
}
);
layerId = "5BCA41AC-1A8A-4D79-8779-5300D22224AB";
shapes = (
{
closed = 1;
nodes = (
(1278,0,l),
(1278,476,l),
(1278,950,l),
(1278,1426,l),
(1214,1426,l),
(1214,950,l),
(1214,476,l),
(1214,0,l)
);
},
{
closed = 1;
nodes = (
(284,0,l),
(284,476,l),
(284,950,l),
(284,1426,l),
(220,1426,l),
(220,950,l),
(220,476,l),
(220,0,l)
);
},
{
closed = 1;
nodes = (
(1262,694,l),
(1262,756,l),
(242,756,l),
(242,694,l)
);
},
{
closed = 1;
nodes = (
(60,1064,l),
(424,1064,l),
(1076,1064,l),
(1440,1064,l),
(1440,1124,l),
(1076,1124,l),
(424,1124,l),
(60,1124,l)
);
}
);
width = 1498;
}
);
leftKerningGroup = B;
rightKerningGroup = H;
unicode = 294;
},
{
glyphname = I;
layers = (
{
anchors = (
{
name = bottom;
position = "{344, 0}";
},
{
name = ogonek;
position = "{604, 0}";
},
{
name = top;
position = "{344, 1426}";
},
{
name = topleft;
position = "{90, 1426}";
}
);
layerId = "6958D9FC-3AA0-42A5-A7C5-41542F6C8ADC";
shapes = (
{
closed = 1;
nodes = (
(604,0,l),
(604,458,l),
(604,948,l),
(604,1426,l),
(102,1426,l),
(102,948,l),
(102,458,l),
(102,0,l)
);
}
);
width = 706;
},
{
anchors = (
{
name = bottom;
position = "{304, 0}";
},
{
name = ogonek;
position = "{464, 0}";
},
{
name = top;
position = "{304, 1426}";
},
{
name = topleft;
position = "{59, 1426}";
}
);
layerId = "05F448A1-237D-4A5F-844D-77861616AAFF";
shapes = (
{
closed = 1;
nodes = (
(431,0,l),
(431,468,l),
(431,949,l),
(431,1426,l),
(166,1426,l),
(166,949,l),
(166,468,l),
(166,0,l)
);
}
);
width = 596;
},
{
anchors = (
{
name = bottom;
position = "{275, 0}";
},
{
name = ogonek;
position = "{364, 0}";
},
{
name = top;
position = "{275, 1426}";
},
{
name = topleft;
position = "{38, 1426}";
}
);
layerId = "7735F29D-4F76-449E-8F41-87F6EE236855";
shapes = (
{
closed = 1;
nodes = (
(365,0,l),
(365,472,l),
(365,949,l),
(365,1426,l),
(190,1426,l),
(190,949,l),
(190,472,l),
(190,0,l)
);
}
);
width = 555;
},
{
anchors = (
{
name = bottom;
position = "{252, 0}";
},
{
name = ogonek;
position = "{284, 0}";
},
{
name = top;
position = "{252, 1426}";
},
{
name = topleft;
position = "{20, 1426}";
}
);
layerId = "5BCA41AC-1A8A-4D79-8779-5300D22224AB";
shapes = (
{
closed = 1;
nodes = (
(284,0,l),
(284,476,l),
(284,950,l),
(284,1426,l),
(220,1426,l),
(220,950,l),
(220,476,l),
(220,0,l)
);
}
);
width = 504;
}
);
leftKerningGroup = B;
rightKerningGroup = H;
unicode = 73;
},
{
glyphname = "Ia-cy";
layers = (
{
anchors = (
{
name = top;
position = "{709, 1426}";
}
);
layerId = "6958D9FC-3AA0-42A5-A7C5-41542F6C8ADC";
shapes = (
{
closed = 1;
nodes = (
(552,0,l),
(601,104,o),
(644,190,o),
(687,282,cs),
(878,682,l),
(598,502,l),
(934,502,l),
(934,796,l),
(725,796,ls),
(696,796,o),
(666,801,o),
(646,821,c),
(625,840,o),
(611,872,o),
(611,928,cs),
(611,943,o),
(611,955,o),
(614,967,c),
(618,990,o),
(626,1009,o),
(638,1024,c),
(645,1031,o),
(651,1038,o),
(659,1043,cs),
(674,1054,o),
(694,1058,o),
(715,1058,cs),
(1098,1058,l),
(844,1346,l),
(844,868,l),
(844,458,l),
(844,0,l),
(1326,0,l),
(1326,458,l),
(1326,948,l),
(1326,1426,l),
(701,1426,ls),
(512,1426,o),
(367,1403,o),
(263,1335,cs),
(159,1267,o),
(105,1158,o),
(105,981,cs),
(105,848,o),
(143,741,o),
(223,668,cs),
(303,595,o),
(422,554,o),
(589,554,c),
(394,714,l),
(239,423,ls),
(203,355,o),
(161,278,o),
(121,202,cs),
(81,126,o),
(43,56,o),
(14,0,c)
);
}
);
width = 1418;
},
{
anchors = (
{
name = top;
position = "{679, 1426}";
}
);
layerId = "05F448A1-237D-4A5F-844D-77861616AAFF";
shapes = (
{
closed = 1;
nodes = (
(339,0,l),
(420,117,o),
(494,219,o),
(566,323,cs),
(811,671,l),
(652,535,l),
(987,535,l),
(987,745,l),
(726,745,ls),
(625,745,o),
(549,761,o),
(498,801,cs),
(447,840,o),
(422,903,o),
(422,996,cs),
(422,1029,o),
(426,1057,o),
(433,1081,cs),
(448,1128,o),
(473,1160,o),
(506,1180,cs),
(523,1191,o),
(541,1198,o),
(560,1203,cs),
(599,1214,o),
(640,1216,o),
(679,1216,cs),
(1073,1216,l),
(940,1386,l),
(940,909,l),
(940,468,l),
(940,0,l),
(1196,0,l),
(1196,468,l),
(1196,949,l),
(1196,1426,l),
(670,1426,ls),
(498,1426,o),
(373,1401,o),
(285,1337,cs),
(197,1273,o),
(154,1173,o),
(154,1024,cs),
(154,903,o),
(187,796,o),
(264,716,cs),
(340,636,o),
(459,589,o),
(638,589,c),
(554,697,l),
(347,412,ls),
(299,347,o),
(245,271,o),
(192,198,cs),
(139,125,o),
(88,56,o),
(48,0,c)
);
}
);
width = 1358;
},
{
anchors = (
{
name = top;
position = "{665, 1426}";
}
);
layerId = "7735F29D-4F76-449E-8F41-87F6EE236855";
shapes = (
{
closed = 1;
nodes = (
(258,0,l),
(354,122,o),
(443,230,o),
(528,338,cs),
(786,667,l),
(673,583,l),
(1007,583,l),
(1007,726,l),
(726,726,ls),
(598,726,o),
(504,745,o),
(442,794,cs),
(380,843,o),
(350,916,o),
(350,1025,cs),
(350,1066,o),
(355,1100,o),
(364,1129,cs),
(383,1186,o),
(414,1223,o),
(456,1246,cs),
(477,1257,o),
(499,1265,o),
(522,1271,cs),
(569,1282,o),
(618,1283,o),
(665,1283,cs),
(1072,1283,l),
(977,1401,l),
(977,925,l),
(977,472,l),
(977,0,l),
(1147,0,l),
(1147,472,l),
(1147,949,l),
(1147,1426,l),
(658,1426,ls),
(495,1426,o),
(377,1400,o),
(294,1337,cs),
(211,1275,o),
(173,1180,o),
(173,1040,cs),
(173,923,o),
(203,819,o),
(279,741,cs),
(355,663,o),
(474,615,o),
(657,615,c),
(615,690,l),
(388,408,ls),
(336,343,o),
(277,269,o),
(219,197,cs),
(161,124,o),
(105,56,o),
(61,0,c)
);
}
);
width = 1335;
},
{
anchors = (
{
name = top;
position = "{653, 1426}";
}
);
layerId = "5BCA41AC-1A8A-4D79-8779-5300D22224AB";
shapes = (
{
closed = 1;
nodes = (
(160,0,l),
(273,129,o),
(380,244,o),
(481,357,cs),
(755,662,l),
(698,642,l),
(1032,642,l),
(1032,702,l),
(726,702,ls),
(565,702,o),
(449,726,o),
(373,786,cs),
(297,846,o),
(262,931,o),
(262,1060,cs),
(262,1111,o),
(268,1153,o),
(280,1188,cs),
(303,1256,o),
(342,1301,o),
(394,1326,c),
(421,1338,o),
(447,1346,o),
(476,1353,c),
(533,1364,o),
(592,1364,o),
(648,1364,cs),
(1070,1364,l),
(1022,1420,l),
(1022,944,l),
(1022,476,l),
(1022,0,l),
(1086,0,l),
(1086,476,l),
(1086,950,l),
(1086,1426,l),
(644,1426,ls),
(491,1426,o),
(381,1398,o),
(305,1338,cs),
(229,1278,o),
(196,1189,o),
(196,1060,cs),
(196,947,o),
(222,847,o),
(298,771,cs),
(373,695,o),
(492,647,o),
(680,646,c),
(689,682,l),
(438,403,ls),
(381,339,o),
(315,267,o),
(251,195,cs),
(187,123,o),
(125,56,o),
(76,0,c)
);
}
);
width = 1306;
}
);
rightKerningGroup = uni0406;
unicode = 1071;
},
{
glyphname = Idieresis.calt;
layers = (
{
layerId = "6958D9FC-3AA0-42A5-A7C5-41542F6C8ADC";
shapes = (
{
closed = 1;
nodes = (
(604,0,l),
(604,458,l),
(604,948,l),
(604,1426,l),
(102,1426,l),
(102,948,l),
(102,458,l),
(102,0,l)
);
},
{
closed = 1;
nodes = (
(842,1498,o),
(917,1565,o),
(917,1706,cs),
(917,1762,o),
(898,1813,o),
(862,1849,cs),
(826,1885,o),
(775,1908,o),
(707,1908,cs),
(639,1908,o),
(587,1887,o),
(551,1851,cs),
(515,1815,o),
(495,1766,o),
(495,1706,cs),
(495,1565,o),
(572,1498,o),
(705,1498,cs)
);
},
{
closed = 1;
nodes = (
(237,1498,o),
(312,1565,o),
(312,1706,cs),
(312,1762,o),
(293,1813,o),
(257,1849,cs),
(221,1885,o),
(170,1908,o),
(102,1908,cs),
(34,1908,o),
(-18,1887,o),
(-54,1851,cs),
(-90,1815,o),
(-110,1766,o),
(-110,1706,cs),
(-110,1565,o),
(-33,1498,o),
(100,1498,cs)
);
}
);
width = 706;
},
{
layerId = "05F448A1-237D-4A5F-844D-77861616AAFF";
shapes = (
{
closed = 1;
nodes = (
(431,0,l),
(431,468,l),
(431,949,l),
(431,1426,l),
(166,1426,l),
(166,949,l),
(166,468,l),
(166,0,l)
);
},
{
closed = 1;
nodes = (
(679,1605,o),
(730,1649,o),
(730,1745,cs),
(730,1786,o),
(717,1821,o),
(694,1845,cs),
(671,1869,o),
(637,1883,o),
(596,1883,cs),
(555,1883,o),
(520,1870,o),
(497,1846,cs),
(473,1822,o),
(460,1788,o),
(460,1745,cs),
(460,1649,o),
(510,1605,o),
(594,1605,cs)
);
},
{
closed = 1;
nodes = (
(158,1605,o),
(209,1649,o),
(209,1745,cs),
(209,1786,o),
(196,1821,o),
(173,1845,cs),
(150,1869,o),
(116,1883,o),
(75,1883,cs),
(34,1883,o),
(-1,1870,o),
(-25,1846,cs),
(-48,1822,o),
(-61,1788,o),
(-61,1745,cs),
(-61,1649,o),
(-11,1605,o),
(73,1605,cs)
);
}
);
width = 596;
},
{
layerId = "7735F29D-4F76-449E-8F41-87F6EE236855";
shapes = (
{
closed = 1;
nodes = (
(365,0,l),
(365,472,l),
(365,949,l),
(365,1426,l),
(190,1426,l),
(190,949,l),
(190,472,l),
(190,0,l)
);
},
{
closed = 1;
nodes = (
(619,1645,o),
(659,1681,o),
(659,1759,cs),
(659,1794,o),
(649,1823,o),
(631,1843,cs),
(613,1863,o),
(586,1873,o),
(554,1873,cs),
(522,1873,o),
(495,1863,o),
(477,1843,cs),
(458,1823,o),
(447,1796,o),
(447,1759,cs),
(447,1681,o),
(488,1645,o),
(552,1645,cs)
);
},
{
closed = 1;
nodes = (
(129,1645,o),
(170,1681,o),
(170,1759,cs),
(170,1794,o),
(160,1823,o),
(142,1843,cs),
(123,1863,o),
(97,1873,o),
(65,1873,cs),
(33,1873,o),
(5,1863,o),
(-13,1843,cs),
(-32,1823,o),
(-43,1796,o),
(-43,1759,cs),
(-43,1681,o),
(-2,1645,o),
(63,1645,cs)
);
}
);
width = 555;
},
{
layerId = "5BCA41AC-1A8A-4D79-8779-5300D22224AB";
shapes = (
{
closed = 1;
nodes = (
(284,0,l),
(284,476,l),
(284,950,l),
(284,1426,l),
(220,1426,l),
(220,950,l),
(220,476,l),
(220,0,l)
);
},
{
closed = 1;
nodes = (
(545,1694,o),
(573,1720,o),
(573,1776,cs),
(573,1804,o),
(566,1825,o),
(554,1840,cs),
(542,1855,o),
(524,1860,o),
(503,1860,cs),
(482,1860,o),
(464,1855,o),
(452,1840,cs),
(439,1825,o),
(431,1805,o),
(431,1776,cs),
(431,1720,o),
(461,1694,o),
(501,1694,cs)
);
},
{
closed = 1;
nodes = (
(94,1694,o),
(122,1720,o),
(122,1776,cs),
(122,1804,o),
(115,1825,o),
(103,1840,cs),
(91,1855,o),
(73,1860,o),
(52,1860,cs),
(31,1860,o),
(13,1855,o),
(1,1840,cs),
(-12,1825,o),
(-20,1805,o),
(-20,1776,cs),
(-20,1720,o),
(10,1694,o),
(50,1694,cs)
);
}
);
width = 504;
}
);
},
